<svg xmlns="http://www.w3.org/2000/svg" width="192.628" height="51.024"><path fill="#4497B1" d="M173.458 12.223c-.042.027-.087.049-.131.071h.108l.023-.071z"/><path fill="#BC0030" d="M168.625 13.42h15.228v.242h-15.228z"/><path fill="#FFF" d="M168.625 16.15v2.104h15.228v-4.592h-15.228z"/><path fill="#BC0030" d="M168.625 18.454v.042h15.224c0-.014.004-.028.004-.042v-.2h-15.228v.2z"/><path fill="#50B63F" d="M168.625 18.496v5.076h10.229a4.72 4.72 0 002.049-.483c1.712-.823 2.928-2.612 2.946-4.593h-15.224z"/><path fill="#FFF" d="M171.248 11.025c0-.792.642-1.435 1.433-1.435.069 0 .134.011.2.02a1.707 1.707 0 00-.975-.306 1.718 1.718 0 10.976 3.13c-.066.009-.132.02-.201.02-.791 0-1.433-.64-1.433-1.429z"/><path fill="#4497B1" d="M180.997 8.828a5.113 5.113 0 00-2.143-.483h-5.266c-.767 0-1.486.182-2.136.483-1.662.77-2.827 2.401-2.827 4.361v.232h15.228v-.232c0-1.961-1.183-3.591-2.856-4.361zm-9.09 3.912a1.718 1.718 0 11.975-3.13c-.066-.009-.131-.02-.2-.02a1.431 1.431 0 100 2.864c.069 0 .135-.011.201-.02a1.71 1.71 0 01-.976.306zm1.806-.063l-.202-.146-.203.146.077-.238-.141-.101-.062-.044h.143c.044-.023.089-.044.131-.071l.054-.169.033.103.044.137h.249l-.202.145.079.238zm1.374 0l-.2-.145-.203.145.077-.238-.202-.145h.249l.078-.24.077.24h.249l-.202.146.077.237zm-.076-1.615l.076.237-.2-.145-.203.145.077-.238-.202-.145h.249l.078-.237.077.237h.249l-.201.146zm1.452 1.615l-.2-.146-.204.146.078-.238-.201-.145h.249l.077-.24.078.24h.25l-.204.145.077.238zm-.076-1.616l.076.238-.2-.146-.204.146.078-.238-.201-.145h.249l.077-.237.078.237h.251l-.204.145zm0-1.373l.076.239-.2-.148-.204.148.078-.239-.201-.147h.25l.076-.237.077.237h.251l-.203.147zm1.451 2.989l-.201-.145-.203.145.078-.238-.201-.145h.249l.078-.24.076.24h.25l-.203.146.077.237zm-.077-1.615l.077.237-.201-.145-.203.145.078-.238-.201-.145h.249l.078-.237.076.237h.25l-.203.146zm0-1.373l.077.238-.201-.147-.203.147.078-.239-.201-.147h.25l.077-.237.075.237h.25l-.202.148zm1.453 2.988l-.201-.145-.201.145.077-.237-.203-.146h.25l.078-.24.077.24h.249l-.204.146.078.237zm-.078-1.614l.078.237-.201-.145-.201.145.077-.237-.203-.146h.251l.078-.237.077.237h.249l-.205.146zm0-1.373l.077.238-.201-.148-.201.148.076-.238-.202-.148h.251l.077-.237.076.237h.249l-.202.148z"/><path fill="#FFF" d="M176.261 9.304l-.076.238h.041zm.078.238l-.078-.238.036.238z"/><path fill="#FFF" d="M176.244 9.542h.053l-.036-.238-.035.238zm.346 0h-.251l.013.039zm-.286.047l.048-.008-.013-.039h-.042z"/><path fill="#FFF" d="M176.286 9.585l.003.006.015-.002-.007-.047h-.017v.051zm.101.103l.203-.146-.215.108z"/><path fill="#FFF" d="M176.358 9.599l.017.051.215-.108-.238.039z"/><path fill="#FFF" d="M176.314 9.605l-.006.008v.002l.05-.016-.006-.018-.048.008.002.014zm-.02-.004l.012.002-.002-.014-.015.002z"/><path fill="#FFF" d="M176.308 9.615v-.002l-.001.002zm-.372-.073l.2.147.013-.039zm.378.063l-.008-.002.002.01z"/><path fill="#FFF" d="M176.307 9.615l.001-.002-.002-.01-.012-.002.008.015zm-.135-.034l.013-.039h-.249z"/><path fill="#FFF" d="M176.219 9.589l.007-.047h-.041l-.013.039z"/><path fill="#FFF" d="M176.237 9.585l.006.008h.001v-.051h-.018l-.007.047.015.002zm.025.011l.018-.003v-.051h-.036v.051z"/><path fill="#FFF" d="M176.28 9.593l-.018.003.014.002zm-.114.006h.001l.005-.018-.236-.039.213.108zm.049.015v-.002l-.005-.007.006-.002.003-.014-.047-.008-.005.018z"/><path fill="#FFF" d="M176.215 9.612v.002l.002.001zm.029-.019h-.001l.001.001zm-.016.008l.006-.01-.015-.002-.003.014zm.019-.003l.015-.002-.018-.003v.001zm-.037.007l.005.007.001-.009z"/><path fill="#FFF" d="M176.221 9.616l.007-.015-.012.002-.001.009.002.003zm.041.003l.014-.021-.014-.002-.015.002zm.201.308l-.076-.239-.035.025zm-.132-.255l.021.041.035-.025-.012-.038z"/><path fill="#FFF" d="M176.321 9.648l.007.002-.005.006.008.016.044-.022-.017-.051.01.034z"/><path fill="#FFF" d="M176.311 9.633l.007.014.003.001.047-.015-.01-.034-.05.016z"/><path fill="#FFF" d="M176.304 9.619l.007.014-.003-.018h-.001zm.003-.004l-.005.001.002.003zm-.045.165l.201.147-.167-.172zm.027-.189l-.003-.006-.006.008zm-.009.008l.014.002-.005-.01-.009.002zm0 .024l.022-.007-.008-.015-.014-.002zm0-.03z"/><path fill="#FFF" d="M176.28 9.623v-.024l-.004-.001-.014.021.006.008zm.058.1l.001.002-.043.03.167.172-.111-.214zm-.02-.039l-.007-.002-.002.001.029.04.014-.01-.021-.041-.013.007z"/><path fill="#FFF" d="M176.318 9.684v-.005l-.007.003zm-.003-.02l.003.015.013-.007-.008-.016zm-.006.019l.002-.001-.004-.001z"/><path fill="#FFF" d="M176.307 9.681l.004.001.007-.003-.003-.015-.011.012zm.011-.034l-.007-.014.002.012zm-.028-.009l.023.007-.002-.012-.007-.014z"/><path fill="#FFF" d="M176.29 9.638l.014-.019-.002-.003-.022.007v.012zm-.018-.006l.008.003v-.012l-.012.004zm-.214.295l.204-.147-.035-.026zm.179-.342l-.003.006.009.002z"/><path fill="#FFF" d="M176.244 9.594l-.001-.001-.009-.002-.006.01.016-.002zm0 0v.005l.003-.001zm0 .03v-.025l-.016.002-.007.015zm.018-.005l-.015-.021-.003.001v.025l.012.003zm-.001.1l-.034.035.035.026.034-.025z"/><path fill="#FFF" d="M176.262 9.629l.006-.002-.006-.008-.006.008zm.018.075v.012l-.01-.005-.009.008.035.036.043-.03-.001-.002-.03.022z"/><path fill="#FFF" d="M176.284 9.696l-.004.004v.004l.028.041.03-.022-.029-.04z"/><path fill="#FFF" d="M176.301 9.679l-.017.017.025-.013-.002-.002zm.006.002l-.003-.005-.003.003zm-.037.03l.01.005v-.012l-.002-.002zm.01-.007V9.7l-.002.002zm-.012-.077l-.006.002.01.003zm-.132.062l-.078.238.112-.214zm.056-.018l-.043-.021-.013.039.034.024zm.002-.021l.008-.002-.046-.015.011-.034h-.001l-.017.051.043.021.008-.015z"/><path fill="#FFF" d="M176.202 9.648l.002-.001.008-.014.003-.019-.048-.015-.011.034z"/><path fill="#FFF" d="M176.22 9.618l-.003-.003-.002-.001-.003.019z"/><path fill="#FFF" d="M176.217 9.615l.003.003.001-.002zm.106.041l.005-.006-.007-.002-.002.001z"/><path fill="#FFF" d="M176.321 9.648l-.003-.001.001.002zm-.119 0l-.008.002.006.006.004-.008zm.002-.001l-.002.001h.002zm.109.003l.002.014.008-.008-.004-.007z"/><path fill="#FFF" d="M176.29 9.658l.014.018.011-.012-.002-.014zm.023-.01h.006v.002h-.006z"/><path fill="#FFF" d="M176.29 9.658l.023-.008v-.005l-.023-.007-.007.01z"/><path fill="#FFF" d="M176.28 9.644l.003.004.007-.01-.01-.003zm0-.009l-.008-.003.008.012zm-.067.109v.001l-.043-.032-.112.214.169-.173z"/><path fill="#FFF" d="M176.216 9.684l-.003-.002-.009.002.001-.006-.013-.007-.022.042.043.032v-.001l-.026-.019z"/><path fill="#FFF" d="M176.204 9.684l.009-.002-.008-.004zm.009-.002l.003.002.002-.004z"/><path fill="#FFF" d="M176.207 9.664l-.007-.008-.008.015.013.007zm.005-.031l-.008.014.006-.002z"/><path fill="#FFF" d="M176.22 9.677l-.013-.013-.002.014.008.004.005-.002zm.013-.039l-.013-.02-.008.015-.002.012z"/><path fill="#FFF" d="M176.244 9.635v-.011l-.023-.008-.001.002.013.02zm.008-.003l.004-.005-.012-.003v.011zm-.048.016l-.004.008.007.008.002-.014z"/><path fill="#FFF" d="M176.204 9.645h.005v.006h-.005z"/><path fill="#FFF" d="M176.234 9.658l-.025-.008-.002.014.013.013z"/><path fill="#FFF" d="M176.233 9.638l-.023.007-.001.005.025.008.007-.01z"/><path fill="#FFF" d="M176.244 9.643v-.008l-.011.003.008.01zm.008-.011l-.008.003v.008zm-.008.084v-.014l-.031.042.014.01.034-.035-.007-.008z"/><path fill="#FFF" d="M176.244 9.716l.01-.005-.01-.009z"/><path fill="#FFF" d="M176.237 9.694l-.021-.01-.029.041.026.019.031-.042z"/><path fill="#FFF" d="M176.218 9.68l-.002.004.021.01-.015-.015z"/><path fill="#FFF" d="M176.218 9.68l.004-.001-.002-.002zm.038-.053l-.004.005.01-.003zm.001.081h.01v.011h-.01zm-.013-.006v-.001z"/><path fill="#FFF" d="M176.244 9.701v.001l.01.009.008-.004-.016-.008zm.036-.001l.004-.004-.004.002zm0-.028v.026l.004-.002.017-.017z"/><path fill="#FFF" d="M176.28 9.672l.021.007.003-.003-.014-.018-.01.003z"/><path fill="#FFF" d="M176.28 9.652v.009l.01-.003-.007-.01zm-.036.046l-.007-.004.007.008v-.001zm0 .003l.002-.002-.002-.001z"/><path fill="#FFF" d="M176.283 9.648l-.003-.004v.008zm-.006.052l-.015.007.008.004.008-.009z"/><path fill="#FFF" d="M176.261 9.678l-.015.021.016.008.015-.007zm.016.021h.003v.002h-.003z"/><path fill="#FFF" d="M176.261 9.678l.016.022.003-.002v-.026l-.012-.004zm.011-.015l-.004.005.012.004v-.011zm.008-.002v-.009l-.008.011zm-.036.011l-.022.007.015.015.007.004z"/><path fill="#FFF" d="M176.234 9.658l-.014.019.002.002.022-.007v-.011zm.01-.005l-.003-.005-.007.01.01.003zm0 .019v.026l.002.001.015-.021-.006-.009z"/><path fill="#FFF" d="M176.251 9.663l-.007-.002v.011l.011-.003z"/><path fill="#FFF" d="M176.244 9.661l.007.002-.007-.01zm-.003-.013l.003.005v-.01zm.021.019l-.007.002.006.009.007-.01zm.006.001l.004-.005-.01.004z"/><path fill="#FFF" d="M176.255 9.669l.007-.002-.011-.004z"/><path fill="#FFF" d="M176.244 9.653l.007.01.011.004.01-.004.008-.011v-.008l-.008-.012-.01-.003-.01.003-.008.011zm1.394-.349l-.078.238h.041zm.075.238l-.075-.238.035.238z"/><path fill="#FFF" d="M177.619 9.542h.054l-.035-.238-.037.238zm.344 0h-.25l.012.039z"/><path fill="#FFF" d="M177.68 9.588l.045-.007-.012-.039h-.04zm-.024.004l.006-.007.003.006.015-.003-.007-.046h-.021v.051zm.105.097l.202-.147-.215.108z"/><path fill="#FFF" d="M177.731 9.599h.001l.016.051.215-.108-.238.039z"/><path fill="#FFF" d="M177.689 9.605l-.005.007v.002l.047-.015-.006-.018-.045.007.002.015zm-.033-.013l-.004.001v.005z"/><path fill="#FFF" d="M177.684 9.614v-.002l-.003.003zm-.013-.013l.011.002-.002-.015-.015.003zm-.361-.059l.201.147.013-.039zm.379.063l-.007-.002.002.009z"/><path fill="#FFF" d="M177.681 9.615l.003-.003-.002-.009-.011-.002.007.015zm-.134-.034l.013-.039h-.25z"/><path fill="#FFF" d="M177.594 9.589l.007-.047h-.041l-.013.039z"/><path fill="#FFF" d="M177.61 9.585l.006.007.003.001v-.051h-.018l-.007.047.013.002zm.026.011l.016-.003v-.051h-.033v.051z"/><path fill="#FFF" d="M177.652 9.598v-.005l-.016.003.016.002zm-.112.001h.001l.006-.018-.237-.039.214.108z"/><path fill="#FFF" d="M177.59 9.614l-.007-.009.008-.002.003-.014-.047-.008-.006.018zm.029-.021l-.003-.001.003.004zm-.029.021zm.022-.024l-.006.011-.012-.006.005-.011zm.008.008l.016-.002-.017-.003v.003z"/><path fill="#FFF" d="M177.583 9.605l.007.009.001-.011z"/><path fill="#FFF" d="M177.594 9.616l.008-.015-.011.002-.001.011zm.042.004l.016-.022-.016-.002-.016.002zm.202.307l-.077-.238-.033.024zm-.132-.255l.022.041.033-.024-.013-.039z"/><path fill="#FFF" d="M177.696 9.648l.009.002-.006.006.007.016.042-.022-.016-.051h-.001l.011.034z"/><path fill="#FFF" d="M177.687 9.634l.007.013.002.001.046-.015-.011-.034-.047.015zm-.008-.016l.008.016-.003-.02-.003.001z"/><path fill="#FFF" d="M177.681 9.615l-.003.001.001.002zm-.044.165l.201.147-.167-.172zm.025-.195l-.006.007.009-.001zm-.01.013l.019.003-.006-.01-.009.001-.004.006z"/><path fill="#FFF" d="M177.652 9.624l.026-.008-.007-.015-.019-.003zm0-.026zm0 .026v-.026l-.016.022.006.007zm.061.1v.001l-.042.03.167.172-.11-.214z"/><path fill="#FFF" d="M177.695 9.684l-.009-.002-.003.002.03.04.015-.011-.022-.041-.012.006z"/><path fill="#FFF" d="M177.695 9.684l-.001-.006-.008.004zm-.003-.02l.002.014.012-.006-.007-.016zm-.009.02l.003-.002-.005-.002z"/><path fill="#FFF" d="M177.681 9.68l.005.002.008-.004-.002-.014-.013.013zm.013-.033l-.007-.013.002.011zm-.029-.009l.024.007-.002-.011-.008-.016zm0 0l.014-.02-.001-.002-.026.008v.01zm-.02-.006l.007.002v-.01l-.01.003zm-.212.295l.204-.147-.035-.025zm.177-.342l-.003.006.009.001zm.009.011l-.003-.004-.009-.001-.005.01.017-.002z"/><path fill="#FFF" d="M177.619 9.596v.003l.001-.001zm0 .027v-.024l-.017.002-.008.015z"/><path fill="#FFF" d="M177.636 9.62l-.016-.022-.001.001v.024l.012.004zm.001.099l-.035.036.035.025.034-.025zm0-.09l.005-.002-.006-.007-.005.007z"/><path fill="#FFF" d="M177.654 9.702l-.002.002v.012l-.008-.004-.007.007.034.036.042-.03v-.001l-.028.021z"/><path fill="#FFF" d="M177.661 9.694l-.007.008.031.043.028-.021-.03-.04z"/><path fill="#FFF" d="M177.677 9.679l-.016.015.022-.01-.002-.004zm.004.001l-.002-.003-.002.002zm-.029.036v-.012l-.008.008zm-.01-.089l-.005.002.008.003zm-.131.062l-.078.238.111-.214z"/><path fill="#FFF" d="M177.565 9.672l-.041-.022-.013.039.033.024zm.005-.022l.008-.002-.048-.015.011-.034h-.001l-.016.051.041.022.009-.018z"/><path fill="#FFF" d="M177.578 9.648l.009-.019.003-.015-.049-.015-.011.034zm.015-.03l-.003-.004-.003.015z"/><path fill="#FFF" d="M177.59 9.614l.003.004.001-.002zm.109.042l.006-.006-.009-.002h-.002zm-.003-.008l-.002-.001v.001zm-.126.002l.004.004.004-.006zm.12 0l.002.014.007-.008-.005-.008zm-.026.008l.015.019.013-.013-.002-.014z"/><path fill="#FFF" d="M177.689 9.648h.005v.001h-.005z"/><path fill="#FFF" d="M177.664 9.658l.026-.008-.001-.005-.024-.007-.008.01z"/><path fill="#FFF" d="M177.652 9.641l.005.007.008-.01-.013-.004zm0-.007l-.007-.002.007.009zm-.065.11v.001l-.043-.032-.111.214.169-.172z"/><path fill="#FFF" d="M177.59 9.684l-.004-.002-.007.002.001-.005-.015-.007-.021.041.043.032v-.001l-.027-.019z"/><path fill="#FFF" d="M177.579 9.684l.007-.002-.006-.003zm.007-.002l.004.002.003-.004zm-.004-.019l-.008-.009-.009.018.015.007zm-.004-.015zm.007-.002l.002-.017-.009.019z"/><path fill="#FFF" d="M177.596 9.676l-.014-.013-.002.016.006.003.007-.002zm.012-.038l-.015-.02-.006.011-.002.017z"/><path fill="#FFF" d="M177.619 9.635v-.012l-.025-.007-.001.002.015.02zm.008-.003l.004-.005-.012-.004v.012zm-.049.016l-.004.006.008.009.002-.013z"/><path fill="#FFF" d="M177.578 9.648l.006.002.001-.004zm.031.01l-.025-.008-.002.013.014.013z"/><path fill="#FFF" d="M177.608 9.638l-.023.008-.001.004.025.008.006-.009z"/><path fill="#FFF" d="M177.619 9.644v-.009l-.011.003.007.011zm.008-.012l-.008.003v.009zm-.008.084v-.015l-.032.043.015.011.035-.036-.008-.008z"/><path fill="#FFF" d="M177.619 9.701v.015l.01-.005-.01-.01zm0 0l-.003-.003-.026-.014-.03.041.027.019.032-.043zm0 0zm-.026-.021l-.003.004.026.014-.018-.019zm0 0l.005-.001-.002-.003zm.038-.053l-.004.005.01-.003zm.019.072h.005v.003h-.005zm-.017.009h.007v.012h-.007z"/><path fill="#FFF" d="M177.619 9.701l.01.01.007-.003-.016-.008zm.033-.002zm.002.003l.007-.008-.009.005zm-.002-.031v.028l.009-.005.016-.015zm0 0l.025.008.002-.002-.015-.019-.012.003zm0-.015v.005l.012-.003-.007-.01zm-.036.042l.003.003v-.002zm.003.001h.001V9.7h-.001z"/><path fill="#FFF" d="M177.657 9.648l-.005-.007v.015zm-.021.06l.008.004.008-.008v-.005zm.016-.009l-.016-.021-.016.022.016.008.016-.009z"/><path fill="#FFF" d="M177.636 9.678l.016.021v-.028l-.009-.003z"/><path fill="#FFF" d="M177.644 9.664h.009v.006h-.009zm.008-.003v-.005l-.006.007zm-.033.011l-.021.007.018.019.003.001z"/><path fill="#FFF" d="M177.609 9.658l-.013.018.002.003.021-.007v-.011zm.01-.004l-.004-.005-.006.009.01.003zm0 .018v.027l.001.001.016-.022-.006-.01z"/><path fill="#FFF" d="M177.625 9.663l-.006-.002v.011l.011-.004z"/><path fill="#FFF" d="M177.619 9.661l.006.002-.006-.009zm-.004-.012l.004.005v-.01zm.022.017l-.007.002.006.01.007-.01zm.006.002l.003-.005-.009.003zm-.013 0l.007-.002-.012-.003z"/><path fill="#FFF" d="M177.619 9.654l.006.009.012.003.009-.003.006-.007v-.015l-.007-.009-.008-.003-.01.003-.008.012zm1.395-.35l-.078.238h.04zm.076.238l-.076-.238.034.238z"/><path fill="#FFF" d="M178.996 9.542h.052l-.034-.238-.038.238zm.343 0h-.249l.013.039zm-.285.047l.049-.008-.013-.039h-.042z"/><path fill="#FFF" d="M179.029 9.593l.006-.008.004.006.015-.002-.006-.047h-.02v.051zm.107.097l.203-.148-.215.109zm-.017-.057l-.001.001.006.017.215-.109-.236.039z"/><path fill="#FFF" d="M179.065 9.605l-.007.009.049-.015.011.035.001-.001-.016-.052-.049.008.002.014zm-.036-.012h-.001v.002zm.015.008l.012.002-.002-.014-.015.002zm-.359-.059l.202.148.013-.039z"/><path fill="#FFF" d="M179.058 9.614l.007-.009-.009-.002.002.011zm0 0l-.002-.011-.012-.002.008.015zm-.135-.033l.013-.039h-.251z"/><path fill="#FFF" d="M178.969 9.589l.007-.047h-.04l-.013.039z"/><path fill="#FFF" d="M178.988 9.585l.006.008h.002v-.051h-.02l-.007.047.015.002z"/><path fill="#FFF" d="M179.012 9.596l.016-.003v-.051h-.032v.051z"/><path fill="#FFF" d="M179.028 9.595v-.002l-.016.003.014.002zm-.111.004h.001l.005-.018-.238-.039.215.109zm.048.015v-.002l-.006-.007.008-.002.002-.014-.046-.008-.005.018z"/><path fill="#FFF" d="M178.979 9.601l.005-.01-.015-.002-.002.014zm.017-.008h-.002l.002.003zm-.031.019v.002h.002zm.033-.014l.014-.002-.016-.003v.003zm-.039.007l.006.007.002-.009z"/><path fill="#FFF" d="M178.972 9.616l.007-.015-.012.002-.002.009.002.002zm.04.002l.014-.02-.014-.002-.014.002zm.202.309l-.078-.237-.033.024zm-.133-.254l.022.041.033-.024-.012-.039z"/><path fill="#FFF" d="M179.081 9.65l-.008.008.008.015.043-.022-.006-.017-.045.014zm-.023-.036l.003.02.006.012.006.002.045-.014-.011-.035z"/><path fill="#FFF" d="M179.061 9.634l-.003-.02-.004.006zm-.003-.02z"/><path fill="#FFF" d="M179.053 9.612h.004v.007h-.004zm-.041.168l.202.147-.168-.172zm.023-.195l-.006.008.01-.002zm-.007.013l.016.003-.005-.01-.01.002-.001.002z"/><path fill="#FFF" d="M179.028 9.624l.024-.008-.008-.015-.016-.003zm0-.029l-.002.003h.002zm0 .029v-.026h-.002l-.014.02.006.009zm.033.121v-.001l-.015.011.168.172-.111-.213z"/><path fill="#FFF" d="M179.068 9.684l-.006-.001-.003.001.029.041-.027.019v.001l.042-.031-.022-.041-.014.007z"/><path fill="#FFF" d="M179.068 9.684l-.001-.004-.005.003zm-.003-.018l.002.014.014-.007-.008-.015zm-.006.018l.003-.001-.005-.002z"/><path fill="#FFF" d="M179.057 9.681l.005.002.005-.003-.002-.014-.011.011zm.01-.035l-.006-.012.001.01zm-.026-.008l.021.006-.001-.01-.007-.014z"/><path fill="#FFF" d="M179.041 9.638l.013-.018-.002-.004-.024.008v.01zm-.019-.006l.006.002v-.01l-.01.003zm-.211.295l.201-.147-.033-.025zm.177-.342l-.004.006.01.002z"/><path fill="#FFF" d="M178.996 9.596l-.002-.003-.01-.002-.005.01.017-.003zm0 0v.002h.002zm0 .028v-.026l-.017.003-.007.015z"/><path fill="#FFF" d="M179.012 9.618l-.014-.02h-.002v.026l.009.003zm0 .103l-.033.034.033.025.034-.025zm0-.092l.006-.002-.006-.009-.007.009z"/><path fill="#FFF" d="M179.028 9.704v.012l-.007-.004-.009.009.034.034.015-.011-.031-.042zm.031-.02l-.022.012-.007.006.031.042.027-.019zm-.007-.005l-.015.017.022-.012-.002-.003z"/><path fill="#FFF" d="M179.057 9.681l-.003-.004-.002.002zm-.029.035v-.012l-.007.008zm-.01-.089l-.006.002.01.003zm-.131.063l-.076.237.11-.213z"/><path fill="#FFF" d="M178.942 9.673l-.042-.022-.013.039.034.024zm.002-.023l.008-.002-.045-.015.011-.034h-.001l-.017.052.042.022.009-.016z"/><path fill="#FFF" d="M178.952 9.648l.004-.002.005-.01.004-.022-.047-.015-.011.034zm.018-.029l-.003-.005h-.002l-.004.022z"/><path fill="#FFF" d="M178.967 9.614l.003.005.002-.003zm.106.044l.008-.008-.008-.002-.004.001zm0-.01l-.006-.002.002.003zm-.121 0l-.008.002.007.007.004-.008zm.004-.002l-.004.002.003.001zm.107.005l.002.015.008-.008-.004-.009z"/><path fill="#FFF" d="M179.04 9.658l.014.019.011-.011-.002-.015zm.022-.011h.006v.003h-.006z"/><path fill="#FFF" d="M179.04 9.658l.023-.007-.001-.007-.021-.006-.008.01z"/><path fill="#FFF" d="M179.028 9.641l.005.007.008-.01-.013-.004zm0-.007l-.006-.002.006.009zm-.065.11l-.001.001-.041-.031-.11.213.168-.172z"/><path fill="#FFF" d="M178.965 9.684l-.004-.002-.007.002.001-.005-.013-.006-.021.041.041.031.001-.001-.026-.019z"/><path fill="#FFF" d="M178.954 9.684l.007-.002-.006-.003z"/><path fill="#FFF" d="M178.957 9.664l-.006-.007-.009.016.013.006zm.004.018l.004.002.003-.004zm0-.046l-.005.01.004-.001z"/><path fill="#FFF" d="M178.97 9.677l-.013-.013-.002.015.006.003.007-.002zm.013-.039l-.013-.019-.009.017-.001.009z"/><path fill="#FFF" d="M178.996 9.634v-.01l-.024-.008-.002.003.013.019z"/><path fill="#FFF" d="M178.994 9.625h.009v.006h-.009zm-.039.024l-.004.008.006.007.002-.014z"/><path fill="#FFF" d="M178.955 9.646h.005v.004h-.005zm.029.012l-.025-.008-.002.014.013.013z"/><path fill="#FFF" d="M178.983 9.638l-.023.007-.001.005.025.008.007-.01zm.013.001v-.005l-.013.004.008.01zm.006-.007l-.006.002v.005zm-.006.084v-.011l-.002-.003-.031.042.016.011.033-.034-.008-.009z"/><path fill="#FFF" d="M178.996 9.716l.008-.004-.008-.007zm-.008-.021l-.023-.011-.028.041.026.019.031-.042zm-.02-.015l-.003.004.023.011-.016-.016zm0 0l.004-.001-.002-.002zm.037-.053l-.003.005.01-.003zm.003.081h.009v.012h-.009zm.019-.008h.004v.003h-.004zm-.032 0h.003v.004h-.003zm.033 0v-.001.001z"/><path fill="#FFF" d="M178.996 9.705l.008.007.008-.004-.016-.008zm.034-.003l.007-.006-.009.004zm-.002-.03V9.7l.009-.004.015-.017zm0 0l.024.007.002-.002-.014-.019-.012.003z"/><path fill="#FFF" d="M179.028 9.655v.006l.012-.003-.007-.01zm-.04.04l.006.007.001-.003z"/><path fill="#FFF" d="M179.033 9.648l-.005-.007v.014zm-.037.052v-.002l-.001.001zm.016.008l.009.004.007-.008V9.7zm.016-.009l-.016-.022-.016.021V9.7l.016.008.016-.008zm-.016-.022l.016.022v-.027l-.01-.003z"/><path fill="#FFF" d="M179.022 9.663l-.004.006.01.003v-.011zm.006-.002v-.006l-.006.008zm-.032.037v-.027l-.024.008.016.016.007.004z"/><path fill="#FFF" d="M178.984 9.658l-.014.019.002.002.024-.008v-.009z"/><path fill="#FFF" d="M178.996 9.656l-.005-.008-.007.01.012.004zm0 .015v.027l.016-.021-.006-.009z"/><path fill="#FFF" d="M178.996 9.663h.006v.009h-.006z"/><path fill="#FFF" d="M178.996 9.662l.006.002-.006-.008zm-.005-.014l.005.008v-.017zm.021.019l-.006.001.006.009.006-.008z"/><path fill="#FFF" d="M179.018 9.669l.004-.006-.01.004zm-.012-.001l.006-.001-.01-.003z"/><path fill="#FFF" d="M178.996 9.656l.006.008.01.003.01-.004.006-.008v-.014l-.006-.009-.01-.003-.01.003-.006.007zm-4.109 1.023l-.078.237h.042zm.077.237l-.077-.237.034.237z"/><path fill="#FFF" d="M174.869 10.916h.052l-.034-.237-.036.237zm.343 0h-.248l.012.04z"/><path fill="#FFF" d="M174.928 10.963l.048-.007-.012-.04h-.043z"/><path fill="#FFF" d="M174.907 10.967l.004-.005.002.004.015-.003-.007-.047h-.017v.052zm.104.095l.201-.146-.214.107zm-.029-.088l.001-.001.015.05.214-.107-.236.04z"/><path fill="#FFF" d="M174.938 10.979l-.006.009v.002l.05-.016-.006-.018-.048.007.003.015zm-.031-.012l-.003.001v.004z"/><path fill="#FFF" d="M174.932 10.99v-.002l-.003.003zm-.014-.014l.013.002-.003-.015-.015.003zm-.359-.06l.202.145.013-.038zm.379.063l-.007-.001.001.01z"/><path fill="#FFF" d="M174.929 10.991l.003-.003-.001-.01-.013-.002.009.016zm-.133-.035l.013-.04h-.25z"/><path fill="#FFF" d="M174.844 10.964l.007-.048h-.042l-.013.04z"/><path fill="#FFF" d="M174.861 10.962l.004.005.004.001v-.052h-.018l-.007.048.015.002zm.025.009l.018-.003v-.052h-.035v.052z"/><path fill="#FFF" d="M174.904 10.972v-.004l-.018.003.017.002zm-.115.001l.001.001.006-.018-.237-.04.215.107z"/><path fill="#FFF" d="M174.84 10.99v-.002l-.006-.009.008-.001.002-.014-.048-.008-.006.018z"/><path fill="#FFF" d="M174.854 10.976l.005-.01-.015-.002-.002.014zm.011-.009h.005v.005h-.005zm-.025.021v.002l.003.001z"/><path fill="#FFF" d="M174.886 10.971l-.017-.003v.005zm-.052.008l.006.009.002-.01zm.035-.006v.001-.001z"/><path fill="#FFF" d="M174.845 10.992l.009-.016-.012.002-.002.01.003.003zm.024-.018l.017.022.017-.023-.017-.002-.017.002zm.218.325l-.076-.237-.035.025z"/><path fill="#FFF" d="M174.954 11.045l.022.042.035-.025-.013-.039z"/><path fill="#FFF" d="M174.942 11.022l.001.002.011.004-.006.005.006.012.044-.022-.015-.05-.001.001.011.031z"/><path fill="#FFF" d="M174.935 11.008l.007.014.051-.017-.011-.031-.05.016z"/><path fill="#FFF" d="M174.928 10.994l.007.014-.003-.018-.003.001zm.001-.003l-.002.001.001.002zm-.043.163l.201.145-.167-.169zm.025-.192l-.004.005.006-.001z"/><path fill="#FFF" d="M174.904 10.974l.014.002-.005-.01-.006.001-.003.005z"/><path fill="#FFF" d="M174.904 11l.023-.008-.009-.016-.014-.002zm0-.028l-.001.001.001.001z"/><path fill="#FFF" d="M174.904 11v-.026l-.001-.001-.017.023.006.008zm.057.098l.001.001-.042.031.167.169-.111-.212zm-.019-.039l-.009-.003-.002.001.03.041.015-.011-.022-.042-.013.007z"/><path fill="#FFF" d="M174.942 11.059l-.001-.007-.008.004z"/><path fill="#FFF" d="M174.931 11.057l.002-.001-.003-.001zm.012-.033l-.001-.002-.003.001zm-.003.015h.015v.01h-.015z"/><path fill="#FFF" d="M174.93 11.055l.003.001.008-.004-.001-.01-.011.011zm.009-.032l.003-.001-.007-.014.002.014z"/><path fill="#FFF" d="M174.913 11.014l.024.008-.002-.014-.007-.014z"/><path fill="#FFF" d="M174.913 11.014l.015-.02-.001-.002-.023.008v.011zm-.018-.006l.009.003V11l-.012.004zm-.211.291l.202-.145-.033-.025zm.177-.337l-.002.004.006.001z"/><path fill="#FFF" d="M174.865 10.967l-.006-.001-.005.01.015-.003z"/><path fill="#FFF" d="M174.869 11v-.027l-.015.003-.009.016zm.017-.004l-.017-.022V11l.012.004zm0 .1l-.033.033.033.025.034-.024z"/><path fill="#FFF" d="M174.886 11.006l.006-.002-.006-.008-.005.008zm.02.07l-.002.002v.01l-.007-.003-.011.011.034.034.042-.031-.001-.001-.026.018z"/><path fill="#FFF" d="M174.919 11.063l-.013.013.029.04.026-.018-.03-.041z"/><path fill="#FFF" d="M174.928 11.054l-.009.009.012-.006-.001-.002zm.002.001l-.001-.002-.001.001zm-.026.033v-.01l-.007.007zm-.012-.084l-.006.002.009.002zm-.131.057l-.077.238.112-.213z"/><path fill="#FFF" d="M174.817 11.045l-.043-.022-.013.038.035.025z"/><path fill="#FFF" d="M174.819 11.028l.009-.003.002-.003-.051-.017.011-.031-.001-.001-.015.05.043.022.007-.013z"/><path fill="#FFF" d="M174.83 11.022l.007-.015.003-.017-.05-.016-.011.031z"/><path fill="#FFF" d="M174.844 10.994l-.001-.003-.003-.001-.003.017z"/><path fill="#FFF" d="M174.843 10.991l.001.003.001-.002zm.111.037l-.011-.004.005.009zm-.135 0l.005.004.004-.007z"/><path fill="#FFF" d="M174.937 11.023l.003.019.008-.009-.005-.009-.004-.001zm-.025.009l.017.021.011-.011-.003-.019zm.027-.009l-.002-.001v.001z"/><path fill="#FFF" d="M174.912 11.032l.025-.009v-.001l-.024-.008-.007.009zm-.008-.012l.002.003.007-.009-.009-.003zm0-.009l-.009-.003.009.012zm-.093.088l.001-.001-.016-.012-.112.213.169-.17z"/><path fill="#FFF" d="M174.84 11.056l-.011.003.002-.008-.014-.006-.021.041.016.012.03-.041z"/><path fill="#FFF" d="M174.829 11.059l.011-.003-.009-.005zm.011-.003l.002.001.002-.002zm-.018-.031l.008.009-.01.01-.008-.01zm.008-.003l-.002.003.006-.002z"/><path fill="#FFF" d="M174.835 11.023l.002-.016-.007.015.004.001zm.01.03l-.013-.012-.001.01.009.005.004-.001z"/><path fill="#FFF" d="M174.86 11.014l-.016-.02-.007.013-.002.016z"/><path fill="#FFF" d="M174.869 11.011V11l-.024-.008-.001.002.016.02zm.008-.002l.004-.005-.012-.004v.011zm-.043.014l-.006.002-.004.007.008.009.003-.018zm0 0h.001zm.026.009l-.025-.009-.003.018.013.012z"/><path fill="#FFF" d="M174.86 11.014l-.025.009.025.009.006-.009z"/><path fill="#FFF" d="M174.869 11.019v-.008l-.009.003.006.009zm.008-.01l-.008.002v.008zm-.008.079v-.009l-.002-.003-.029.04-.026-.018-.001.001.042.03.033-.033-.01-.011z"/><path fill="#FFF" d="M174.869 11.088l.007-.003-.007-.006zm-.002-.012l-.013-.013-.012-.006-.03.041.026.018z"/><path fill="#FFF" d="M174.844 11.055l-.002.002.012.006-.009-.009z"/><path fill="#FFF" d="M174.844 11.055l.001-.001v-.001zm.037-.051l-.004.005.009-.003zm.023.074l.002-.002-.002-.002zm-.017.001l-.011.006.01.011.011-.011zm-.02-.003l.002.003v-.006z"/><path fill="#FFF" d="M174.869 11.073v.006l.007.006.011-.006-.016-.008zm.035.001l.002.002.013-.013-.015.008zm0-.028v.025l.015-.008.009-.009zm0 0l.024.008.001-.001-.017-.021-.008.002z"/><path fill="#FFF" d="M174.904 11.026v.008l.008-.002-.006-.009zm-.035.045l-.015-.008.013.013.002-.003z"/><path fill="#FFF" d="M174.869 11.073l.002-.002h-.002zm.037-.05l-.002-.003v.006zm-.004.049l-.015.007.01.006.007-.007v-.004z"/><path fill="#FFF" d="M174.886 11.05l-.015.021.016.008.015-.007zm.018.024v-.003l-.002.001z"/><path fill="#FFF" d="M174.886 11.05l.016.022.002-.001v-.025l-.012-.004z"/><path fill="#FFF" d="M174.896 11.037l-.004.005.012.004v-.012z"/><path fill="#FFF" d="M174.904 11.034v-.008l-.008.011zm-.035.012l-.024.008.009.009.015.008z"/><path fill="#FFF" d="M174.86 11.032l-.015.021v.001l.024-.008v-.011z"/><path fill="#FFF" d="M174.869 11.028l-.003-.005-.006.009.009.003zm0 .018v.025h.002l.015-.021-.006-.008zm.008-.009l-.008-.002v.011l.011-.004z"/><path fill="#FFF" d="M174.869 11.035l.008.002-.008-.009zm-.003-.012l.003.005v-.009zm.02.017l-.006.002.006.008.006-.008z"/><path fill="#FFF" d="M174.892 11.042l.004-.005-.01.003zm-.012 0l.006-.002-.009-.003z"/><path fill="#FFF" d="M174.869 11.028l.008.009.009.003.01-.003.008-.011v-.006l-.009-.012-.009-.002-.009.003-.008.01zm1.392-.349l-.077.237h.042zm.078.237l-.078-.237.036.237z"/><path fill="#FFF" d="M176.244 10.916h.053l-.036-.237-.035.237zm.346 0h-.251l.013.04zm-.286.048l.048-.008-.013-.04h-.042z"/><path fill="#FFF" d="M176.282 10.967l.004-.005.002.004.016-.002-.007-.048h-.017v.052zm.105.094l.203-.145-.216.107z"/><path fill="#FFF" d="M176.358 10.974v-.001l.016.05.216-.107-.238.04z"/><path fill="#FFF" d="M176.314 10.979l-.006.009v.002l.05-.016-.006-.018-.048.008.002.014zm-.032-.012l-.002.001v.002zm.011.009l.013.002-.002-.014-.016.002z"/><path fill="#FFF" d="M176.308 10.99v-.002l-.002.003zm-.159.033l-.213-.107.201.146zm.165-.044l-.008-.001.002.01z"/><path fill="#FFF" d="M176.306 10.991l.002-.003-.002-.01-.013-.002.009.016zm-.122-.075h-.248l.236.04z"/><path fill="#FFF" d="M176.219 10.963l.007-.047h-.042l-.012.04z"/><path fill="#FFF" d="M176.237 10.962l.004.005.003.001v-.052h-.018l-.007.047.016.003zm.025.009l.018-.003v-.052h-.036v.052z"/><path fill="#FFF" d="M176.28 10.97v-.002l-.018.003.016.002zm-.114.003v.001l.006-.018-.236-.04.213.107zm.049.014l-.005-.008.006-.001.003-.015-.047-.007-.006.018.049.016z"/><path fill="#FFF" d="M176.215 10.987v.003l.004.001zm.029-.019l-.003-.001.003.005zm-.014.008l.005-.01-.016-.003-.003.015zm.015-.003l.017-.002-.018-.003v.004zm-.035.006l.005.008.001-.009z"/><path fill="#FFF" d="M176.221 10.992l.009-.016-.014.002-.001.009.004.004zm.041.003l.016-.022-.016-.002-.017.002zm.201.304l-.076-.238-.036.025zm-.134-.253l.022.04.036-.025-.013-.038z"/><path fill="#FFF" d="M176.317 11.022l.001.002.01.004-.005.005.006.013.045-.023-.016-.05v.001l.01.031z"/><path fill="#FFF" d="M176.311 11.011l.006.011.051-.017-.01-.031-.05.016z"/><path fill="#FFF" d="M176.303 10.995l.008.016-.003-.021-.002.001z"/><path fill="#FFF" d="M176.306 10.991l-.004.001.001.003zm-.044.163l.201.145-.168-.169zm.024-.192l-.004.005.006-.001z"/><path fill="#FFF" d="M176.28 10.973l.013.003-.005-.01-.006.001-.002.003z"/><path fill="#FFF" d="M176.28 10.999l.022-.007-.009-.016-.013-.003zm0-.029l-.002.003h.002zm0 .029v-.026h-.002l-.016.022.006.009zm.057.098l.002.002-.044.031.168.169-.112-.213z"/><path fill="#FFF" d="M176.318 11.059l-.01-.003-.001.001.03.04.014-.011-.022-.04-.012.006z"/><path fill="#FFF" d="M176.318 11.059l-.001-.007-.009.004zm-.002-.021h.014v.011h-.014zm-.009.019l.001-.001-.002-.001zm.011-.033l-.001-.002-.003.001z"/><path fill="#FFF" d="M176.306 11.055l.002.001.009-.004-.001-.011-.012.011zm.008-.032l.003-.001-.006-.011.002.012z"/><path fill="#FFF" d="M176.288 11.014l.025.009-.002-.012-.008-.016z"/><path fill="#FFF" d="M176.288 11.014l.015-.019-.001-.003-.022.007v.013zm-.016-.005l.008.003v-.013l-.012.005zm-.214.29l.204-.145-.034-.025zm.179-.337l-.002.004.006.001zm.007.01l-.003-.005-.006-.001-.005.01.014-.002z"/><path fill="#FFF" d="M176.244 10.972v.002l.001-.001zm0 .028v-.026l-.014.002-.009.016z"/><path fill="#FFF" d="M176.262 10.995l-.017-.022-.001.001V11l.012.004zm-.001.1l-.033.034.034.025.033-.024z"/><path fill="#FFF" d="M176.262 11.006l.006-.002-.006-.009-.006.009zm.018.071v.011l-.007-.004-.012.011.034.035.044-.031-.002-.002-.029.019z"/><path fill="#FFF" d="M176.293 11.064l-.013.013.028.039.029-.019-.03-.04z"/><path fill="#FFF" d="M176.303 11.054l-.01.01.014-.007-.001-.002z"/><path fill="#FFF" d="M176.306 11.055l-.002-.003-.001.002zm-.026.033v-.011l-.007.007zm-.012-.084l-.006.002.01.003zm-.131.058l-.079.237.113-.213zm.056-.017l-.044-.022-.012.039.034.024z"/><path fill="#FFF" d="M176.2 11.033l-.006-.005.01-.003.002-.003-.05-.017.01-.031v-.001l-.017.05.044.022z"/><path fill="#FFF" d="M176.206 11.022l.006-.012.003-.02-.049-.016-.01.031zm.013-.031l-.004-.001-.003.02.008-.016z"/><path fill="#FFF" d="M176.219 10.991l.001.003.001-.002zm.109.037l-.01-.004.005.009zm-.134 0l.006.005.004-.008zm.119-.005l.003.018.007-.008-.005-.009-.004-.001zm-.025.008l.016.021.012-.011-.003-.018zm.026-.008h-.001z"/><path fill="#FFF" d="M176.288 11.031l.025-.008-.025-.009-.006.009zm-.008-.011l.002.003.006-.009-.008-.002zm0-.008l-.008-.003.008.011zm-.093.087l.001-.001-.017-.012-.113.213.17-.17zm.028-.043l-.011.003.001-.008-.012-.006-.022.041.017.012.03-.041z"/><path fill="#FFF" d="M176.204 11.059l.011-.003-.01-.005zm.011-.003l.003.001.001-.003zm-.009-.034l-.002.003.005-.002zm.003.006l.007.007-.009.01-.008-.008zm.001-.005l.002-.013-.006.012.003.001z"/><path fill="#FFF" d="M176.22 11.054l-.013-.013-.002.01.01.005.004-.002zm.015-.04l-.015-.02-.008.016-.002.013z"/><path fill="#FFF" d="M176.244 11l-.023-.008-.001.002.015.02.009-.003zm.008.009l.004-.005-.012-.004v.011zm-.042.014h-.001l-.005.002-.004.008.007.008zm-.001 0h.001z"/><path fill="#FFF" d="M176.236 11.032l-.026-.009-.003.018.013.013z"/><path fill="#FFF" d="M176.242 11.023l-.007-.009-.025.009.026.009zm.002-.003v-.009l-.009.003.007.009zm0-.009v.009l.008-.011zm0 .077v-.01l-.002-.002-.029.04-.025-.018-.001.001.041.03.033-.034-.01-.01z"/><path fill="#FFF" d="M176.244 11.088l.007-.003-.007-.007zm-.002-.012l-.014-.014-.01-.005-.03.041.025.018z"/><path fill="#FFF" d="M176.219 11.054l-.001.003.01.005-.008-.008zm0 0h.001zm.037-.05l-.004.005.01-.003zm.024.073zm-.018.002l-.011.006.01.01.012-.011zm-.02-.003l.002.002v-.004z"/><path fill="#FFF" d="M176.244 11.074v.004l.007.007.011-.006-.016-.008zm.036.003l.013-.013-.013.006zm0-.031v.024l.013-.006.01-.01z"/><path fill="#FFF" d="M176.28 11.046l.023.008.001-.002-.016-.021-.008.003z"/><path fill="#FFF" d="M176.28 11.026v.008l.008-.003-.006-.008zm-.036.044l-.016-.008.014.014.002-.002z"/><path fill="#FFF" d="M176.244 11.074l.002-.003-.002-.001zm.038-.051l-.002-.003v.006zm-.006.049l-.014.007.011.005.007-.007z"/><path fill="#FFF" d="M176.261 11.051l-.015.02.016.008.014-.007zm.019.026v-.007l-.004.002z"/><path fill="#FFF" d="M176.261 11.051l.015.021.004-.002v-.024l-.012-.004zm.011-.014l-.004.005.012.004v-.012z"/><path fill="#FFF" d="M176.28 11.034v-.008l-.008.011zm-.036.012l-.024.008.008.008.016.008z"/><path fill="#FFF" d="M176.236 11.032l-.016.022.024-.008v-.012z"/><path fill="#FFF" d="M176.244 11.027l-.002-.004-.006.009.008.002zm0 .019v.024l.002.001.015-.02-.006-.009z"/><path fill="#FFF" d="M176.251 11.037l-.007-.003v.012l.011-.004z"/><path fill="#FFF" d="M176.244 11.034l.007.003-.007-.01zm0-.014l-.002.003.002.004zm.018.02l-.007.002.006.009.007-.009zm.006.002l.004-.005-.01.003zm-.013 0l.007-.002-.011-.003z"/><path fill="#FFF" d="M176.251 11.037l.011.003.01-.003.008-.011v-.006l-.008-.011-.01-.003-.01.003-.008.011v.007zm1.387-.358l-.079.237h.042zm.075.237l-.075-.237.035.237z"/><path fill="#FFF" d="M177.619 10.916h.054l-.035-.237-.037.237zm.344 0h-.25l.013.04z"/><path fill="#FFF" d="M177.68 10.963l.046-.007-.013-.04h-.04zm-.022.004l.004-.005.002.004.016-.003-.007-.047h-.021v.052zm.103.095l.202-.146-.215.107zm-.029-.088v-.001l.016.05.215-.107-.237.04z"/><path fill="#FFF" d="M177.689 10.979l-.005.007v.004l.048-.016-.006-.018-.046.007.002.015zm-.04-.012h.007v.008h-.007zm.02.009l.013.002-.002-.015-.016.003z"/><path fill="#FFF" d="M177.684 10.99v-.004l-.003.005zm-.16.034l-.214-.108.202.146zm.165-.045l-.007-.001.002.008z"/><path fill="#FFF" d="M177.681 10.991l.003-.005-.002-.008-.013-.002.008.016zm-.029-.018v.003l.002-.003zm-.093-.057h-.249l.237.04z"/><path fill="#FFF" d="M177.594 10.963l.007-.047h-.042l-.012.04zm.016-.001l.004.005.005.001v-.052h-.018l-.007.047.014.003zm.026.008l.016-.002v-.052h-.033v.052zm.016-.002l-.016.002.016.003zm-.112.005l.001.001.006-.018-.237-.04.214.108z"/><path fill="#FFF" d="M177.59 10.988l-.007-.009.009-.001.002-.015-.047-.007-.006.018.049.016z"/><path fill="#FFF" d="M177.59 10.988v.002h.001zm.015-.011l-.005.01-.013-.008.005-.01zm.009-.01h.005v.006h-.005zm.022.003l-.017-.002v.005z"/><path fill="#FFF" d="M177.583 10.979l.007.009.002-.01zm.036-.006zm-.024.019l.008-.016-.011.002-.002.01.001.002zm.024-.019l.017.024.016-.021v-.003l-.016-.003-.017.003zm.219.326l-.077-.237-.034.024z"/><path fill="#FFF" d="M177.705 11.045l.022.041.034-.024-.013-.039z"/><path fill="#FFF" d="M177.693 11.021l.001.003.011.004-.006.005.006.012.043-.022-.016-.05v.001l.01.031z"/><path fill="#FFF" d="M177.688 11.011l.005.01.049-.016-.01-.031-.048.016z"/><path fill="#FFF" d="M177.678 10.994l.01.017-.004-.021-.003.001z"/><path fill="#FFF" d="M177.681 10.991l-.004.001.001.002zm-.044.163l.201.145-.167-.169zm.025-.192l-.004.005.006-.001z"/><path fill="#FFF" d="M177.669 10.976l-.005-.01-.006.001-.004.006zm-.017 0V11l.025-.008-.008-.016-.015-.003zm0 .024v-.024l-.016.021.006.007zm.06.097l.001.002-.042.031.167.169-.111-.213zm-.017-.038l-.011-.003-.003.001.031.04.015-.011-.022-.041-.012.006z"/><path fill="#FFF" d="M177.695 11.059l-.002-.008-.009.005zm-.003-.021h.013v.01h-.013zm-.004-.018h.005v.003h-.005zm-.007.037l.003-.001-.004-.002z"/><path fill="#FFF" d="M177.68 11.054l.004.002.009-.005-.001-.01-.013.013zm.009-.032v.001zm.004-.001l-.005-.01.001.011z"/><path fill="#FFF" d="M177.663 11.014l.026.009v-.001l-.001-.011-.01-.017zm0 0l.015-.02-.001-.002-.025.008v.01z"/><path fill="#FFF" d="M177.645 11.008l.007.002V11l-.01.004zm-.212.291l.204-.145-.034-.024zm.177-.337l-.002.004.006.001zm.004.005l-.006-.001-.005.01.016-.003z"/><path fill="#FFF" d="M177.619 10.999v-.026l-.016.003-.008.016zm.017-.002l-.017-.024v.026l.012.005zm.001.098l-.034.035.034.024.034-.024zm0-.09l.005-.001-.006-.007-.005.007zm.019.072l-.004.004v.007l-.005-.003-.01.01.034.035.042-.031-.001-.002-.027.019z"/><path fill="#FFF" d="M177.67 11.062l-.014.015.029.039.027-.019-.031-.04z"/><path fill="#FFF" d="M177.679 11.054l-.009.008.011-.005-.001-.003zm.001 0h-.001zm-.028.034v-.007l-.005.004zm-.01-.084l-.005.001.008.003zm-.13.058l-.079.237.112-.213zm.055-.017l-.043-.021-.012.038.033.024zm.007-.014l-.004-.003.007-.002.002-.005-.049-.016.011-.031-.001-.001-.016.051.043.021z"/><path fill="#FFF" d="M177.579 11.021l.008-.014.003-.017-.049-.016-.011.031z"/><path fill="#FFF" d="M177.591 10.99h-.001l-.003.017.007-.013z"/><path fill="#FFF" d="M177.591 10.99l.003.004.001-.002zm.114.038l-.011-.004.005.009zm-.135 0l.004.003.003-.005z"/><path fill="#FFF" d="M177.692 11.041l.007-.008-.005-.009-.005-.001z"/><path fill="#FFF" d="M177.689 11.023l-.027.008.017.023.013-.013-.003-.018zm-.027.008l.027-.008-.026-.009-.007.009zm-.01-.014l.004.006.007-.009-.011-.004zm0-.007l-.007-.002.007.009zm-.092.089l.002-.001-.017-.012-.112.213.17-.169z"/><path fill="#FFF" d="M177.588 11.056l-.009.003.001-.007-.013-.007-.022.041.017.012.029-.041z"/><path fill="#FFF" d="M177.579 11.059l.009-.003-.008-.004zm.003-.019l-.008-.009-.007.014.013.007zm.006.016l.003.001.003-.003zm-.01-.034h.005v.005h-.005z"/><path fill="#FFF" d="M177.587 11.007l-.008.014.006.002zm.008.046l-.013-.013-.002.012.008.004.006-.002zm-.01-.03zm0 0l.024-.008-.015-.021-.007.013-.002.016z"/><path fill="#FFF" d="M177.619 10.999l-.024-.007-.001.002.015.021.01-.004zm.008.01l.004-.005-.012-.005v.012zm-.042.014l-.008.003-.003.005.008.009z"/><path fill="#FFF" d="M177.611 11.031l-.026-.008-.003.017.013.013zm.005-.007l-.007-.009-.024.008.026.008zm.003-.004v-.009l-.01.004.007.009zm0-.009v.009l.008-.011zm0 .077v-.011l-.001-.001-.031.04-.025-.018-.002.001.043.031.034-.035-.011-.011z"/><path fill="#FFF" d="M177.619 11.088l.007-.004-.007-.007zm-.001-.012l-.01-.01-.017-.009-.029.041.025.018z"/><path fill="#FFF" d="M177.594 11.054l-.003.003.017.009-.012-.012zm0 0h.002l-.001-.001zm.037-.05l-.004.005.01-.004zm-.013.072l.001.001v-.003zm.034.005l.004-.004-.004-.005zm-.016-.001l-.01.004.011.011.01-.01z"/><path fill="#FFF" d="M177.619 11.074v.003l.007.007.01-.004-.016-.008zm.033-.002l.004.005.014-.015-.018.009z"/><path fill="#FFF" d="M177.652 11.045v.026l.018-.009.009-.008z"/><path fill="#FFF" d="M177.652 11.045l.027.009-.017-.023-.01.004z"/><path fill="#FFF" d="M177.652 11.029v.006l.01-.004-.006-.008zm-.033.042l-.011-.005.01.01.001-.002zm0 .003l.001-.002-.001-.001z"/><path fill="#FFF" d="M177.656 11.023l-.004-.006v.012zm-.005.049l-.015.008.011.005.005-.004v-.009zm-.015-.021l-.016.021.016.008.015-.008zm.016.021v-.001l-.001.001z"/><path fill="#FFF" d="M177.636 11.051l.015.021.001-.001v-.026l-.01-.003z"/><path fill="#FFF" d="M177.644 11.038h.01v.007h-.01zm.008-.003v-.006l-.006.008zm-.033.011l-.023.008.012.012.011.005z"/><path fill="#FFF" d="M177.611 11.031l-.016.022.001.001.023-.008v-.012zm.008-.003l-.003-.004-.005.007.008.003zm0 .018v.025l.001.001.016-.021-.006-.009z"/><path fill="#FFF" d="M177.625 11.036l-.006-.002v.012l.011-.004z"/><path fill="#FFF" d="M177.619 11.034l.006.002-.006-.008zm0-.014l-.003.004.003.004zm.018.02l-.007.002.006.009.006-.009zm.005.002l.004-.005-.009.003zm-.012 0l.007-.002-.012-.004z"/><path fill="#FFF" d="M177.625 11.036l.012.004.009-.003.006-.008v-.012l-.007-.009-.008-.003-.01.004-.008.011v.008zm1.389-.357l-.078.237h.04zm.077.237l-.077-.237.034.237z"/><path fill="#FFF" d="M178.996 10.916h.052l-.034-.237-.038.237zm.343 0h-.248l.012.039z"/><path fill="#FFF" d="M179.054 10.964l.049-.009-.012-.039h-.043z"/><path fill="#FFF" d="M179.031 10.967l.004-.005.002.004.017-.002-.006-.048h-.02v.052zm.105.096l.203-.147-.216.108z"/><path fill="#FFF" d="M179.119 11.005l-.002.001.006.018.216-.108-.236.039z"/><path fill="#FFF" d="M179.065 10.979l-.007.01v.001l.049-.017.01.033.002-.001-.016-.05-.049.009.002.014zm-.034-.012l-.003.001v.004zm.011.008l.014.003-.002-.014-.017.002z"/><path fill="#FFF" d="M179.058 10.99v-.001l-.001.001zm-.158.034l-.215-.108.203.147zm.165-.045l-.009-.001.002.011z"/><path fill="#FFF" d="M179.057 10.99l.001-.001-.002-.011-.014-.003.009.017zm-.121-.074h-.251l.238.04zm.033.047l.007-.047h-.04l-.013.04z"/><path fill="#FFF" d="M178.988 10.962l.004.005.004.001v-.052h-.02l-.007.047.017.003zm.024.008l.016-.002v-.052h-.032v.052z"/><path fill="#FFF" d="M179.028 10.972v-.004l-.016.002.015.003zm-.111.001v.001l.006-.018-.238-.04.215.108zm.048.014l-.006-.008.008-.001.002-.015-.046-.007-.006.018.048.015z"/><path fill="#FFF" d="M178.965 10.987v.002l.003.001zm.027-.02h.005v.005h-.005zm-.011.009l.005-.01-.017-.003-.002.015z"/><path fill="#FFF" d="M179.012 10.97l-.016-.002v.005zm-.053.009l.006.008.002-.009zm.037-.006v.001-.001z"/><path fill="#FFF" d="M178.972 10.992l.009-.016-.014.002-.002.009.003.003zm.024-.018l.016.021.015-.022-.015-.003-.016.003zm.218.325l-.078-.236-.035.024z"/><path fill="#FFF" d="M179.08 11.046l.021.041.035-.024-.013-.039z"/><path fill="#FFF" d="M179.068 11.023l.013.005-.007.007.006.011.043-.022-.006-.018-.05.016zm-.01-.033l.003.021.006.011.05-.016-.01-.033z"/><path fill="#FFF" d="M179.053 10.996l.008.015-.003-.021h-.001zm.004-.006l-.006.002.002.004zm-.045.164l.202.145-.169-.169zm.023-.192l-.004.005.006-.001z"/><path fill="#FFF" d="M179.028 10.973l.014.002-.005-.009-.006.001-.003.005z"/><path fill="#FFF" d="M179.028 11l.023-.008-.009-.017-.014-.002zm0-.028l-.001.001h.001zm0 .028v-.027h-.001l-.015.022.006.008zm.059.098l.001.001-.043.031.169.169-.113-.212z"/><path fill="#FFF" d="M179.068 11.059l-.009-.003-.002.001.03.041.014-.011-.021-.041-.013.007z"/><path fill="#FFF" d="M179.068 11.059l-.001-.006-.008.003zm0-.036l-.001-.001-.002.001zm-.011.034l.002-.001-.003-.001zm.009-.017h.014v.01h-.014z"/><path fill="#FFF" d="M179.056 11.055l.003.001.008-.003-.001-.01-.011.011zm.009-.032l.002-.001-.006-.011.002.011zm-.026-.009l.024.008-.002-.011-.008-.015z"/><path fill="#FFF" d="M179.039 11.014l.014-.018-.002-.004-.023.008v.01zm-.017-.006l.006.002V11l-.01.003zm-.211.291l.201-.145-.033-.024zm.177-.337l-.002.004.006.001zm.004.005l-.006-.001-.005.01.015-.003zm.004.033v-.027l-.015.003-.009.016zm.016-.005l-.016-.021V11l.01.003zm0 .102l-.033.033.033.024.033-.024zm0-.092l.006-.002-.006-.008-.006.008zm.02.072l-.004.004v.007l-.004-.003-.012.012.033.033.043-.031-.001-.001-.026.018z"/><path fill="#FFF" d="M179.046 11.063l-.014.014.029.039.026-.018-.03-.041zm.008-.008l-.008.008.011-.006-.001-.002zm.002 0l-.001-.001-.001.001zm-.028.033v-.007l-.004.004zm-.01-.085l-.006.002.01.003zm-.13.06l-.077.236.111-.212z"/><path fill="#FFF" d="M178.944 11.046l-.044-.022-.012.039.034.024z"/><path fill="#FFF" d="M178.95 11.034l-.006-.006.011-.004.002-.002-.05-.017.01-.031v-.001l-.017.051.044.022z"/><path fill="#FFF" d="M178.957 11.022l.004-.008.004-.025-.048-.015-.01.031zm.011-.032l-.003-.001-.004.025.01-.019z"/><path fill="#FFF" d="M178.968 10.99l.003.005.001-.003zm.113.038l-.013-.005.006.012zm-.137 0l.006.006.005-.01z"/><path fill="#FFF" d="M179.063 11.023l.003.02.008-.008-.006-.012h-.003z"/><path fill="#FFF" d="M179.038 11.031l.017.023.011-.011-.003-.02zm.027-.008l-.002-.001v.001z"/><path fill="#FFF" d="M179.038 11.031l.025-.008v-.001l-.024-.008-.007.009zm-.01-.014l.004.006.007-.009-.011-.004zm0-.007l-.006-.002.006.009zm-.091.089v-.001l-.015-.011-.111.212.168-.169zm.027-.043l-.01.003.001-.008-.011-.005-.022.041.015.011.03-.041z"/><path fill="#FFF" d="M178.954 11.059l.01-.003-.009-.005zm-.004-.024l.007.006-.01.01-.006-.007zm.014.021l.003.001.002-.003zm-.007-.034l-.002.002.004-.001zm.003 0l.001-.008-.004.008.002.001z"/><path fill="#FFF" d="M178.969 11.054l-.012-.013-.002.01.009.005.005-.002zm.016-.04l-.014-.019-.01.019-.001.008zm.011-.014l-.024-.008-.001.003.014.019.011-.004z"/><path fill="#FFF" d="M178.994 11.001h.01v.007h-.01zm-.035.022l-.004.001-.005.01.007.007zm0 0l.001-.001z"/><path fill="#FFF" d="M178.985 11.031l-.026-.008-.002.018.012.013z"/><path fill="#FFF" d="M178.992 11.023l-.007-.009-.025.008-.001.001.026.008zm.004-.007v-.006l-.011.004.007.009zm0-.006v.006l.006-.008zm0 .078v-.007l-.004-.004-.03.039-.025-.018v.001l.042.031.033-.033-.011-.011z"/><path fill="#FFF" d="M178.996 11.088l.005-.002-.005-.005zm-.004-.011l-.013-.014-.012-.006-.03.041.025.018z"/><path fill="#FFF" d="M178.969 11.054l-.002.003.012.006-.009-.009zm0 0h.001-.001zm.037-.051l-.004.005.01-.003zm.006.077l-.011.006.011.011.012-.012zm.015-.01h.005v.009h-.005zm-.034.003h.006v.006h-.006zm.035-.001z"/><path fill="#FFF" d="M178.996 11.081l.005.005.011-.006-.016-.008zm.036-.004l.014-.014-.018.009zm-.004-.031v.026l.018-.009.008-.008z"/><path fill="#FFF" d="M179.028 11.046l.026.009.001-.001-.017-.023-.01.004zm0-.017v.006l.01-.004-.006-.008zm-.049.034l.013.014.004-.005z"/><path fill="#FFF" d="M179.032 11.023l-.004-.006v.012zm-.036.049v-.001.001zm.016.008l.012.005.004-.004v-.009zm.016-.008l-.016-.022-.016.021v.001l.016.008.016-.008z"/><path fill="#FFF" d="M179.012 11.05l.016.022v-.026l-.01-.004z"/><path fill="#FFF" d="M179.022 11.037l-.004.005.01.004v-.011zm.006-.002v-.006l-.006.008zm-.032.036v-.026l-.026.009.009.009.017.009z"/><path fill="#FFF" d="M178.985 11.031l-.016.023h.001l.026-.009v-.01z"/><path fill="#FFF" d="M178.996 11.029l-.004-.006-.007.008.011.004zm0 .016v.026l.016-.021-.006-.008z"/><path fill="#FFF" d="M179.002 11.037l-.006-.002v.01l.01-.003z"/><path fill="#FFF" d="M178.996 11.035l.006.002-.006-.008zm0-.019l-.004.007.004.006zm.016.024l-.006.002.006.008.006-.008z"/><path fill="#FFF" d="M179.018 11.042l.004-.005-.01.003zm-.012 0l.006-.002-.01-.003z"/><path fill="#FFF" d="M179.002 11.037l.01.003.01-.003.006-.008v-.012l-.006-.009-.01-.003-.01.003-.006.008v.013zm-5.526 1.257l.014-.091-.032.02-.023.071h.041z"/><path fill="#FFF" d="M173.512 12.054l-.054.169.032-.02.022-.149zm.036.24h.041l-.044-.137-.016.013.019.124z"/><path fill="#FFF" d="M173.529 12.17l.016-.013-.033-.103.017.116zm-.053.124h.072l-.019-.124c-.014.01-.026.023-.04.033l-.013.091z"/><path fill="#FFF" d="M173.529 12.17l-.017-.116-.022.149c.014-.009.025-.022.039-.033zm.309.124h-.249l.012.037z"/><path fill="#FFF" d="M173.555 12.339l.046-.008-.012-.037h-.041zm-.027.004l.004-.001.006-.008.003.007.014-.002-.007-.045h-.02zm.108.096l.202-.145-.215.105zm-.028-.088l.015.048.215-.105-.237.037z"/><path fill="#FFF" d="M173.565 12.354l-.007.009.001.003.049-.015-.007-.02-.046.008.002.014zm-.033-.012l-.004.001v.005z"/><path fill="#FFF" d="M173.555 12.363h.004v.004h-.004zm-.01-.025h.011v.014h-.011zm-.286-.007l-.014.007.141.101.013-.039z"/><path fill="#FFF" d="M173.183 12.294l.062.044.014-.007zm.382.06l-.008-.001.001.01z"/><path fill="#FFF" d="M173.558 12.363l-.001-.01-.011-.002.009.017zm-.135-.031l.012-.038h-.108l-.032.017.128.021z"/><path fill="#FFF" d="M173.327 12.294h-.143l.111.017.032-.017zm.149 0h-.041l-.012.038.046.007z"/><path fill="#FFF" d="M173.481 12.341l.004-.007.006.008.002.001v-.049h-.017l-.007.045zm.031.005l.016-.003v-.049h-.035v.049z"/><path fill="#FFF" d="M173.528 12.348v-.005l-.016.003zm-.112.004l.007-.02-.128-.02c-.012.006-.023.014-.036.019l.14.069.016-.048h.001zm-.122-.041l-.111-.017.075.037c.013-.006.024-.014.036-.02zm.171.056v-.004l-.006-.009.008-.001.002-.014-.046-.007-.007.02zm.028-.024l-.002-.001.002.004z"/><path fill="#FFF" d="M173.464 12.365h.004v.004h-.004zm.004-.025h.012v.014h-.012zm.027.008l.017-.002-.019-.003v.003zm-.036.006l.006.009.002-.01z"/><path fill="#FFF" d="M173.476 12.351l-.009.002-.002.01.003.004zm.035.02l.017-.023-.016-.002-.017.002zm.202.306l-.077-.238-.033.023zm-.132-.258l.022.043.033-.023-.013-.04z"/><path fill="#FFF" d="M173.57 12.397l.002.004.006.002-.003.003.006.013.042-.02-.015-.048.01.031z"/><path fill="#FFF" d="M173.561 12.379l.009.018.048-.015-.01-.031-.049.015z"/><path fill="#FFF" d="M173.561 12.379l-.002-.013-.004.002zm-.049.152l.201.146-.167-.17zm.026-.197l-.006.008.009-.001zm-.01.014l.018.003-.005-.01-.009.001-.004.006zm.027.02z"/><path fill="#FFF" d="M173.528 12.376l.027-.008-.009-.017-.018-.003zm0-.028zm-.011.031l.011-.003v-.028l-.017.023zm.069.096l.002.002-.042.03.167.17-.11-.215zm-.017-.041l-.011-.003-.002.001.03.043.017-.013-.022-.043-.013.007z"/><path fill="#FFF" d="M173.569 12.434l-.001-.008-.01.005z"/><path fill="#FFF" d="M173.556 12.432l.002-.001-.005-.002zm.016-.031l-.002-.004-.004.002zm-.006.013l.002.012.013-.007-.006-.013z"/><path fill="#FFF" d="M173.553 12.429l.005.002.01-.005-.002-.012-.013.014zm.013-.03l.004-.002-.009-.018.003.019zm-.011-.031l-.016.022.025.008-.003-.019-.006-.011zm-.016.022l.016-.022-.027.008v.011zm-.018-.005l.007.002v-.011l-.011.003zm-.212.292l.203-.146-.036-.025zm.176-.343l-.004.007.01.001zm-.017.033l-.001.001h.002zm.025-.018v-.003l-.002-.004-.01-.001-.005.01zm0-.003v.003l.002-.001z"/><path fill="#FFF" d="M173.493 12.376v-.027l-.017.002-.008.016.001.001zm.012.004l.006-.009-.016-.023-.002.001v.027zm.006.091l-.035.035.036.025.034-.024z"/><path fill="#FFF" d="M173.511 12.381l.006-.002-.006-.008-.006.009zm.018.071l-.001.002v.009l-.006-.003-.011.011.035.036.042-.03-.002-.002-.027.019z"/><path fill="#FFF" d="M173.542 12.439l-.013.013.03.042.027-.019-.03-.043z"/><path fill="#FFF" d="M173.552 12.429l-.01.01.014-.007-.003-.003zm.001 0v-.001l-.001.001zm-.025.034v-.009l-.006.006zm-.007-.078l-.004-.006-.006.002zm-.135.054l-.077.238.11-.215z"/><path fill="#FFF" d="M173.441 12.42l-.042-.02-.013.039.033.023zm.002-.017l.008-.003.001-.003-.046-.015.01-.03-.001-.001-.016.049.042.02.007-.013z"/><path fill="#FFF" d="M173.465 12.367l-.049-.015-.01.03.046.015.012-.022z"/><path fill="#FFF" d="M173.467 12.368l-.002-.001-.001.008zm.111.035l-.006-.002.003.005zm-.135 0l.005.004.003-.007z"/><path fill="#FFF" d="M173.564 12.399l.002.015.009-.008-.003-.005-.006-.002z"/><path fill="#FFF" d="M173.538 12.408l.015.02.013-.014-.002-.015zm.028-.009l-.002-.001v.001z"/><path fill="#FFF" d="M173.538 12.408l.026-.009v-.001l-.025-.008-.007.009zm-.01-.014l.004.005.007-.009-.011-.003zm0-.007l-.007-.002.007.009zm-.092.09l.001-.002-.018-.013-.11.215.167-.171zm.028-.046l-.009.003.001-.007-.015-.007-.022.042.018.013.03-.042z"/><path fill="#FFF" d="M173.455 12.434l.009-.003-.008-.004zm.01-.005h.006v.004h-.006zm-.008-.012l-.009-.01-.007.013.015.007zm-.005-.02l-.001.003.006-.002z"/><path fill="#FFF" d="M173.46 12.397l.004-.022-.012.022.005.001zm-.003.02l-.001.01.008.004.006-.002z"/><path fill="#FFF" d="M173.469 12.368h-.002l-.003.007-.004.022.024-.007z"/><path fill="#FFF" d="M173.493 12.376l-.024-.008.015.022.009-.003zm.009.008l.003-.004-.012-.004v.011zm-.045.014l-.006.002-.003.007.009.01.003-.018zm.013.031z"/><path fill="#FFF" d="M173.457 12.398l.003.001v-.002zm.013.031l.015-.021-.025-.009-.003.018.013.012zm.014-.039l-.024.007v.002l.025.009.006-.009z"/><path fill="#FFF" d="M173.493 12.387l-.009.003.007.009.002-.003z"/><path fill="#FFF" d="M173.493 12.396l.009-.012-.009.003zm0 .067v-.01l-.03.041-.026-.019-.001.002.04.029.035-.035-.012-.011z"/><path fill="#FFF" d="M173.493 12.463l.006-.003-.006-.007zm0-.01l-.014-.014-.012-.006-.03.042.026.019zm-.026-.02l.012.006-.009-.01zm.044-.052l-.006-.001-.003.004zm-.018.072zm.035.001l.001-.002-.001-.002zm-.017 0l-.012.006.012.011.011-.011z"/><path fill="#FFF" d="M173.493 12.453l.006.007.012-.006-.014-.006zm.035-.003l.001.002.013-.013-.014.007z"/><path fill="#FFF" d="M173.528 12.421v.025l.014-.007.01-.01zm0 0l.024.008.001-.001-.015-.02-.01.003zm0-.016v.006l.01-.003-.006-.009zm-.035.041l-.014-.007.014.014zm0 .007l.004-.005-.004-.002z"/><path fill="#FFF" d="M173.532 12.399l-.004-.005v.011zm-.007.048l-.014.007.011.006.006-.006v-.004z"/><path fill="#FFF" d="M173.512 12.428l-.015.02.014.006.014-.007z"/><path fill="#FFF" d="M173.528 12.45v-.004l-.003.001z"/><path fill="#FFF" d="M173.512 12.428l.013.019.003-.001v-.025l-.01-.003z"/><path fill="#FFF" d="M173.52 12.413h.01v.007h-.01zm.008-.002v-.006l-.006.008zm-.035.011l-.023.007.009.01.014.007z"/><path fill="#FFF" d="M173.485 12.408l-.015.021.023-.007v-.012z"/><path fill="#FFF" d="M173.493 12.402l-.002-.003-.006.009.008.002zm0 .02v.024l.004.002.015-.02-.007-.01z"/><path fill="#FFF" d="M173.501 12.412l-.008-.002v.012l.012-.004z"/><path fill="#FFF" d="M173.493 12.41l.008.002-.008-.01zm-.002-.011l.002.003v-.006zm.021.017l-.007.002.007.01.006-.01zm.006.002l.004-.005-.01.003zm-.013 0l.007-.002-.011-.004z"/><path fill="#FFF" d="M173.502 12.384l-.009.012v.006l.008.01.011.004.01-.003.006-.008v-.011l-.007-.009-.01-.004zm1.385-.33l-.079.24h.042zm.077.24l-.077-.24.035.24z"/><path fill="#FFF" d="M174.869 12.294h.053l-.035-.24-.037.24zm.343 0h-.248l.012.037z"/><path fill="#FFF" d="M174.929 12.339l.047-.008-.012-.037h-.042z"/><path fill="#FFF" d="M174.905 12.343l.006-.009.004.007.014-.002-.007-.045h-.018v.049zm.106.097l.201-.146-.214.105z"/><path fill="#FFF" d="M174.982 12.351h.001l.015.048.214-.105-.236.037z"/><path fill="#FFF" d="M174.938 12.354l-.006.009v.004l.05-.016-.006-.02-.047.008.002.014z"/><path fill="#FFF" d="M174.928 12.363h.004v.004h-.004zm-.023-.02h-.001v.001zm.014-.005h.011v.014h-.011zm-.145.061l-.215-.105.202.145zm.164-.045l-.007-.001.001.01z"/><path fill="#FFF" d="M174.932 12.363l-.001-.01-.011-.002.008.017zm-.124-.069h-.249l.237.037zm.036.045l.006-.045h-.042l-.012.037zm.017-.005l.006.009h.002v-.049h-.019l-.006.045.013.002zm.025.012l.018-.003v-.049h-.035v.049z"/><path fill="#FFF" d="M174.904 12.344v-.001l-.018.003.015.002zm-.115.007h.001l.006-.02-.237-.037.215.105zm.051.012l-.006-.009.008-.001.002-.014-.048-.008-.006.02.05.016z"/><path fill="#FFF" d="M174.839 12.365h.006v.004h-.006zm.021-.014l-.006.01-.012-.007.005-.01zm.009-.008h-.002l.002.003zm.002.005l.015-.002-.017-.003v.003zm-.037.006l.006.009.002-.01z"/><path fill="#FFF" d="M174.852 12.351l-.01.002-.002.01.004.005zm.034.018l.015-.021-.015-.002-.015.002zm.201.308l-.076-.237-.034.024z"/><path fill="#FFF" d="M174.955 12.42l.022.044.034-.024-.013-.041zm-.011-.022l.001.002.009.003-.005.005.006.012.043-.021-.015-.048h-.001l.011.031z"/><path fill="#FFF" d="M174.934 12.38l.01.018.049-.016-.011-.031-.05.016z"/><path fill="#FFF" d="M174.934 12.38l-.002-.013-.003.001zm-.048.151l.201.146-.166-.17zm.025-.197l-.006.009.01-.002zm-.007.015l.016.002-.005-.01-.01.002-.001.001zm.024.019h.001z"/><path fill="#FFF" d="M174.904 12.376l.024-.008-.008-.017-.016-.002zm0-.032l-.003.004.003.001z"/><path fill="#FFF" d="M174.904 12.376v-.027l-.003-.001-.015.021.007.01zm.057.099l.001.002-.041.03.166.17-.11-.213zm-.019-.041l-.009-.003-.002.001.03.043.016-.011-.022-.044-.014.007z"/><path fill="#FFF" d="M174.942 12.434l-.001-.007-.008.004z"/><path fill="#FFF" d="M174.931 12.432l.002-.001-.004-.001zm.009-.019h.016v.011h-.016zm.005-.013l-.001-.002-.003.001z"/><path fill="#FFF" d="M174.929 12.43l.004.001.008-.004-.001-.01-.012.012zm.012-.031l.003-.001-.01-.018.003.017z"/><path fill="#FFF" d="M174.928 12.368l-.015.022.024.007-.003-.017-.005-.012z"/><path fill="#FFF" d="M174.913 12.39l.015-.022-.024.008v.011zm-.016-.005l.007.002v-.011l-.011.003zm-.213.292l.202-.146-.034-.025zm.177-.343l-.004.007.01.002zm-.018.034h.001zm.026-.022l-.002-.003-.01-.002-.005.01.017-.003zm0 0v.002h.002z"/><path fill="#FFF" d="M174.844 12.368l.025.008v-.028l-.017.003-.008.017zm.042.001l-.015-.021h-.002v.028l.01.003zm0 .102l-.034.035.034.025.035-.024z"/><path fill="#FFF" d="M174.886 12.381l.007-.002-.007-.01-.007.01zm.019.071l-.001.001v.01l-.006-.003-.012.011.035.036.041-.03-.001-.002-.026.019z"/><path fill="#FFF" d="M174.918 12.439l-.013.013.03.042.026-.019-.03-.043z"/><path fill="#FFF" d="M174.928 12.429l-.01.01.013-.007-.002-.002zm.001.001l-.001-.001zm-.025.033v-.01l-.006.007zm-.011-.084l-.007.002.011.004zm-.132.06l-.077.238.11-.214z"/><path fill="#FFF" d="M174.816 12.42l-.042-.021-.013.04.033.024zm.007-.013l-.004-.004.008-.003.001-.002-.049-.016.011-.031h-.001l-.015.048.042.021z"/><path fill="#FFF" d="M174.828 12.398l.01-.019.002-.012-.05-.016-.011.031zm.012-.031l-.002.012.005-.011zm.114.036l-.009-.003.004.008zm-.135 0l.004.004.004-.007zm.118-.003l.003.017.009-.009-.004-.008-.004-.001z"/><path fill="#FFF" d="M174.913 12.408l.015.021.012-.012-.003-.017zm.028-.009l-.004-.002v.003z"/><path fill="#FFF" d="M174.913 12.408l.024-.008v-.003l-.024-.007-.006.008zm-.009-.014l.003.004.006-.008-.009-.003zm0-.007l-.007-.002.007.009zm-.093.09l.001-.002-.018-.012-.11.214.168-.171zm.028-.046l-.01.003.002-.007-.015-.007-.022.043.018.012.03-.043z"/><path fill="#FFF" d="M174.829 12.434l.01-.003-.008-.004zm.01-.003l.003.001.002-.003zm-.007-.015l-.009-.009-.007.013.015.007zm-.004-.018l-.001.002.004-.001zm.007 0l.003-.019-.01.019.003.001z"/><path fill="#FFF" d="M174.845 12.429l-.013-.013-.001.011.008.004.005-.002zm.015-.039l-.016-.022h-.001l-.005.011-.003.019z"/><path fill="#FFF" d="M174.869 12.376l-.025-.008.016.022.009-.003z"/><path fill="#FFF" d="M174.867 12.377h.01v.007h-.01zm-.032.023l-.004-.001-.004.001-.004.007.009.009zm-.004-.001l.004.001v-.002zm.028.009l-.024-.008-.003.016.013.013zm.007-.01l-.006-.008-.025.008v.002l.024.008z"/><circle fill="#FFF" cx="174.865" cy="12.391" r=".005"/><path fill="#FFF" d="M174.869 12.387v.006l.006-.008zm0 .076v-.009l-.001-.002-.03.042-.026-.019-.001.002.041.029.034-.035-.011-.011z"/><path fill="#FFF" d="M174.869 12.463l.006-.003-.006-.006zm-.001-.011l-.014-.014-.012-.006-.03.043.026.019z"/><path fill="#FFF" d="M174.844 12.429l-.002.003.012.006-.009-.009zm0 0h.001zm.035-.05l-.004.006.011-.004zm-.011.073l.001.002v-.004zm.036.001l.001-.001-.001-.001zm-.017.001l-.012.006.011.011.012-.011z"/><path fill="#FFF" d="M174.869 12.45v.004l.006.006.012-.006-.015-.007zm.035.001l.001.001.013-.013-.014.007z"/><path fill="#FFF" d="M174.904 12.422v.024l.014-.007.01-.01z"/><path fill="#FFF" d="M174.904 12.422l.024.007-.015-.021-.009.002zm0-.02v.008l.009-.002-.006-.01zm-.035.044l-.015-.008.014.014.001-.002z"/><path fill="#FFF" d="M174.869 12.45l.003-.003-.003-.001zm.038-.052l-.003-.004v.008zm-.006.049l-.014.007.011.006.006-.007v-.002zm-.015-.021l-.014.021.015.007.014-.007z"/><path fill="#FFF" d="M174.904 12.451v-.005l-.003.001zm-.018-.025l.015.021.003-.001v-.024l-.012-.004zm.01-.013l-.004.005.012.004v-.012z"/><path fill="#FFF" d="M174.904 12.41v-.008l-.008.011zm-.035.011l-.024.008.009.009.015.008z"/><path fill="#FFF" d="M174.859 12.408l-.014.021.024-.008v-.01zm.01-.005l-.003-.005-.007.01.01.003zm0 .018v.025l.003.001.014-.021-.006-.008z"/><path fill="#FFF" d="M174.877 12.413l-.008-.002v.01l.011-.003z"/><path fill="#FFF" d="M174.869 12.411l.008.002-.008-.01zm0-.018l-.003.005.003.005zm.017.023l-.006.002.006.008.006-.008zm.006.002l.004-.005-.01.003zm-.012 0l.006-.002-.009-.003z"/><path fill="#FFF" d="M174.877 12.413l.009.003.01-.003.008-.011v-.008l-.007-.009-.011-.004-.011.004-.006.008v.01zm1.384-.359l-.077.24h.041zm.079.24l-.079-.24.036.24z"/><path fill="#FFF" d="M176.244 12.294h.053l-.036-.24-.036.24zm.346 0h-.25l.012.038z"/><path fill="#FFF" d="M176.304 12.339l.048-.007-.012-.038h-.043zm-.018-.005l.003.007.015-.002-.007-.045h-.017v.048zm.101.105l.203-.145-.216.105z"/><path fill="#FFF" d="M176.358 12.351l.016.048.216-.105-.238.038z"/><path fill="#FFF" d="M176.314 12.354l-.006.009v.004l.05-.016-.006-.019-.048.007.002.014z"/><path fill="#FFF" d="M176.293 12.338h.012v.014h-.012zm.015.029v-.004l-.004.005zm-.158.032l-.214-.105.201.145zm.164-.045l-.008-.001.002.01z"/><path fill="#FFF" d="M176.304 12.368l.004-.005-.002-.01-.012-.002.01.017zm-.12-.074h-.248l.236.037z"/><path fill="#FFF" d="M176.219 12.339l.006-.045h-.041l-.012.037z"/><path fill="#FFF" d="M176.237 12.334l.006.009h.001v-.049h-.019l-.006.045.014.002zm.025.012l.017-.003.001-.001v-.048h-.036v.049z"/><path fill="#FFF" d="M176.279 12.343l-.017.003.014.002zm-.113.008l.006-.02-.236-.037.214.105zm.049.01l-.005-.007.006-.001.003-.014-.047-.008-.006.02.048.015z"/><path fill="#FFF" d="M176.23 12.342l-.005.01-.014-.007.005-.01zm-.016.021h.005v.008h-.005zm.03-.02h-.001l.001.001zm.003.005l.015-.002-.018-.003v.001zm-.037.006l.005.007.001-.008z"/><path fill="#FFF" d="M176.228 12.351l-.012.002-.001.008.005.007zm.034.018l.014-.021-.014-.002-.015.002zm.201.308l-.076-.238-.035.024zm-.133-.256l.022.042.035-.024-.013-.04z"/><path fill="#FFF" d="M176.319 12.398l.001.002.008.003-.004.005.006.013.044-.022-.016-.048.01.031z"/><path fill="#FFF" d="M176.311 12.382l.008.016.049-.016-.01-.031-.05.016z"/><path fill="#FFF" d="M176.304 12.369l.007.013-.003-.015-.004.001zm0-.001v.001zm-.042.163l.201.146-.167-.17zm.027-.19l-.003-.007-.006.008v.001z"/><path fill="#FFF" d="M176.277 12.34h.015v.011h-.015z"/><path fill="#FFF" d="M176.28 12.376l.024-.008-.01-.017-.014-.002zm0-.034l-.001.001h.001zm0 .034v-.027l-.004-.001-.014.021.007.01zm.057.098l.002.003-.043.03.167.17-.111-.214z"/><path fill="#FFF" d="M176.318 12.434l-.009-.003-.002.001.03.042.015-.011-.022-.042-.013.006z"/><path fill="#FFF" d="M176.318 12.434l-.001-.007-.008.004zm.002-.034l-.001-.002-.003.001zm-.004.016l.001.011.013-.006-.006-.013zm-.009.016l.002-.001-.004-.001z"/><path fill="#FFF" d="M176.305 12.43l.004.001.008-.004-.001-.011-.012.012zm.011-.031l.003-.001-.008-.016.002.016z"/><path fill="#FFF" d="M176.288 12.39l.025.008-.002-.016-.007-.013z"/><path fill="#FFF" d="M176.288 12.39l.016-.021v-.001l-.024.008v.011zm-.014-.005l.006.002v-.011l-.011.003zm-.216.292l.204-.146-.035-.025zm.179-.343l-.004.007.01.002z"/><path fill="#FFF" d="M176.244 12.344l-.001-.001-.01-.002-.005.01.016-.002zm-.025.024h.001zm.025-.024v.005l.003-.001zm-.024.024l.024.008v-.027l-.016.002-.008.017zm.042.001l-.015-.021-.003.001v.027l.01.003zm-.001.102l-.034.035.035.025.034-.024z"/><path fill="#FFF" d="M176.262 12.381l.007-.002-.007-.01-.008.01zm.018.072v.01l-.007-.004-.012.012.035.036.043-.03-.002-.003-.029.02z"/><path fill="#FFF" d="M176.293 12.439l-.013.013v.001l.028.041.029-.02-.03-.042z"/><path fill="#FFF" d="M176.303 12.429l-.01.01.014-.007-.002-.002zm.002.001l-.001-.002-.001.001zm-.032.029l.007.004v-.01h-.001zm.007-.006v-.001l-.001.001zm-.011-.074l-.007.002.012.004zm-.132.06l-.079.238.112-.214zm.055-.019l-.042-.021-.013.04.033.024z"/><path fill="#FFF" d="M176.199 12.407l-.005-.004.009-.003.001-.002-.048-.016.01-.031-.016.048.042.021z"/><path fill="#FFF" d="M176.204 12.398l.008-.016.002-.016-.048-.015-.01.031z"/><path fill="#FFF" d="M176.214 12.366l-.002.016.007-.014zm.114.037l-.008-.003.004.008zm-.134 0l.005.004.004-.007zm.119-.003l.003.016.008-.008-.004-.008-.004-.001zm-.024.007l.015.021.012-.012-.003-.016zm.027-.008l-.003-.001v.002zm-.027.008l.024-.007v-.002l-.025-.008-.005.008zm-.009-.013l.003.004.005-.008-.008-.003zm0-.007l-.006-.002.006.009zm-.093.09l.001-.001-.018-.013-.112.214.169-.171zm.028-.046l-.011.003.001-.008-.013-.006-.022.043.018.013.03-.044z"/><path fill="#FFF" d="M176.204 12.434l.011-.003-.01-.005z"/><path fill="#FFF" d="M176.205 12.413l.008.008-.01.01-.008-.009zm-.001-.015l-.001.002.004-.001zm.011.033l.003.001.002-.003zm-.005-.033l.002-.016-.008.016.003.001z"/><path fill="#FFF" d="M176.22 12.429l-.013-.013-.002.01.01.005.005-.002zm.015-.039l-.015-.022h-.001l-.007.014-.002.016z"/><path fill="#FFF" d="M176.244 12.376l-.024-.008.015.022.009-.003zm.006.009l.004-.006-.01-.003v.011zm-.041.014h-.002l-.004.001-.004.007.008.009zm-.002 0h.002l.001-.001z"/><path fill="#FFF" d="M176.235 12.408l-.026-.009-.002.017.013.013z"/><path fill="#FFF" d="M176.241 12.398l-.006-.008-.025.008-.001.001.026.009z"/><circle fill="#FFF" cx="176.24" cy="12.392" r=".005"/><path fill="#FFF" d="M176.244 12.387v.007l.006-.009zm0 .076v-.009l-.001-.002-.03.042-.025-.018-.001.001.04.029.034-.035-.011-.011z"/><path fill="#FFF" d="M176.244 12.463l.006-.003-.006-.006zm-.001-.011l-.015-.015-.01-.005-.03.044.025.018z"/><path fill="#FFF" d="M176.22 12.429l-.002.003.01.005-.008-.008zm0 0zm.034-.05l-.004.006.012-.004zm-.011.073l.001.002v-.003zm.019.002l-.012.006.011.011.012-.012z"/><path fill="#FFF" d="M176.244 12.451v.003l.006.006.012-.006-.015-.007zm.036.001l.013-.013-.013.006z"/><path fill="#FFF" d="M176.28 12.422v.023l.013-.006.01-.01z"/><path fill="#FFF" d="M176.28 12.422l.023.007.001-.001-.015-.021-.009.003zm0-.021v.009l.009-.003-.006-.009zm-.036.044l-.016-.008.015.015.001-.001zm0 .006l.003-.004-.003-.002z"/><path fill="#FFF" d="M176.283 12.398l-.003-.004v.007zm-.007.049l-.014.007.011.005.006-.006zm-.015-.02l-.014.02.015.007.014-.007z"/><path fill="#FFF" d="M176.277 12.446h.001v.006h-.001z"/><path fill="#FFF" d="M176.261 12.427l.015.02.004-.002v-.023l-.012-.004zm.011-.014l-.004.005.012.004v-.012z"/><path fill="#FFF" d="M176.28 12.41v-.009l-.008.012zm-.036.011l-.024.008.008.008.016.008z"/><path fill="#FFF" d="M176.235 12.408l-.015.021.024-.008v-.011z"/><path fill="#FFF" d="M176.244 12.403l-.003-.005-.006.01.009.002zm0 .018v.024l.003.002.014-.02-.006-.009zm.007-.008l-.007-.003v.011l.011-.003z"/><path fill="#FFF" d="M176.244 12.41l.007.003-.007-.01zm0-.016l-.003.004.003.005zm.018.022l-.007.002.006.009.007-.009zm.006.002l.004-.005-.01.003zm-.013 0l.007-.002-.011-.003z"/><path fill="#FFF" d="M176.251 12.413l.011.003.01-.003.008-.012v-.007l-.006-.009-.012-.004-.012.004-.006.009v.009zm1.387-.359l-.079.24h.041zm.076.24l-.076-.24.036.24z"/><path fill="#FFF" d="M177.619 12.294h.055l-.036-.24-.038.24zm.344 0h-.249l.012.037z"/><path fill="#FFF" d="M177.681 12.339l.045-.008-.012-.037h-.04zm-.025.004l.006-.009.003.007.016-.002-.007-.045h-.022v.049zm.105.096l.202-.145-.215.106z"/><path fill="#FFF" d="M177.732 12.351l.016.049.215-.106-.237.037z"/><path fill="#FFF" d="M177.689 12.354l-.005.007v.005l.048-.015-.006-.02-.045.008.001.014zm-.018-.003l.011.002-.001-.014-.016.002zm-.015-.008h-.004v.005z"/><path fill="#FFF" d="M177.679 12.362h.005v.005h-.005zm-.155.038l-.214-.106.202.145zm.165-.046l-.007-.001.002.008z"/><path fill="#FFF" d="M177.684 12.361l-.002-.008-.011-.002.008.017zm-.125-.067h-.249l.237.037z"/><path fill="#FFF" d="M177.594 12.339l.006-.045h-.041l-.012.037zm.016-.005l.007.009h.002v-.049h-.019l-.006.045.013.002zm.026.012l.016-.003v-.049h-.033v.049z"/><path fill="#FFF" d="M177.652 12.348v-.005l-.016.003.016.002zm-.112.003h.001l.006-.02-.237-.037.214.106z"/><path fill="#FFF" d="M177.59 12.363l-.007-.009.008-.001.003-.014-.047-.008-.006.02.048.015z"/><path fill="#FFF" d="M177.597 12.35l-.005.01-.011-.006.005-.01zm-.009.015h.005v.003h-.005zm.031-.022h-.002l.002.003zm.002.005l.015-.002-.017-.003v.003z"/><path fill="#FFF" d="M177.583 12.354l.007.009.001-.01zm.019-.003l-.011.002-.001.01.003.005zm.034.019l.016-.022-.016-.002-.015.002zm.202.307l-.077-.238-.033.024zm-.132-.257l.022.043.033-.024-.013-.039z"/><path fill="#FFF" d="M177.694 12.397l.002.003.009.003-.005.005.006.012.042-.02-.016-.049.01.031z"/><path fill="#FFF" d="M177.687 12.383l.007.014.048-.015-.01-.031-.048.015zm0 0l-.003-.017-.005.002zm-.05.149l.201.145-.166-.17zm.025-.198l-.006.009.009-.002zm.017.034zm-.027-.02l.019.003-.006-.01-.009.002-.004.005zm0 .029l.027-.009-.008-.017-.019-.003zm0-.029z"/><path fill="#FFF" d="M177.652 12.377v-.029l-.016.022.007.009zm.06.098l.001.002-.041.03.166.17-.11-.214z"/><path fill="#FFF" d="M177.695 12.434l-.011-.003-.003.001.031.043.016-.012-.022-.043-.012.006z"/><path fill="#FFF" d="M177.695 12.434l-.001-.008-.01.005zm-.003-.022h.014v.011h-.014zm-.011.02l.003-.001-.005-.002zm.015-.032l-.002-.003-.003.001z"/><path fill="#FFF" d="M177.679 12.429l.005.002.01-.005-.002-.01-.013.013zm.012-.031l.003-.001-.007-.014.002.015z"/><path fill="#FFF" d="M177.679 12.368l-.016.022.026.008-.002-.015-.008-.015z"/><path fill="#FFF" d="M177.663 12.39l.016-.022-.027.009v.009zm-.016-.014h.005v.009h-.005zm-.214.301l.204-.145-.035-.025zm.177-.343l-.003.007.01.002zm.009.012l-.002-.003-.01-.002-.005.01.017-.003zm-.026.022zm.026-.022v.002h.002z"/><path fill="#FFF" d="M177.593 12.368l.026.008v-.028l-.017.003-.009.017zm.043.002l-.015-.022h-.002v.028l.011.003zm.001.101l-.035.036.035.025.035-.025z"/><path fill="#FFF" d="M177.637 12.381l.006-.002-.007-.009-.006.009zm.018.072l-.003.003v.007l-.004-.003-.011.011.035.036.041-.03-.001-.002-.027.019z"/><path fill="#FFF" d="M177.67 12.437l-.015.016.03.041.027-.019-.031-.043z"/><path fill="#FFF" d="M177.679 12.429l-.009.008.011-.005-.002-.003zm0 0zm-.027.034v-.007l-.004.004zm-.009-.084l-.006.002.01.003zm-.131.06l-.079.238.111-.214zm.054-.019l-.042-.02-.012.039.032.024zm.007-.014l-.003-.003.006-.002.002-.004-.048-.015.011-.031h-.001l-.016.049.042.02z"/><path fill="#FFF" d="M177.578 12.397l.009-.019.002-.012-.048-.015-.011.031z"/><path fill="#FFF" d="M177.589 12.366l-.002.012.006-.01zm.116.037l-.009-.003.004.008zm-.135 0l.003.003.003-.005z"/><path fill="#FFF" d="M177.69 12.399l.002.017.008-.008-.004-.008-.005-.002zm-.027.008l.016.022.013-.013-.002-.017zm.028-.009h-.002l.001.001z"/><path fill="#FFF" d="M177.663 12.407l.027-.008-.001-.001-.026-.008-.006.008zm-.011-.016l.005.007.006-.008-.011-.004zm0-.005l-.005-.002.005.007zm-.092.091l.002-.002-.018-.012-.111.214.169-.17z"/><path fill="#FFF" d="M177.588 12.431l-.009.003.001-.007-.014-.007-.022.043.018.012.03-.042z"/><path fill="#FFF" d="M177.579 12.434l.009-.003-.008-.004zm.009-.003l.004.002.002-.004zm-.01-.034l-.002.004.006-.002zm.004.017l-.009-.008-.007.014.014.007zm.003-.016l.002-.02-.009.019.004.002z"/><path fill="#FFF" d="M177.595 12.428l-.013-.014-.002.013.008.004.006-.002zm.014-.038l-.016-.022-.006.01-.002.02z"/><path fill="#FFF" d="M177.619 12.376l-.026-.008.016.022.01-.003zm.007.009l.004-.006-.011-.003v.011zm-.042.014h-.002l-.006.002-.003.005.009.008zm-.002 0h.002l.001-.001zm.028.008l-.026-.008-.002.015.013.014z"/><path fill="#FFF" d="M177.616 12.399l-.007-.009-.024.008-.001.001.026.008z"/><path fill="#FFF" d="M177.619 12.394v-.007l-.01.003.007.009zm0-.007v.007l.007-.009zm0 .076v-.011h-.001l-.031.042-.025-.019-.002.002.042.03.035-.036-.011-.012z"/><path fill="#FFF" d="M177.619 12.463l.007-.004-.007-.007zm-.001-.011l-.01-.011-.016-.008-.03.042.025.019z"/><path fill="#FFF" d="M177.594 12.429l-.002.004.016.008-.012-.012z"/><path fill="#FFF" d="M177.594 12.429h.002l-.001-.001zm.036-.05l-.004.006.011-.004zm.022.077l.003-.003-.003-.004zm-.034-.004h.001v-.001zm.018.003l-.01.004.011.012.011-.011z"/><path fill="#FFF" d="M177.619 12.451v.001l.007.007.01-.004-.015-.008zm.033-.002l.003.004.015-.016-.018.01z"/><path fill="#FFF" d="M177.652 12.421v.026l.018-.01.009-.008zm0 0l.027.008-.016-.022-.011.004z"/><path fill="#FFF" d="M177.652 12.405v.006l.011-.004-.006-.009zm-.033.041l-.011-.005.01.011.001-.001zm0 .005l.002-.004-.002-.001z"/><path fill="#FFF" d="M177.657 12.398l-.005-.007v.014zm-.006.049l-.015.008.012.005.004-.004v-.007zm-.015-.02l-.015.02.015.008.015-.008z"/><path fill="#FFF" d="M177.652 12.449v-.002h-.001zm-.016-.022l.015.02h.001v-.026l-.009-.003z"/><path fill="#FFF" d="M177.645 12.413h.009v.006h-.009zm.007-.002v-.006l-.005.008zm-.033.01l-.023.008.012.012.011.005z"/><path fill="#FFF" d="M177.61 12.407l-.015.021.001.001.023-.008v-.011z"/><path fill="#FFF" d="M177.619 12.403l-.003-.004-.006.008.009.003zm0 .018v.025l.002.001.015-.02-.007-.009zm.006-.009l-.006-.002v.011l.01-.003z"/><path fill="#FFF" d="M177.619 12.41l.006.002-.006-.009zm0-.016l-.003.005.003.004zm.018.022l-.008.002.007.009.007-.009zm.006.002l.004-.005-.01.003zm-.014 0l.008-.002-.012-.004z"/><path fill="#FFF" d="M177.625 12.412l.012.004.01-.003.005-.008v-.014l-.005-.007-.01-.003-.011.004-.007.009v.009zm1.389-.358l-.079.24h.041zm.077.24l-.077-.24.034.24z"/><path fill="#FFF" d="M178.996 12.294h.052l-.034-.24-.038.24zm.343 0h-.248l.012.037z"/><path fill="#FFF" d="M179.055 12.339l.048-.008-.012-.037h-.043zm-.026.004l.006-.009.004.007.016-.002-.007-.045h-.02v.049zm.107.097l.203-.146-.216.106z"/><path fill="#FFF" d="M179.119 12.382l-.002.001.006.017.216-.106-.236.037z"/><path fill="#FFF" d="M179.065 12.354l-.007.01v.002l.049-.015.01.032.002-.001-.016-.051-.048.008.001.014z"/><path fill="#FFF" d="M179.043 12.338h.013v.014h-.013zm.015.028v-.002l-.003.003zm-.029-.023h-.001v.001zm-.128.057l-.216-.106.203.146zm.164-.046l-.009-.001.002.011z"/><path fill="#FFF" d="M179.055 12.367l.003-.003-.002-.011-.012-.002.009.017zm-.12-.073h-.25l.238.038z"/><path fill="#FFF" d="M178.969 12.339l.007-.045h-.041l-.012.038z"/><path fill="#FFF" d="M178.988 12.334l.006.009h.002v-.049h-.02l-.007.045.015.002z"/><path fill="#FFF" d="M179.012 12.346l.016-.003v-.049h-.032v.049z"/><path fill="#FFF" d="M179.028 12.344v-.001l-.016.003.014.002zm-.111.007l.006-.019-.238-.038.216.106zm.048.011l-.006-.008.008-.001.002-.014-.046-.007-.006.019.047.015zm.031-.019h-.002l.002.003z"/><path fill="#FFF" d="M178.965 12.362l-.001.004.005.002zm.001-.023h.016v.011h-.016zm.032.009l.014-.002-.016-.003v.003zm-.039.006l.006.008.002-.009z"/><path fill="#FFF" d="M178.97 12.368l.009-.017-.012.002-.002.009.004.006zm.042 0l.014-.02-.014-.002-.014.002zm.202.309l-.078-.237-.033.024zm-.133-.256l.022.043.033-.024-.013-.04z"/><path fill="#FFF" d="M179.069 12.399l.012.004-.007.006.007.012.042-.021-.006-.017-.048.015z"/><path fill="#FFF" d="M179.058 12.366l.003.017.008.015.048-.015-.01-.032z"/><path fill="#FFF" d="M179.054 12.37l.007.013-.003-.017-.003.001zm.001-.003l-.002.001.001.002zm-.043.164l.202.146-.168-.17zm.023-.197l-.006.009.01-.002zm-.007.014l.016.003-.005-.01-.01.002-.001.001z"/><path fill="#FFF" d="M179.028 12.376l.025-.008-.009-.017-.016-.003zm0-.032l-.002.004h.002zm0 .032v-.028h-.002l-.014.02.007.011zm.059.099l.001.002-.042.03.168.17-.111-.213z"/><path fill="#FFF" d="M179.068 12.434l-.008-.003-.003.002.03.042.016-.011-.022-.043-.014.007z"/><path fill="#FFF" d="M179.068 12.434l-.001-.006-.007.003zm.001-.035v-.001h-.001zm-.012.034l.003-.002-.005-.001zm.009-.018h.015v.01h-.015z"/><path fill="#FFF" d="M179.055 12.43l.005.001.007-.003-.001-.01-.011.011zm.013-.032h.001l-.008-.015.002.014zm-.029-.009l.024.008-.002-.014-.007-.013zm0 0l.015-.019-.001-.002-.025.008v.01zm-.016-.014h.005v.01h-.005zm-.212.302l.201-.146-.034-.024zm.177-.343l-.004.007.01.002zm.008.012l-.002-.003-.01-.002-.005.01.017-.003zm0 0v.002h.002z"/><path fill="#FFF" d="M178.996 12.376v-.028l-.017.003-.009.017z"/><path fill="#FFF" d="M179.012 12.368l-.014-.02h-.002v.028l.008.003zm0 .104l-.034.035.034.024.034-.024z"/><path fill="#FFF" d="M179.012 12.381l.007-.002-.007-.011-.008.011zm.019.072l-.003.003v.007l-.004-.003-.012.012.034.035.042-.03-.001-.002-.026.019z"/><path fill="#FFF" d="M179.046 12.439l-.015.014.03.041.026-.019-.03-.042zm.008-.009l-.008.009.011-.006-.002-.003zm.001 0v-.001l-.001.001zm-.027.033v-.007l-.004.004zm-.009-.084l-.007.002.012.004zm-.131.061l-.077.237.11-.213z"/><path fill="#FFF" d="M178.943 12.421l-.042-.021-.013.04.033.024z"/><path fill="#FFF" d="M178.95 12.408l-.006-.005.01-.004.001-.001-.048-.016.01-.031-.016.049.042.021z"/><path fill="#FFF" d="M178.955 12.398l.006-.013.003-.019-.047-.015-.01.031z"/><path fill="#FFF" d="M178.969 12.368l-.005-.002-.003.019.009-.016z"/><path fill="#FFF" d="M178.969 12.368l.001.001v-.001zm.112.035l-.012-.004.005.01zm-.137 0l.006.005.004-.009z"/><path fill="#FFF" d="M179.063 12.4l.003.018.008-.009-.005-.01-.001-.001z"/><path fill="#FFF" d="M179.039 12.407l.016.022.011-.011-.003-.018zm.029-.009l-.005-.001v.003z"/><path fill="#FFF" d="M179.039 12.407l.024-.007v-.003l-.024-.008-.006.009zm-.011-.016l.005.007.006-.009-.011-.003zm0-.005l-.004-.001.004.006zm-.091.091v-.001l-.016-.012-.11.213.167-.17zm.027-.046l-.01.003.001-.007-.012-.006-.022.043.016.012.03-.043z"/><path fill="#FFF" d="M178.954 12.434l.01-.003-.009-.004zm-.009-.029l.007.007-.01.01-.007-.007zm.01-.007l-.001.001.003-.001zm.009.033l.003.002.003-.004zm-.005-.033l.002-.013-.006.013h.002z"/><path fill="#FFF" d="M178.97 12.429l-.013-.013-.002.011.009.004.006-.002zm.015-.04l-.015-.02-.009.016-.002.013zm.011-.013l-.026-.008v.001l.015.02.011-.003z"/><path fill="#FFF" d="M178.994 12.377h.008v.007h-.008zm-.035.022l-.002-.001-.003.001-.004.009.007.008z"/><path fill="#FFF" d="M178.957 12.398l.002.001v-.001zm.027.009l-.025-.008-.002.017.013.013zm.007-.009l-.006-.009-.026.009v.001l.025.008zm.005-.008v-.004l-.011.003.006.009zm0-.004v.004l.004-.005zm0 .077v-.007l-.003-.004-.031.042-.025-.018v.001l.041.03.034-.035-.011-.011z"/><path fill="#FFF" d="M178.996 12.463l.005-.002-.005-.005zm-.003-.011l-.014-.014-.012-.005-.03.043.025.018zm-.023-.023l-.003.004.012.005-.009-.009zm0 0zm.034-.05l-.004.006.012-.004zm.024.077l.003-.003-.003-.004zm-.016-.001l-.011.006.011.011.012-.012zm-.019-.003l.003.004v-.009z"/><path fill="#FFF" d="M178.996 12.447v.009l.005.005.011-.006-.015-.008zm.032.002l.003.004.015-.014-.018.008z"/><path fill="#FFF" d="M179.028 12.421v.026l.018-.008.008-.009z"/><path fill="#FFF" d="M179.028 12.421l.026.009.001-.001-.016-.022-.011.004zm0-.017v.007l.011-.004-.006-.009zm-.032.043l-.017-.009.014.014.003-.005zm0 0h.001-.001z"/><path fill="#FFF" d="M179.033 12.398l-.005-.007v.013zm-.006.049l-.015.008.012.005.004-.004v-.007z"/><path fill="#FFF" d="M179.012 12.426l-.015.021.015.008.015-.008zm.016.023v-.002h-.001z"/><path fill="#FFF" d="M179.012 12.426l.015.021h.001v-.026l-.01-.003z"/><path fill="#FFF" d="M179.022 12.413l-.004.005.01.003v-.01zm.006-.002v-.007l-.006.009zm-.032.01l-.026.008.009.009.017.009z"/><path fill="#FFF" d="M178.984 12.407l-.014.022.026-.008v-.01zm.012-.002l-.005-.007-.007.009.012.004zm0 .016v.026h.001l.015-.021-.006-.008z"/><path fill="#FFF" d="M178.996 12.412h.006v.009h-.006z"/><path fill="#FFF" d="M178.996 12.411l.006.002-.006-.008zm0-.021l-.005.008.005.007zm.016.026l-.006.002.006.008.006-.008zm.006.002l.004-.005-.01.003zm-.012 0l.006-.002-.01-.003z"/><path fill="#FFF" d="M179.002 12.413l.01.003.01-.003.006-.009v-.013l-.004-.006-.012-.004-.012.004-.004.005v.015z"/><path fill="#44CFFF" d="M27.381 13.039s-.168-.872-1.327-1.215-2.333.17-3.342.752l-9.366 5.408c-2.732 1.577-4.055 5.015-2.735 7.302.74 1.281 5.98 10.393 7.089 12.319.992 1.724 3.22 2.217 4.817 1.298l11.866-6.824c1.617-.931 2.305-3.067 1.295-4.822l-3.437-5.969c-.9-1.564-2.853-2.161-4.434-1.251-1.606.924-8.184 4.728-9.705 5.603-1.359.782-3.591 1.112-4.752-.905-1.083-1.881.202-3.731 1.606-4.544 1.406-.814 12.425-7.152 12.425-7.152z"/><linearGradient id="a" gradientUnits="userSpaceOnUse" x1="1112.812" y1="-1896.85" x2="1135.532" y2="-1896.85" gradientTransform="matrix(1 0 0 -1 -1097.725 -1876.703)"><stop offset="0" stop-color="#019beb"/><stop offset="1" stop-color="#01a3f7"/></linearGradient><path fill="url(#a)" d="M37.43 21.761c-.363-.624-.79-1.367-1.279-2.22l-.85-1.479c-1.073-1.864-3.319-3.069-5.722-3.069-1.13 0-2.197.27-3.086.782l-10.678 6.148c-.686.395-.805 1.001-.689 1.438.14.524.599.875 1.142.875.25 0 .503-.073.753-.217l10.024-5.772a5.275 5.275 0 012.619-.726c1.631 0 3.041.826 3.87 2.266l2.446 4.237.737 1.276.182-.114c1.043-.651 1.141-2.376.531-3.425z"/><path d="M56.373 37.976c0 .256-.011.472-.032.648-.021.175-.053.321-.096.436s-.096.151-.16.202-.139.029-.224.029h-7.605c-.282 0-.484-.036-.676-.202-.192-.167-.253-.39-.253-.767V23.254c0-.085-.008-.162.048-.231.056-.068.13-.124.258-.167s.292-.077.51-.103c.218-.026.485-.038.81-.038.333 0 .605.013.819.038.214.026.384.06.512.103a.582.582 0 01.276.167.357.357 0 01.084.231v13.343h5.217c.085 0 .16.027.224.074s.117.126.16.233c.043.107.075.249.096.424.021.175.032.392.032.648zm13.362-4.86c0 .975-.128 1.864-.385 2.667s-.646 1.496-1.167 2.077c-.522.582-1.176 1.03-1.962 1.346-.787.316-1.706.474-2.757.474-1.017 0-1.902-.141-2.655-.423-.752-.282-1.377-.692-1.872-1.231-.496-.539-.864-1.201-1.103-1.988-.239-.787-.359-1.684-.359-2.693 0-.975.13-1.866.391-2.674.261-.808.652-1.501 1.173-2.078s1.173-1.024 1.956-1.34c.782-.316 1.699-.474 2.751-.474 1.026 0 1.915.139 2.667.417.752.278 1.374.686 1.866 1.225s.857 1.201 1.096 1.988c.24.788.36 1.69.36 2.707zm-3.321.128c0-.564-.045-1.084-.135-1.558a3.696 3.696 0 00-.455-1.238 2.285 2.285 0 00-.853-.821c-.355-.197-.802-.295-1.34-.295-.479 0-.898.088-1.257.263a2.26 2.26 0 00-.885.769c-.231.338-.404.744-.519 1.218s-.173 1.015-.173 1.622c0 .564.047 1.084.141 1.558.094.474.246.887.455 1.238.209.351.494.622.853.814.359.192.803.288 1.334.288.487 0 .911-.087 1.27-.263.359-.175.654-.43.885-.763s.402-.737.513-1.212c.11-.472.166-1.013.166-1.62zm15.527 5.745c0 .12.003.214-.082.282-.086.069-.197.117-.381.148-.184.03-.444.045-.803.045-.385 0-.659-.015-.834-.045s-.253-.079-.325-.148c-.073-.068-.062-.162-.062-.282v-.91c-.622.505-1.051.898-1.653 1.18-.603.282-1.294.423-2.029.423a5.688 5.688 0 01-1.684-.237 3.789 3.789 0 01-1.326-.705 3.175 3.175 0 01-.868-1.161c-.205-.462-.309-1.11-.309-1.725 0-.763.13-1.368.39-1.86a3.176 3.176 0 011.167-1.218c.517-.32 1.16-.559 1.93-.713.769-.154 1.663-.232 2.68-.232h1.082v-.458c0-.359-.02-.673-.092-.943a1.558 1.558 0 00-.351-.673 1.47 1.47 0 00-.663-.398c-.278-.085-.62-.128-1.03-.128-.539 0-1.018.06-1.442.179-.423.12-.797.252-1.122.398-.325.146-.596.278-.814.398s-.395.18-.532.18c-.094 0-.177-.03-.25-.09s-.139-2.127-.019-2.251c.12-.124.329-.261.628-.41.299-.149.65-.289 1.052-.417s.84-.233 1.314-.314a8.716 8.716 0 011.468-.122c.898 0 1.665.088 2.302.263.637.175 1.161.445 1.571.808.41.364.663.832.851 1.404.188.573.236 1.253.236 2.039v7.693zm-3.109-5.086h-1.197c-.522 0-.966.017-1.334.094-.368.077-.667.181-.898.335s-.4.334-.507.552-.16.587-.16.87c0 .479.152.963.455 1.237s.725.41 1.263.41c.453 0 .853-.116 1.233-.346.38-.231.729-.569 1.144-1.013v-2.139h.001zm17.411 5.048c0 .086-.058.16-.109.224s-.153.118-.273.16c-.12.043-.292.075-.502.096s-.472.032-.78.032c-.316 0-.581-.011-.791-.032s-.375-.053-.495-.096-.222-.096-.273-.16-.094-.139-.094-.224v-6.527c0-.556-.024-.992-.105-1.308s-.191-.588-.344-.814-.349-.402-.592-.526a1.85 1.85 0 00-.851-.186c-.41 0-.779.15-1.198.449s-.848.735-1.262 1.308v7.605c0 .086-.071.16-.122.224s-.162.118-.285.16c-.124.043-.3.075-.505.096-.205.021-.472.032-.788.032s-.58-.011-.785-.032-.371-.053-.495-.096-.21-.096-.261-.16-.075-.139-.075-.224v-11.44c0-.085.019-.16.062-.224a.466.466 0 01.23-.16c.111-.043.254-.075.429-.096s.395-.032.66-.032c.274 0 .5.011.679.032.18.021.318.054.417.096.098.043.14.096.183.16s.035.139.035.224v1.321c.622-.684 1.305-1.197 1.959-1.539s1.35-.513 2.06-.513c.778 0 1.441.128 1.976.385.534.257.97.605 1.299 1.045s.6.955.746 1.545c.145.59.252 1.3.252 2.129v7.066h-.002zm13.131-.885c0 .248-.011.455-.032.622-.021.167-.053.301-.096.404s-.096.13-.16.177c-.064.047-.135.023-.212.023h-8.336c-.282 0-.509-.036-.701-.202-.192-.167-.278-.39-.278-.767V23.857c0-.376.086-.689.278-.856.192-.167.419-.292.701-.292h8.284c.077 0 .145.063.205.106s.111.138.154.245.075.254.096.421.032.384.032.64c0 .239-.011.445-.032.612a1.576 1.576 0 01-.096.405.487.487 0 01-.154.21c-.06.047-.128.056-.205.056h-5.947v4.145h4.975c.207 0 .207 2.487 0 2.487h-4.975v4.767h5.998c.077 0 .147-.006.212.041a.467.467 0 01.16.209c.043.103.075.23.096.397.022.168.033.368.033.616zm12.721.654c.068.145.1.265.096.359s-.066.171-.186.231-.304.1-.551.122c-.248.021-.577.032-.987.032-.385 0-.695-.006-.93-.019s-.419-.038-.551-.077a.772.772 0 01-.295-.141.532.532 0 01-.147-.212l-2.116-4.065-2.116 4.065a.571.571 0 01-.141.212c-.06.056-.152.103-.276.141s-.297.064-.519.077-.513.019-.872.019c-.376 0-.675-.011-.898-.032-.222-.021-.385-.062-.487-.122-.103-.06-.156-.137-.16-.231-.004-.094.032-.214.109-.359l3.167-5.63-2.924-5.283a1 1 0 01-.122-.391c-.004-.107.049-.19.16-.25s.289-.103.532-.128a9.93 9.93 0 01.994-.038c.376 0 .677.006.904.019.226.013.404.032.532.058.128.026.222.066.282.122s.111.126.154.212l2.039 3.822 2.026-3.822a.518.518 0 01.115-.18.582.582 0 01.244-.128c.111-.034.263-.06.455-.077s.455-.026.789-.026c.376 0 .677.009.904.026.226.017.389.056.487.115.098.06.145.143.141.25s-.053.246-.147.417l-2.847 5.194 3.142 5.718zm13.645-5.655a8.537 8.537 0 01-.327 2.468c-.218.817-.537 1.511-.955 2.084a4.24 4.24 0 01-1.565 1.321c-.624.308-1.338.462-2.142.462-.476 0-.911-.032-1.189-.096s-.547-.163-.808-.295-.477-.297-.733-.494-.273-.191-.48-.456v5.432c0 .085-.068.162-.12.231-.051.068-.16.126-.284.173a2.334 2.334 0 01-.504.109 6.547 6.547 0 01-.788.038c-.316 0-.58-.013-.785-.038s-.371-.062-.495-.109-.212-.105-.263-.173-.077-.146-.077-.231V27.512c0-.085.021-.16.064-.224s.117-.117.224-.16.248-.075.423-.096c.175-.021.395-.032.66-.032.257 0 .472.011.648.032.175.021.316.054.423.096.107.043.163.096.206.16s.046.139.046.224v1.053c.415-.342.349-.35.669-.611a6 6 0 01.99-.654 4.468 4.468 0 011.037-.391c.355-.085 1.065-.128 1.467-.128.838 0 1.553.165 2.143.494.59.329 1.071.78 1.443 1.353s.643 1.24.815 2c.171.761.257 1.573.257 2.437zm-3.36.231c0-.487-.036-.955-.109-1.404a4.162 4.162 0 00-.372-1.199 2.291 2.291 0 00-.692-.84c-.287-.209-.643-.314-1.071-.314-.214 0-.425.032-.635.096-.21.064-.423.169-.641.314-.218.146-.4.334-.631.564a4.587 4.587 0 00-.688.859v3.487c.415.573.842 1.015 1.252 1.327s.816.468 1.261.468c.419 0 .765-.107 1.06-.321s.531-.494.719-.84c.188-.346.324-.737.414-1.173.091-.435.133-.588.133-1.024zm16.303-.398c0 .393-.091.713-.266.901s-.42.311-.727.311h-6.963c0 .415.058.901.173 1.298.115.398.299.721.551.999s.577.482.975.628c.398.146.874.214 1.43.214.564 0 1.06-.042 1.488-.124.427-.081.797-.172 1.109-.27s.571-.188.776-.27c.205-.081.372-.122.5-.122.077 0 .153.018.205.078.039.045-.002 2.17-.058 2.23-.056.06-.207.141-.455.244s-.564.203-.949.301c-.385.098-.825.184-1.321.256-.496.072-1.026.109-1.59.109-1.018 0-1.909-.128-2.674-.385-.765-.256-1.404-.646-1.917-1.167s-.896-1.18-1.148-1.975-.378-1.727-.378-2.796c0-1.017.132-1.934.398-2.751.265-.816.65-1.509 1.154-2.077a4.966 4.966 0 011.84-1.302c.722-.299 1.537-.449 2.443-.449.957 0 1.776.141 2.456.423s1.237.673 1.674 1.173c.436.5.759 1.092.965 1.776.205.684.311 1.428.311 2.231v.516h-.002zm-3.135-.861c.026-1.036-.156-1.649-.545-2.166-.389-.517-.99-.791-1.802-.791-.41 0-.767.069-1.071.223s-.556.357-.757.618-.355.598-.462.952c-.107.355-.169.75-.186 1.164h4.823zm12.065-2.522c-.261.223-1.163.16-1.291.13s-.269-.045-.423-.045c-.18 0-.359.037-.539.109-.18.073-.366.186-.558.34s-.432.359-.641.616c-.21.256-.335.418-.712.949v7.337c0 .086.013.16-.039.224a.49.49 0 01-.244.16 2.152 2.152 0 01-.484.096c-.205.021-.461.032-.777.032s-.575-.011-.78-.032-.369-.053-.493-.096-.188-.096-.239-.16-.053-.139-.053-.224V27.512c0-.085-.002-.16.041-.224.043-.064.108-.117.219-.16s.249-.075.424-.096.392-.032.658-.032c.274 0 .499.011.678.032.18.021.318.054.416.096.098.043.16.096.203.16s.055.139.055.224v1.423c.415-.427 1.085-1.349 1.325-1.511.239-.162.483-.276.722-.34a4.05 4.05 0 01.867-.112 5.53 5.53 0 011.105.1c.137.03.257.064.359.103a.727.727 0 01.225.122c.049.042.03 2.173-.024 2.218zm9.362 9.596c-.077.081-.19.154-.34.218s-.325.12-.526.167-.419.083-.654.109-.472.038-.712.038c-.641 0-1.197-.081-1.667-.244a2.775 2.775 0 01-1.167-.75c-.308-.338-.584-.763-.729-1.276s-.268-1.12-.268-1.821v-5.795h-1.273c-.162 0-.287-.133-.372-.334-.086-.201-.128-.553-.128-1.023 0-.248.011-.465.032-.636s.053-.31.096-.408.096-.177.16-.22a.4.4 0 01.224-.073h1.26v-2.539c0-.085.073-.162.12-.231.047-.068.157-.126.281-.173.124-.047.303-.081.513-.103a8.09 8.09 0 01.782-.032c.316 0 .582.011.792.032.209.021.375.056.495.103s.205.105.256.173a.378.378 0 01.077.231v2.539h2.49c.085 0 .16.028.224.071s.117.117.16.215.075.235.096.406.032.381.032.629c0 .47-.043.839-.128 1.04-.086.201-.21.334-.372.334h-2.503v5.308c0 .624.099 1.092.296 1.404s.548.468 1.052.468c.171 0 .325-.015.462-.045s.259-.064.366-.103c.107-.038.197-.072.269-.103a.528.528 0 01.199-.045c.051 0 .1.015.147.045.05.031.035 2.343-.042 2.424z"/><path fill="none" d="M0 0h192.751v51.024H0z"/></svg>