<svg xmlns="http://www.w3.org/2000/svg" width="133.228" height="68.031"><path fill="#4497B1" d="M110.763 15.585c-.049.032-.102.057-.155.084h.128l.027-.084z"/><path fill="#BC0030" d="M105.051 17h18v.286h-18z"/><path fill="#FFF" d="M105.051 20.227v2.487h18v-5.428h-18z"/><path fill="#BC0030" d="M105.051 22.951V23h17.995c0-.017.005-.033.005-.049v-.236h-18v.236z"/><path fill="#50B63F" d="M105.051 23v6h12.09c.861 0 1.678-.214 2.422-.571 2.024-.973 3.462-3.087 3.482-5.429h-17.994z"/><path fill="#FFF" d="M108.152 14.169c0-.936.758-1.696 1.694-1.696.081 0 .158.013.236.024a2.017 2.017 0 00-1.152-.362 2.03 2.03 0 101.154 3.699c-.078.011-.156.024-.238.024a1.692 1.692 0 01-1.694-1.689z"/><path fill="#4497B1" d="M119.675 11.571a6.041 6.041 0 00-2.533-.571h-6.225c-.906 0-1.756.215-2.525.571-1.965.911-3.342 2.838-3.342 5.154V17h18v-.274c.001-2.317-1.397-4.244-3.375-5.155zm-10.745 4.625a2.031 2.031 0 110-4.061c.428 0 .824.135 1.152.362-.078-.011-.155-.024-.236-.024a1.692 1.692 0 100 3.385c.082 0 .16-.013.238-.024a2.021 2.021 0 01-1.154.362zm2.135-.075l-.238-.172-.24.172.091-.281-.167-.119-.073-.052h.169c.053-.027.106-.052.155-.084l.064-.2.039.122.052.161h.294l-.238.171.092.282zm1.624 0l-.237-.172-.24.172.091-.282-.238-.171h.294l.092-.284.091.284h.294l-.238.172.091.281zm-.09-1.909l.09.281-.237-.172-.24.172.091-.282-.238-.171h.295l.092-.28.091.28h.294l-.238.172zm1.716 1.909l-.237-.172-.241.172.092-.281-.238-.172h.294l.091-.284.093.284h.296l-.241.171.091.282zm-.09-1.91l.09.282-.237-.172-.241.172.092-.281-.238-.172h.294l.091-.28.092.28h.296l-.239.171zm0-1.622l.09.283-.237-.175-.241.175.092-.282-.237-.174h.295l.09-.28.091.28h.297l-.24.173zm1.716 3.532l-.238-.172-.24.172.093-.281-.238-.172h.294l.093-.284.09.284h.295l-.24.172.091.281zm-.092-1.909l.091.281-.238-.172-.24.172.093-.281-.238-.172h.294l.092-.28.09.28h.295l-.239.172zm.001-1.622l.091.282-.238-.174-.24.174.092-.282-.237-.174h.295l.091-.28.089.28h.296l-.239.174zm1.717 3.531l-.238-.172-.238.172.091-.28-.24-.173h.296l.093-.284.091.284h.294l-.241.173.092.28zm-.092-1.908l.092.28-.238-.172-.238.172.091-.28-.24-.173h.296l.092-.28.091.28h.294l-.24.173zm.001-1.623l.091.281-.238-.174-.238.174.09-.281-.239-.175h.297l.091-.28.09.28h.295l-.239.175z"/><path fill="#FFF" d="M114.077 12.135l-.09.28h.048zm.092.28l-.092-.28.042.28z"/><path fill="#FFF" d="M114.057 12.415h.062l-.042-.28-.042.28zm.409 0h-.297l.015.047zm-.338.056l.056-.009-.015-.047h-.05z"/><path fill="#FFF" d="M114.106 12.466l.004.008.018-.003-.009-.056h-.02v.061zm.119.123l.241-.174-.255.129z"/><path fill="#FFF" d="M114.191 12.483h.001l.019.061.255-.129-.282.047z"/><path fill="#FFF" d="M114.14 12.49l-.008.01v.002l.059-.019-.007-.021-.056.009.002.017zm-.024-.004l.014.002-.002-.017-.018.003z"/><path fill="#FFF" d="M114.132 12.502V12.5l-.001.002zm-.44-.087l.237.174.015-.046zm.448.075l-.01-.002.002.012z"/><path fill="#FFF" d="M114.131 12.502l.001-.002-.002-.012-.014-.002.009.018zm-.159-.04l.015-.047h-.295zm.055.009l.008-.056h-.048l-.015.047z"/><path fill="#FFF" d="M114.049 12.466l.006.01h.002v-.061h-.022l-.008.056.018.003zm.029.014l.021-.004v-.061h-.042v.061zm.021-.004l-.021.004.016.002zm-.135.007h.001l.007-.021-.28-.047.252.128z"/><path fill="#FFF" d="M114.022 12.501l.001-.002-.007-.009.008-.002.003-.017-.055-.009-.007.021z"/><path fill="#FFF" d="M114.023 12.499l-.001.002.003.001zm.034-.023h-.002l.002.002zm-.019.01l.007-.012-.018-.003-.003.017zm.022-.004l.018-.002-.021-.004v.002zm-.044.008l.007.009.001-.011z"/><path fill="#FFF" d="M114.029 12.503l.009-.017-.014.002-.001.011.002.003zm.049.003l.016-.024-.016-.002-.018.002zm.237.365l-.09-.282-.041.029z"/><path fill="#FFF" d="M114.159 12.57l.025.048.041-.029-.014-.045zm-.011-.029l.008.003-.006.007.009.019.052-.026-.019-.061h-.001l.013.041z"/><path fill="#FFF" d="M114.136 12.524l.008.016.004.001.056-.017-.013-.041-.059.019z"/><path fill="#FFF" d="M114.127 12.507l.009.017-.004-.022h-.001z"/><path fill="#FFF" d="M114.131 12.502l-.006.002.002.003zm-.053.195l.237.174-.197-.203zm.032-.223l-.004-.008-.007.01zm-.011.009l.017.003-.006-.012-.011.002z"/><path fill="#FFF" d="M114.099 12.512l.026-.008-.009-.018-.017-.003zm0-.036zm0 .036v-.029l-.005-.001-.016.024.007.01zm.068.118l.002.002-.051.036.197.203-.131-.253zm-.022-.046l-.009-.002-.003.001.034.047.017-.012-.025-.048-.015.008z"/><path fill="#FFF" d="M114.145 12.584l-.001-.006-.008.004zm-.004-.024l.003.018.015-.008-.009-.019zm-.008.023l.003-.001-.005-.002z"/><path fill="#FFF" d="M114.131 12.58l.005.002.008-.004-.003-.018-.014.014zm.013-.04l-.008-.016.002.014zm-.033-.011l.027.009-.002-.014-.009-.017zm0 0l.016-.022-.002-.003-.026.008v.014zm-.021-.006l.009.003v-.014l-.014.004zm-.253.348l.241-.174-.041-.03zm.212-.405l-.004.008.01.002z"/><path fill="#FFF" d="M114.057 12.478l-.002-.002-.01-.002-.007.012.019-.003zm0 0v.005l.003-.001zm0 .034v-.029l-.019.003-.009.017z"/><path fill="#FFF" d="M114.078 12.506l-.018-.024-.003.001v.029l.013.005zm-.001.119l-.04.042.041.03.04-.029z"/><path fill="#FFF" d="M114.077 12.519l.008-.003-.007-.01-.008.011zm.022.088v.014l-.012-.006-.01.01.041.043.051-.036-.002-.002-.034.025z"/><path fill="#FFF" d="M114.104 12.598l-.005.005v.004l.034.048.034-.025-.034-.047zm.02-.02l-.02.02.029-.015-.002-.003z"/><path fill="#FFF" d="M114.131 12.58l-.004-.006-.003.004zm-.044.035l.012.006v-.014l-.002-.002zm.012-.008v-.004l-.002.002zm-.014-.091l-.008.003.013.004zm-.156.073l-.092.282.132-.253zm.066-.02l-.051-.026-.015.046.04.029zm.003-.025l.009-.003-.055-.017.013-.041h-.001l-.02.06.051.026.009-.018z"/><path fill="#FFF" d="M114.007 12.541l.003-.001.009-.017.003-.022-.057-.018-.013.041z"/><path fill="#FFF" d="M114.028 12.506l-.003-.004-.003-.001-.003.022z"/><path fill="#FFF" d="M114.025 12.502l.003.004.001-.003zm.125.049l.006-.007-.008-.003-.003.001zm-.002-.01l-.004-.001.001.002zm-.141 0l-.009.003.006.007.005-.01zm.003-.001l-.003.001h.002zm.129.004l.002.016.009-.009-.005-.009z"/><path fill="#FFF" d="M114.111 12.553l.016.021.014-.014-.002-.016zm.027-.012h.007v.002h-.007z"/><path fill="#FFF" d="M114.111 12.553l.028-.009-.001-.006-.027-.009-.008.012z"/><path fill="#FFF" d="M114.099 12.536l.004.005.008-.012-.012-.003zm0-.01l-.009-.003.009.013zm-.079.128v.001l-.051-.037-.132.253.2-.204z"/><path fill="#FFF" d="M114.023 12.583l-.003-.002-.01.003.001-.007-.016-.008-.026.049.051.037v-.001l-.031-.022z"/><path fill="#FFF" d="M114.01 12.584l.01-.003-.009-.004z"/><path fill="#FFF" d="M114.02 12.581l.003.002.003-.004zm-.007-.021l-.009-.009-.009.018.016.008zm.006-.037l-.009.017.007-.002zm.01.053l-.016-.016-.002.017.009.004.006-.002zm.015-.047l-.016-.023-.009.017-.002.015z"/><path fill="#FFF" d="M114.057 12.525v-.013l-.028-.009-.001.003.016.023zm.009-.003l.004-.005-.013-.005v.013zm-.057.019l-.005.01.009.009.003-.016z"/><path fill="#FFF" d="M114.009 12.539h.007v.006h-.007z"/><path fill="#FFF" d="M114.045 12.553l-.029-.009-.003.016.016.016z"/><path fill="#FFF" d="M114.044 12.529l-.027.009-.001.006.029.009.008-.012zm.013.007v-.011l-.013.004.009.012zm.009-.014l-.009.003v.011zm-.009.099v-.017l-.037.05.017.013.04-.042-.009-.009z"/><path fill="#FFF" d="M114.057 12.621l.011-.005-.011-.011zm-.009-.025l-.025-.013-.034.049.031.022.037-.05z"/><path fill="#FFF" d="M114.026 12.579l-.003.004.025.013-.017-.018zm0 0l.005-.001-.002-.002zm.044-.062l-.004.005.011-.003zm0 .103l.01-.004.006.011-.01.005zm-.013-.016v.001-.001zm0 0v.001l.011.011.01-.005-.019-.01zm.042-.001l.005-.005-.005.002z"/><path fill="#FFF" d="M114.099 12.57v.03l.005-.002.02-.02zm0 0l.025.008.003-.004-.016-.021-.012.003z"/><path fill="#FFF" d="M114.099 12.546v.01l.012-.003-.008-.012zm-.042.054l-.009-.004.009.008zm0 .004l.002-.003-.002-.001zm.046-.063l-.004-.005v.01zm-.008.061l-.017.009.009.004.01-.01z"/><path fill="#FFF" d="M114.077 12.576l-.018.025.019.01.017-.009zm.019.025h.003v.003h-.003z"/><path fill="#FFF" d="M114.077 12.576l.018.026.004-.002v-.03l-.014-.005z"/><path fill="#FFF" d="M114.089 12.559l-.004.006.014.005v-.014z"/><path fill="#FFF" d="M114.099 12.556v-.01l-.01.013zm-.042.013l-.026.009.017.018.009.004zm-.012-.016l-.016.023.002.002.026-.009v-.012zm.012-.006l-.004-.006-.008.012.012.004zm0 .022v.031l.002.001.018-.025-.007-.01zm.008-.01l-.008-.002v.012l.013-.003z"/><path fill="#FFF" d="M114.057 12.557l.008.002-.008-.012zm-.004-.016l.004.006v-.011zm.024.022l-.007.003.007.01.008-.011zm.008.002l.004-.006-.012.004z"/><path fill="#FFF" d="M114.07 12.566l.007-.003-.012-.004z"/><path fill="#FFF" d="M114.057 12.547l.008.012.012.004.012-.004.01-.013v-.01l-.009-.013-.013-.004-.011.003-.009.014zm1.647-.412l-.092.28h.049zm.089.28l-.089-.28.042.28z"/><path fill="#FFF" d="M115.682 12.415h.064l-.042-.28-.043.28zm.407 0h-.296l.015.047z"/><path fill="#FFF" d="M115.754 12.471l.054-.009-.015-.047h-.047z"/><path fill="#FFF" d="M115.726 12.475l.007-.009.003.008.018-.003-.008-.056h-.025v.061zm.124.115l.239-.175-.254.129z"/><path fill="#FFF" d="M115.814 12.483h.001l.02.061.254-.129-.281.047z"/><path fill="#FFF" d="M115.765 12.49l-.006.008v.003l.055-.018-.006-.021-.054.009.003.017zm-.039-.015l-.005.001v.006z"/><path fill="#FFF" d="M115.759 12.501v-.003l-.003.004zm-.016-.015l.014.002-.003-.017-.018.003zm-.426-.071l.237.174.015-.045zm.448.075l-.008-.002.002.01z"/><path fill="#FFF" d="M115.756 12.502l.003-.004-.002-.01-.014-.002.009.017zm-.159-.04l.015-.047h-.295zm.055.009l.009-.056h-.049l-.015.047z"/><path fill="#FFF" d="M115.672 12.466l.007.009.003.001v-.061h-.021l-.009.056.016.003zm.03.013l.019-.003v-.061h-.039v.061z"/><path fill="#FFF" d="M115.721 12.482v-.006l-.019.003.019.003zm-.132.001h.001l.007-.021-.28-.047.252.129zm.058.018h.001l-.008-.011.009-.002.003-.017-.055-.009-.007.021zm.035-.025l-.003-.001.003.005zm-.034.025h-.001.001z"/><path fill="#FFF" d="M115.661 12.486l.007-.012-.016-.003-.003.017zm.023-.004l.018-.003-.02-.003v.004zm-.044.008l.008.011.001-.013zm.013.013l.008-.017-.012.002-.001.013z"/><path fill="#FFF" d="M115.702 12.508l.019-.026-.019-.003-.018.003zm.239.363l-.091-.281-.039.028zm-.156-.302l.026.049.039-.028-.015-.046z"/><path fill="#FFF" d="M115.773 12.541l.01.003-.007.007.009.018.05-.025-.02-.061h-.001l.013.041z"/><path fill="#FFF" d="M115.762 12.524l.008.016.003.001.054-.017-.013-.041-.055.018z"/><path fill="#FFF" d="M115.753 12.506l.009.018-.003-.023-.003.001z"/><path fill="#FFF" d="M115.756 12.502l-.004.001.001.003zm-.053.195l.238.174-.197-.203zm.03-.231l-.007.009.01-.001z"/><path fill="#FFF" d="M115.721 12.482l.022.004-.007-.012-.01.001-.005.007zm0 .031l.031-.01-.009-.017-.022-.004zm0-.031zm0 .031v-.031l-.019.026.007.009zm.072.118v.001l-.049.036.197.203-.13-.253zm-.022-.047l-.009-.003-.004.002.035.048.018-.013-.026-.049-.015.008z"/><path fill="#FFF" d="M115.771 12.584l-.001-.007-.008.004zm-.003-.024l.002.017.015-.008-.009-.018zm-.01.023l.004-.002-.007-.002z"/><path fill="#FFF" d="M115.755 12.579l.007.002.008-.004-.002-.017-.016.016zm.015-.039l-.008-.016.002.014z"/><path fill="#FFF" d="M115.736 12.529l.028.009-.002-.014-.009-.018zm0 0l.017-.023-.001-.003-.031.01v.011zm-.023-.007l.008.002v-.011l-.012.004zm-.251.349l.241-.174-.041-.029zm.21-.405l-.004.008.011.001zm.01.014l-.003-.005-.011-.001-.007.012.021-.003zm0 0v.003l.002-.001z"/><path fill="#FFF" d="M115.682 12.512v-.029l-.021.003-.008.017zm.02-.004l-.018-.026-.002.001v.029l.014.004zm.001.118l-.041.042.041.029.041-.029z"/><path fill="#FFF" d="M115.703 12.519l.006-.002-.007-.009-.006.008zm.02.086l-.002.003v.013l-.009-.004-.009.009.041.042.049-.036v-.001l-.033.024z"/><path fill="#FFF" d="M115.732 12.596l-.009.009.037.05.033-.024-.035-.048zm.018-.018l-.018.018.026-.013-.003-.004z"/><path fill="#FFF" d="M115.755 12.579l-.003-.003-.002.002zm-.034.042v-.013l-.009.009zm-.012-.104l-.006.002.01.003zm-.155.072l-.092.282.132-.253z"/><path fill="#FFF" d="M115.618 12.569l-.049-.025-.015.045.04.029zm.007-.025l.008-.003-.056-.017.013-.041h-.001l-.02.061.049.025.011-.02z"/><path fill="#FFF" d="M115.633 12.541l.012-.022.002-.018-.057-.018-.013.041z"/><path fill="#FFF" d="M115.651 12.506l-.003-.005h-.001l-.002.018z"/><path fill="#FFF" d="M115.648 12.501l.003.005.002-.003zm.128.05l.007-.007-.01-.003h-.002zm-.003-.01l-.003-.001.001.001zm-.148.003l.004.005.004-.008z"/><path fill="#FFF" d="M115.765 12.543l.003.017.008-.009-.005-.01zm-.03.01l.017.023.016-.016-.003-.017z"/><path fill="#FFF" d="M115.765 12.541h.006v.002h-.006zm-.03.012l.03-.01-.001-.005-.028-.009-.009.012z"/><path fill="#FFF" d="M115.721 12.533l.006.008.009-.012-.015-.005zm0-.009l-.008-.002.008.011zm-.076.131l-.051-.037-.132.253.2-.203z"/><path fill="#FFF" d="M115.647 12.584l-.004-.002-.008.002v-.006l-.017-.009-.024.049.051.037-.032-.023z"/><path fill="#FFF" d="M115.635 12.584l.008-.002-.008-.004zm.008-.002l.004.002.004-.005zm-.004-.024l-.01-.009-.011.02.017.009zm-.006-.017zm.009-.003l.003-.019-.012.022z"/><path fill="#FFF" d="M115.654 12.574l-.015-.016-.004.02.008.004.008-.003zm.015-.044l-.018-.024-.006.013-.003.019zm.013-.005v-.013l-.029-.009-.002.003.018.024zm.01-.003l.004-.006-.014-.004v.013zm-.059.019l-.004.008.01.009.002-.015z"/><path fill="#FFF" d="M115.633 12.541l.008.002.001-.005zm.037.012l-.029-.01-.002.015.015.016z"/><path fill="#FFF" d="M115.669 12.53l-.027.008-.001.005.029.01.008-.011zm.013.006v-.011l-.013.005.009.012z"/><path fill="#FFF" d="M115.692 12.522l-.01.003v.011zm-.01.099v-.017l-.037.051.017.013.041-.042-.009-.01z"/><path fill="#FFF" d="M115.682 12.604v.017l.012-.005-.012-.012zm0-.001l-.003-.003-.032-.016-.034.048.032.023.037-.051zm0 0v.001z"/><path fill="#FFF" d="M115.651 12.579l-.004.005.032.016-.022-.023z"/><path fill="#FFF" d="M115.651 12.579l.006-.002-.003-.003zm.045-.063l-.004.006.011-.003zm.024.085h.004v.006h-.004zm-.022.011h.009v.014h-.009z"/><path fill="#FFF" d="M115.682 12.604l.012.012.008-.004-.019-.01zm.039-.002zm.002.003l.009-.009-.011.006z"/><path fill="#FFF" d="M115.721 12.568v.034l.011-.006.018-.018z"/><path fill="#FFF" d="M115.721 12.568l.029.01.002-.002-.017-.023-.014.004z"/><path fill="#FFF" d="M115.721 12.55v.007l.014-.004-.008-.012zm-.042.05l.003.003v-.001zm.003.002h.001v.002h-.001z"/><path fill="#FFF" d="M115.727 12.541l-.006-.008v.017zm-.025.071l.01.005.009-.009v-.006z"/><path fill="#FFF" d="M115.721 12.602l-.019-.026-.019.026.019.01.019-.01z"/><path fill="#FFF" d="M115.702 12.576l.019.026v-.034l-.011-.003z"/><path fill="#FFF" d="M115.714 12.559l-.004.006.011.003v-.011z"/><path fill="#FFF" d="M115.721 12.557v-.007l-.007.009zm-.039.012l-.025.008.022.023.003.002z"/><path fill="#FFF" d="M115.67 12.553l-.016.021.003.003.025-.008v-.013zm.012-.005l-.004-.006-.008.011.012.003zm0 .021v.033h.001l.019-.026-.007-.011z"/><path fill="#FFF" d="M115.689 12.559l-.007-.003v.013l.013-.004zm-.007-.003l.007.003-.007-.011zm-.004-.014l.004.006v-.012zm.025.021l-.008.002.007.011.008-.011z"/><path fill="#FFF" d="M115.71 12.565l.004-.006-.011.004zm-.015 0l.008-.002-.014-.004z"/><path fill="#FFF" d="M115.682 12.548l.007.011.014.004.011-.004.007-.009v-.017l-.008-.011-.01-.003-.011.003-.01.014zm1.649-.413l-.092.28h.047zm.09.28l-.09-.28.04.28z"/><path fill="#FFF" d="M117.31 12.415h.061l-.04-.28-.045.28zm.406 0h-.295l.015.047z"/><path fill="#FFF" d="M117.379 12.471l.057-.009-.015-.047h-.05z"/><path fill="#FFF" d="M117.349 12.476l.007-.01.004.008.019-.003-.008-.056h-.023v.061zm.127.114l.24-.175-.255.13z"/><path fill="#FFF" d="M117.456 12.524h-.002l.007.021.255-.13-.28.047z"/><path fill="#FFF" d="M117.391 12.49l-.008.011.057-.018.014.041h.002l-.02-.062-.057.009.002.017zm-.042-.014h-.001v.002zm.017.01l.015.002-.002-.017-.019.003zm-.424-.071l.239.175.015-.046z"/><path fill="#FFF" d="M117.383 12.501l.008-.011-.01-.002.002.013z"/><path fill="#FFF" d="M117.383 12.501l-.002-.013-.015-.002.009.017zm-.159-.039l.015-.047h-.297zm.054.009l.008-.056h-.047l-.015.047zm.022-.005l.007.01h.003v-.061h-.024l-.008.056.018.003zm.029.013l.019-.003v-.061h-.038v.061z"/><path fill="#FFF" d="M117.348 12.478v-.002l-.019.003.016.003zm-.132.005h.001l.007-.021-.282-.047.254.129z"/><path fill="#FFF" d="M117.273 12.501v-.002l-.007-.009.009-.002.003-.017-.054-.009-.007.021z"/><path fill="#FFF" d="M117.29 12.486l.006-.012-.018-.003-.003.017zm.02-.01h-.003l.003.004zm-.037.023v.002h.002z"/><path fill="#FFF" d="M117.312 12.482l.017-.003-.019-.003v.004zm-.046.008l.007.009.002-.011zm.015.013l.009-.017-.015.002-.002.011.002.002zm.047.002l.017-.023-.016-.003-.017.003zm.239.366l-.091-.281-.04.029zm-.157-.3l.026.048.04-.029-.015-.045z"/><path fill="#FFF" d="M117.41 12.544l-.009.009.009.018.051-.026-.007-.021-.054.017z"/><path fill="#FFF" d="M117.383 12.501l.003.023.008.015.006.002.054-.017-.014-.041z"/><path fill="#FFF" d="M117.386 12.524l-.003-.023-.005.007zm-.003-.023z"/><path fill="#FFF" d="M117.377 12.498h.005v.009h-.005zm-.048.199l.238.174-.198-.203zm.027-.231l-.007.01.011-.002zm-.008.016l.018.004-.006-.012-.011.002-.001.002zm0 .03l.027-.009-.009-.017-.018-.004zm0-.034l-.003.004h.003zm0 .034v-.03h-.003l-.017.023.008.011z"/><path fill="#FFF" d="M117.386 12.655l-.017.013.198.203-.131-.252z"/><path fill="#FFF" d="M117.395 12.584l-.007-.002-.004.002.034.048-.032.023.05-.036-.026-.048-.016.008z"/><path fill="#FFF" d="M117.395 12.584l-.001-.005-.006.003z"/><path fill="#FFF" d="M117.392 12.563l.002.016.016-.008-.009-.018zm-.008.021l.004-.002-.006-.002z"/><path fill="#FFF" d="M117.382 12.58l.006.002.006-.003-.002-.016-.013.013zm.012-.041l-.008-.015.002.013z"/><path fill="#FFF" d="M117.363 12.529l.025.008-.002-.013-.008-.016zm0 0l.015-.021-.003-.005-.027.009v.012zm-.023-.007l.008.002v-.012l-.012.004zm-.249.349l.238-.174-.04-.029zm.209-.405l-.004.008.011.002z"/><path fill="#FFF" d="M117.31 12.48l-.003-.004-.011-.002-.006.012.02-.004zm0 0v.002h.002z"/><path fill="#FFF" d="M117.31 12.513v-.031l-.02.004-.009.017zm.018-.008l-.016-.023h-.002v.031l.011.003zm.001.122l-.04.041.04.029.04-.029z"/><path fill="#FFF" d="M117.329 12.518l.007-.002-.008-.011-.007.011zm.019.09v.013l-.009-.004-.01.01.04.041.017-.013-.036-.05zm.036-.024l-.026.013-.008.008.036.05.032-.023zm-.008-.006l-.018.019.026-.013-.002-.004z"/><path fill="#FFF" d="M117.382 12.58l-.003-.004-.003.002zm-.034.041v-.013l-.009.009zm-.012-.105l-.007.002.011.004zm-.155.074l-.09.281.13-.252zm.065-.02l-.05-.026-.015.046.04.029zm.002-.026l.01-.003-.054-.017.013-.041h-.001l-.02.061.05.026.01-.018z"/><path fill="#FFF" d="M117.258 12.541l.005-.002.006-.012.004-.026-.056-.018-.013.041z"/><path fill="#FFF" d="M117.279 12.507l-.004-.006h-.002l-.004.026zm-.004-.006l.004.006.002-.004zm.126.052l.009-.009-.01-.003-.004.001z"/><path fill="#FFF" d="M117.4 12.541l-.006-.002.002.003zm-.142 0l-.01.003.008.008.005-.01zm.005-.002l-.005.002.003.001zm.126.005l.003.019.009-.01-.005-.011z"/><path fill="#FFF" d="M117.362 12.553l.017.023.013-.013-.003-.019zm.026-.013h.007v.004h-.007z"/><path fill="#FFF" d="M117.362 12.553l.027-.009-.001-.007-.025-.008-.009.012z"/><path fill="#FFF" d="M117.348 12.532l.006.009.009-.012-.015-.005zm0-.008l-.008-.002.008.01zm-.078.13v.001l-.049-.036-.13.252.198-.203z"/><path fill="#FFF" d="M117.273 12.584l-.004-.003-.009.003.001-.007-.015-.007-.025.049.049.036v-.001l-.031-.022z"/><path fill="#FFF" d="M117.26 12.584l.009-.003-.008-.004zm.003-.024l-.007-.008-.01.018.015.007zm.006.021l.004.003.003-.005zm0-.054l-.006.012.004-.001z"/><path fill="#FFF" d="M117.279 12.576l-.016-.016-.002.017.008.004.007-.002zm.016-.047l-.016-.022-.01.02-.002.011zm.015-.005v-.011l-.029-.01-.002.004.016.022zm.006-.002l.005-.006-.011-.003v.011zm-.055.02l-.005.01.007.008.003-.017z"/><path fill="#FFF" d="M117.262 12.538h.005v.006h-.005z"/><path fill="#FFF" d="M117.295 12.553l-.029-.01-.003.017.016.016z"/><path fill="#FFF" d="M117.295 12.529l-.028.009-.001.005.029.01.008-.012zm.015.002v-.007l-.015.005.008.012zm.006-.009l-.006.002v.007zm-.006.099v-.013l-.003-.003-.037.049.019.014.04-.041-.01-.01z"/><path fill="#FFF" d="M117.31 12.621l.009-.004-.009-.009zm-.01-.024l-.027-.013-.034.048.031.022.037-.049z"/><path fill="#FFF" d="M117.276 12.579l-.003.005.027.013-.019-.019z"/><path fill="#FFF" d="M117.276 12.579l.005-.001-.002-.002zm.045-.063l-.005.006.013-.004zm.008.096l-.01.005.01.01.01-.01zm.018-.011h.003v.005h-.003zm-.039.002h.003v.005h-.003zm.04-.001v.001z"/><path fill="#FFF" d="M117.31 12.608l.009.009.01-.005-.019-.009zm.04-.003l.008-.008-.01.005zm-.002-.036v.033l.01-.005.018-.019z"/><path fill="#FFF" d="M117.348 12.569l.028.009.003-.002-.017-.023-.014.004zm0-.02v.008l.014-.004-.008-.012zm-.048.048l.007.008.002-.003zm.054-.056l-.006-.009v.017zm-.044.062V12.6l-.001.002zm.019.009l.01.005.009-.009v-.005z"/><path fill="#FFF" d="M117.348 12.602l-.02-.027-.018.025v.003l.019.009.019-.009zm-.02-.027l.02.027v-.033l-.012-.003zm.012-.016l-.004.007.012.003v-.012z"/><path fill="#FFF" d="M117.348 12.557v-.008l-.008.01zm-.038.043v-.031l-.029.009.019.019.009.005zm-.015-.047l-.016.023.002.002.029-.009v-.012zm.015-.003l-.007-.009-.008.012.015.004zm0 .019v.031l.018-.025-.007-.01zm.007-.009l-.007-.003v.012l.011-.004zm-.007-.003l.007.003-.007-.01z"/><path fill="#FFF" d="M117.303 12.541l.007.009v-.019zm.025.022l-.007.002.007.01.008-.009z"/><path fill="#FFF" d="M117.336 12.566l.004-.007-.012.004zm-.015-.001l.007-.002-.011-.003z"/><path fill="#FFF" d="M117.31 12.55l.007.01.011.003.012-.004.008-.01v-.017l-.008-.01-.011-.004-.013.004-.006.009zm-4.858 1.21l-.092.28h.05zm.091.28l-.091-.28.041.28z"/><path fill="#FFF" d="M112.432 14.04h.061l-.041-.28-.042.28zm.405 0h-.294l.015.047z"/><path fill="#FFF" d="M112.501 14.096l.057-.009-.015-.047h-.05zm-.024.004l.004-.006.002.005.018-.003-.008-.056h-.021v.061zm.122.112l.238-.172-.253.127z"/><path fill="#FFF" d="M112.565 14.108l.019.059.253-.127-.279.047z"/><path fill="#FFF" d="M112.513 14.115l-.007.01v.003l.059-.02-.007-.021-.057.009.003.017zm-.036-.015l-.005.001v.005z"/><path fill="#FFF" d="M112.506 14.128v-.003l-.003.004zm-.016-.017l.014.002-.003-.017-.018.003zm-.425-.071l.239.172.014-.046zm.448.075l-.009-.002.002.012z"/><path fill="#FFF" d="M112.503 14.129l.003-.004-.002-.012-.014-.002.009.019zm-.158-.042l.015-.047h-.295zm.057.009l.008-.056h-.05l-.015.047z"/><path fill="#FFF" d="M112.422 14.094l.004.006.006.001v-.061h-.022l-.008.056.017.003z"/><path fill="#FFF" d="M112.452 14.104l.02-.003v-.061h-.04v.061z"/><path fill="#FFF" d="M112.472 14.106v-.005l-.02.003.019.004zm-.135.002h.001l.007-.021-.28-.047.253.126z"/><path fill="#FFF" d="M112.397 14.128v-.003l-.007-.01.009-.002.003-.017-.057-.009-.007.021z"/><path fill="#FFF" d="M112.413 14.111l.006-.012-.017-.003-.003.017zm.019-.003v-.007l-.006-.001.006.008zm-.035.017v.003l.003.001zm.055-.021l-.02-.003v.007zm-.062.011l.007.01.002-.012zm.042-.007zm-.029.022l.01-.019-.014.002-.002.012.003.004zm.029-.022l.02.027.019-.027-.019-.004-.02.004zm.257.385l-.09-.281-.041.03zm-.157-.3l.026.049.041-.03-.015-.045zm-.014-.028l.001.003.013.004-.007.007.007.014.052-.026-.019-.059.012.037z"/><path fill="#FFF" d="M112.509 14.149l.009.016.059-.02-.012-.037-.059.02z"/><path fill="#FFF" d="M112.501 14.132l.008.017-.003-.021-.003.001z"/><path fill="#FFF" d="M112.503 14.129l-.004.001.002.002zm-.051.192l.237.172-.198-.2zm.029-.227l-.004.006.006-.001z"/><path fill="#FFF" d="M112.472 14.108l.018.003-.007-.012-.006.001-.005.006z"/><path fill="#FFF" d="M112.472 14.139l.027-.009-.009-.019-.018-.003zm0-.033l-.001.002h.001z"/><path fill="#FFF" d="M112.472 14.139v-.031h-.001l-.019.027.006.009zm.068.116l.002.002-.051.036.198.2-.131-.251z"/><path fill="#FFF" d="M112.518 14.209l-.011-.003-.002.001.035.048.018-.013-.026-.049-.015.008z"/><path fill="#FFF" d="M112.518 14.209l-.001-.008-.01.005zm-.013-.002l.002-.001-.004-.002zm.014-.039l-.001-.003-.004.001zm-.004.021l.002.012.015-.008-.007-.014z"/><path fill="#FFF" d="M112.503 14.204l.004.002.01-.005-.002-.012-.013.013zm.011-.038l.004-.001-.009-.016.003.017z"/><path fill="#FFF" d="M112.483 14.156l.029.01-.003-.017-.008-.017z"/><path fill="#FFF" d="M112.483 14.156l.018-.024-.002-.002-.027.009v.014zm-.021-.007l.01.004v-.014l-.014.005zm-.25.344l.24-.172-.04-.029zm.21-.399l-.003.005.007.001z"/><path fill="#FFF" d="M112.426 14.1l-.007-.001-.006.012.019-.003z"/><path fill="#FFF" d="M112.432 14.139v-.031l-.019.003-.01.019zm.02-.004l-.02-.027v.031l.013.005zm0 .117l-.04.04.04.029.039-.028z"/><path fill="#FFF" d="M112.452 14.146l.006-.002-.006-.009-.007.009zm.023.083l-.003.003v.011l-.007-.004-.013.013.039.041.051-.036-.002-.002-.03.022z"/><path fill="#FFF" d="M112.49 14.214l-.015.015.035.048.03-.022-.035-.048z"/><path fill="#FFF" d="M112.501 14.203l-.011.011.015-.007-.002-.003z"/><path fill="#FFF" d="M112.503 14.204l-.001-.002-.001.001zm-.031.039v-.011l-.007.007zm-.014-.099l-.006.002.01.003zm-.154.068l-.092.281.133-.252z"/><path fill="#FFF" d="M112.37 14.192l-.052-.026-.014.046.041.029z"/><path fill="#FFF" d="M112.373 14.172l.01-.003.002-.004-.06-.02.013-.037h-.001l-.019.058.052.026.008-.014z"/><path fill="#FFF" d="M112.385 14.165l.009-.018.003-.019-.059-.02-.013.037zm.017-.033l-.002-.003-.003-.001-.003.019z"/><path fill="#FFF" d="M112.4 14.129l.002.003.001-.002zm.132.043l-.013-.004.006.011zm-.159 0l.005.006.005-.009zm.139-.005l.003.022.01-.01-.006-.011-.005-.002z"/><path fill="#FFF" d="M112.483 14.177l.019.025.013-.013-.003-.022zm.031-.011h-.002v.001zm-.031.011l.029-.01v-.001l-.029-.01-.008.011zm-.011-.014l.003.004.008-.011-.011-.003zm0-.01l-.01-.004.01.014zm-.109.104l.001-.002-.019-.014-.133.252.2-.201z"/><path fill="#FFF" d="M112.397 14.205l-.012.004.001-.009-.016-.008-.025.049.019.014.035-.048z"/><path fill="#FFF" d="M112.385 14.209l.012-.004-.011-.005zm.012-.004l.002.002.002-.003zm-.009-.017l-.01-.01-.008.014.016.008zm-.003-.023l-.002.004.007-.002z"/><path fill="#FFF" d="M112.391 14.166l.003-.019-.009.018.005.002zm.011.036l-.014-.014-.002.012.011.005.004-.001zm.018-.046l-.018-.024-.008.015-.003.019zm.012-.004v-.013l-.029-.009-.001.002.018.024zm.009-.003l.004-.005-.013-.005v.013z"/><path fill="#FFF" d="M112.39 14.167l-.007.002-.005.009.01.01.003-.021zm0 0h.001v-.001zm.031.01l-.03-.01-.003.021.014.014z"/><path fill="#FFF" d="M112.42 14.156l-.029.01v.001l.03.01.007-.01z"/><path fill="#FFF" d="M112.432 14.162v-.01l-.012.004.008.011zm.009-.013l-.009.003v.01zm-.009.094v-.011l-.003-.002-.034.047-.031-.022-.001.002.049.035.04-.04-.013-.012z"/><path fill="#FFF" d="M112.432 14.243l.007-.003-.007-.008zm-.003-.013l-.015-.016-.015-.007-.035.048.031.022z"/><path fill="#FFF" d="M112.401 14.204l-.002.003.015.007-.011-.011zm0 0l.002-.001-.001-.001zm.044-.06l-.004.005.011-.003zm.027.088l.003-.003-.003-.002zm-.02.001l-.013.007.013.012.013-.013zm-.023-.003l.003.002v-.006z"/><path fill="#FFF" d="M112.432 14.226v.006l.007.008.013-.007-.018-.009zm.04.001l.003.002.015-.015-.018.009zm0-.033v.029l.018-.009.011-.011z"/><path fill="#FFF" d="M112.472 14.194l.029.009.001-.001-.019-.025-.011.003zm0-.024v.01l.011-.003-.008-.01zm-.04.053l-.018-.009.015.016.003-.004zm0 .003l.002-.002-.002-.001zm.043-.059l-.003-.004v.007zm-.004.057l-.019.009.013.006.007-.007v-.005z"/><path fill="#FFF" d="M112.452 14.199l-.018.025.018.009.019-.009z"/><path fill="#FFF" d="M112.472 14.227v-.004l-.001.001z"/><path fill="#FFF" d="M112.452 14.199l.019.025.001-.001v-.029l-.014-.005z"/><path fill="#FFF" d="M112.463 14.183l-.005.006.014.005v-.014zm.009-.003v-.01l-.009.013zm-.04.013l-.029.01.011.011.018.009z"/><path fill="#FFF" d="M112.421 14.177l-.019.025.001.001.029-.01v-.012z"/><path fill="#FFF" d="M112.432 14.172l-.004-.005-.007.01.011.004zm0 .021v.03l.002.001.018-.025-.007-.01z"/><path fill="#FFF" d="M112.441 14.183l-.009-.002v.012l.013-.004z"/><path fill="#FFF" d="M112.432 14.181l.009.002-.009-.011zm-.004-.014l.004.005v-.01zm.024.02l-.007.002.007.01.006-.01z"/><path fill="#FFF" d="M112.458 14.189l.005-.006-.011.004zm-.013 0l.007-.002-.011-.004z"/><path fill="#FFF" d="M112.432 14.172l.009.011.011.004.011-.004.009-.013v-.007l-.01-.014-.01-.003-.011.003-.009.013zm1.645-.412l-.091.28h.049zm.092.28l-.092-.28.042.28z"/><path fill="#FFF" d="M114.057 14.04h.062l-.042-.28-.042.28zm.409 0h-.297l.016.047z"/><path fill="#FFF" d="M114.128 14.096l.057-.009-.016-.047h-.05zm-.027.005l.005-.007.003.005.019-.003-.009-.056h-.02v.061zm.124.11l.241-.171-.255.127z"/><path fill="#FFF" d="M114.192 14.108l.019.059.255-.127-.281.047z"/><path fill="#FFF" d="M114.14 14.115l-.008.01.001.003.059-.02-.007-.021-.057.009.002.017zm-.039-.014h-.002v.003z"/><path fill="#FFF" d="M114.114 14.11l.016.003-.002-.017-.019.003zm.019.018l-.001-.003-.003.004zm-.188.038l-.253-.126.238.172zm.195-.051l-.01-.002.002.012z"/><path fill="#FFF" d="M114.129 14.129l.003-.004-.002-.012-.016-.003.011.02zm-.143-.089h-.294l.279.047z"/><path fill="#FFF" d="M114.027 14.096l.008-.056h-.049l-.015.047zm.022-.002l.004.006.004.001v-.061h-.022l-.008.056.019.003z"/><path fill="#FFF" d="M114.078 14.104l.021-.003v-.061h-.042v.061z"/><path fill="#FFF" d="M114.099 14.104v-.003l-.021.003.018.003zm-.135.004l.007-.021-.279-.047.253.126z"/><path fill="#FFF" d="M114.023 14.123l-.007-.008.008-.002.003-.017-.056-.009-.007.021.058.019z"/><path fill="#FFF" d="M114.023 14.123l-.001.004.005.002zm.034-.022l-.004-.001.004.006zm-.017.01l.006-.012-.019-.003-.003.017zm.018-.003l.02-.004-.021-.003v.005zm-.042.007l.007.008.001-.01z"/><path fill="#FFF" d="M114.03 14.13l.01-.019-.016.002-.001.01.004.006zm.048.004l.018-.027-.018-.003-.02.004zm.237.359l-.09-.282-.042.03z"/><path fill="#FFF" d="M114.158 14.193l.025.048.042-.03-.014-.044zm-.015-.028l.002.003.011.004-.006.007.008.014.053-.026-.019-.059.012.037z"/><path fill="#FFF" d="M114.136 14.152l.007.013.061-.02-.012-.037-.059.02z"/><path fill="#FFF" d="M114.126 14.133l.01.019-.003-.024-.004.001z"/><path fill="#FFF" d="M114.129 14.129l-.004.001.001.003zm-.051.192l.237.172-.198-.2zm.028-.227l-.005.007.008-.002zm-.007.014l.015.002-.005-.011-.008.002-.002.003z"/><path fill="#FFF" d="M114.099 14.139l.026-.009-.011-.02-.015-.002zm0-.035l-.003.003.003.001z"/><path fill="#FFF" d="M114.099 14.139v-.031l-.003-.001-.018.027.007.009zm.067.114l.003.004-.052.036.198.2-.132-.252z"/><path fill="#FFF" d="M114.145 14.209l-.012-.004-.002.001.035.047.017-.012-.025-.048-.015.007z"/><path fill="#FFF" d="M114.145 14.209l-.002-.009-.01.005zm-.004-.022l.002.013.015-.007-.008-.014zm-.01.019l.002-.001-.003-.001zm.014-.038l-.002-.003-.004.001z"/><path fill="#FFF" d="M114.13 14.204l.003.001.01-.005-.002-.013-.013.014zm.009-.038l.004-.001-.007-.013.002.014z"/><path fill="#FFF" d="M114.109 14.156l.029.01-.002-.014-.01-.019z"/><path fill="#FFF" d="M114.109 14.156l.017-.023-.001-.003-.026.009v.014z"/><path fill="#FFF" d="M114.09 14.15l.009.003v-.014l-.014.004zm-.253.343l.241-.172-.04-.029zm.212-.399l-.003.005.007.001zm.008.012l-.004-.006-.007-.001-.006.012.017-.003zm0 0v.002h.001z"/><path fill="#FFF" d="M114.057 14.139v-.031l-.017.003-.01.019zm.021-.005l-.02-.026h-.001v.031l.013.004zm-.001.118l-.039.04.04.029.039-.028z"/><path fill="#FFF" d="M114.077 14.146l.008-.003-.007-.009-.008.009zm.022.084v.013l-.009-.004-.013.013.04.041.052-.036-.003-.004-.033.024z"/><path fill="#FFF" d="M114.114 14.215l-.015.015.034.047.033-.024-.035-.047zm.012-.012l-.012.012.017-.009-.001-.002z"/><path fill="#FFF" d="M114.13 14.204l-.002-.003-.002.002zm-.031.039v-.013l-.009.009zm-.014-.1l-.008.003.013.004zm-.155.069l-.093.281.134-.252zm.067-.02l-.052-.026-.015.046.041.029zm.007-.014l-.006-.006.011-.004.002-.003-.059-.02.012-.037-.019.058.052.026z"/><path fill="#FFF" d="M114.011 14.165l.008-.014.003-.024-.058-.019-.012.037zm.016-.036l-.005-.002-.003.024.01-.019z"/><path fill="#FFF" d="M114.027 14.129l.002.003.001-.002zm.129.043l-.011-.004.005.011zm-.158 0l.006.006.005-.01zm.14-.005l.003.02.009-.008-.005-.011-.006-.002zm-.029.009l.019.025.013-.014-.003-.02zm.03-.01h-.001v.001zm-.03.01l.029-.009v-.001l-.029-.01-.007.01z"/><path fill="#FFF" d="M114.099 14.163l.003.003.007-.01-.01-.003zm0-.01l-.009-.003.009.013zm-.11.104l.001-.002-.019-.014-.134.252.201-.201z"/><path fill="#FFF" d="M114.023 14.205l-.013.004.001-.01-.014-.007-.026.049.019.014.035-.049z"/><path fill="#FFF" d="M114.01 14.209l.013-.004-.012-.006z"/><path fill="#FFF" d="M114.023 14.205l.002.001.002-.003zm-.012-.04l-.002.003.007-.002zm.002.022l-.009-.009-.007.014.014.007z"/><path fill="#FFF" d="M114.016 14.166l.003-.015-.008.014.005.001zm.012.037l-.015-.016-.002.012.012.006.004-.002zm.018-.047l-.017-.024-.01.019-.003.015z"/><path fill="#FFF" d="M114.057 14.139l-.027-.009-.001.002.017.024.011-.003zm.009.01l.004-.006-.013-.004v.014zm-.05.017l-.007.002-.005.01.009.009zm0 0z"/><path fill="#FFF" d="M114.047 14.177l-.031-.011-.003.021.015.016zm.007-.01l-.008-.011-.03.01.031.011z"/><path fill="#FFF" d="M114.057 14.163v-.01l-.011.003.008.011zm0-.01v.01l.009-.014zm0 .09v-.011l-.002-.002-.035.047-.03-.022-.001.002.049.035.039-.04-.013-.013z"/><path fill="#FFF" d="M114.057 14.243l.007-.004-.007-.007zm-.002-.013l-.017-.018-.013-.006-.035.049.03.022z"/><path fill="#FFF" d="M114.027 14.203l-.002.003.013.006-.01-.009zm0 0h.001zm.043-.06l-.004.006.011-.003zm.029.087zm-.021.003l-.014.006.013.013.013-.013zm-.023-.003l.002.002v-.005z"/><path fill="#FFF" d="M114.057 14.227v.005l.007.007.014-.006-.018-.01zm.042.003l.015-.015-.015.007z"/><path fill="#FFF" d="M114.099 14.194v.028l.015-.007.012-.012z"/><path fill="#FFF" d="M114.099 14.194l.027.009.002-.002-.019-.025-.01.004z"/><path fill="#FFF" d="M114.099 14.17v.01l.01-.004-.007-.01zm-.042.052l-.019-.01.017.018.002-.003zm0 .005l.003-.004-.003-.001z"/><path fill="#FFF" d="M114.102 14.166l-.003-.003v.007zm-.007.058l-.017.009.012.006.009-.009zm-.018-.025l-.017.024.018.01.017-.009z"/><path fill="#FFF" d="M114.099 14.23v-.008l-.004.002zm-.022-.031l.018.025.004-.002v-.028l-.014-.005z"/><path fill="#FFF" d="M114.089 14.183l-.004.006.014.005v-.014z"/><path fill="#FFF" d="M114.099 14.18v-.01l-.01.013zm-.042.014l-.029.009.01.009.019.01zm-.01-.017l-.019.026.029-.009v-.014zm.01-.006l-.003-.004-.007.01.01.003z"/><path fill="#FFF" d="M114.057 14.194v.028l.003.001.017-.024-.007-.01z"/><path fill="#FFF" d="M114.065 14.183l-.008-.003v.014l.013-.005z"/><path fill="#FFF" d="M114.057 14.18l.008.003-.008-.012zm0-.017l-.003.004.003.004zm.02.024l-.007.002.007.01.008-.01z"/><path fill="#FFF" d="M114.085 14.189l.004-.006-.012.004zm-.015 0l.007-.002-.012-.004z"/><path fill="#FFF" d="M114.065 14.183l.012.004.012-.004.01-.013v-.007l-.009-.013-.013-.004-.011.003-.009.014v.008zm1.639-.423l-.092.28h.049zm.09.28l-.09-.28.042.28z"/><path fill="#FFF" d="M115.682 14.04h.064l-.042-.28-.043.28zm.407 0h-.295l.014.047z"/><path fill="#FFF" d="M115.754 14.096l.054-.009-.014-.047h-.048zm-.026.004l.005-.006.002.005.019-.003-.008-.056h-.025v.061zm.121.112l.24-.172-.254.127z"/><path fill="#FFF" d="M115.815 14.108l.02.059.254-.127-.281.047z"/><path fill="#FFF" d="M115.765 14.115l-.007.008.001.004.056-.019-.007-.021-.054.009.003.017zm-.042-.007l.005-.008-.007.001v.006z"/><path fill="#FFF" d="M115.741 14.111l.016.002-.003-.017-.019.003zm.018.016l-.001-.004-.003.005zm-.19.04l-.252-.127.238.172zm.196-.052l-.008-.002.001.01z"/><path fill="#FFF" d="M115.755 14.128l.003-.005-.001-.01-.016-.002.01.019zm-.034-.021v.003l.002-.002zm-.109-.067h-.295l.28.047zm.04.056l.009-.056h-.049l-.015.047z"/><path fill="#FFF" d="M115.672 14.094l.004.006.006.001v-.061h-.021l-.009.056.018.003zm.03.01l.019-.003v-.061h-.039v.061zm.019-.003l-.019.003.019.003zm-.132.007l.008-.021-.28-.047.252.127z"/><path fill="#FFF" d="M115.648 14.125l-.008-.01.01-.002.002-.017-.055-.009-.008.021.058.019z"/><path fill="#FFF" d="M115.648 14.125l-.001.002.002.001zm.015-.014l.007-.012-.018-.003-.002.017zm.019-.003v-.007l-.006-.001.006.008zm.02-.004l-.02-.003v.007zm-.062.011l.008.01.002-.012zm.042-.007z"/><path fill="#FFF" d="M115.654 14.129l.009-.018-.013.002-.002.012.001.003zm.028-.021l.02.027.019-.025v-.003l-.019-.003-.02.004zm.259.385l-.092-.281-.04.029z"/><path fill="#FFF" d="M115.784 14.192l.025.049.04-.029-.014-.045zm-.015-.028l.002.004.012.004-.006.007.007.013.051-.025-.02-.059.012.037z"/><path fill="#FFF" d="M115.763 14.153l.006.011.058-.019-.012-.037-.056.019zm-.011-.021l.011.021-.004-.026-.004.001zm.003-.004l-.004.002.001.002zm-.052.193l.238.172-.198-.2zm.03-.227l-.005.006.007-.001z"/><path fill="#FFF" d="M115.741 14.111l-.006-.012-.007.001-.005.008z"/><path fill="#FFF" d="M115.721 14.11v.03l.03-.01-.01-.019-.018-.003zm0 .03v-.03l-.019.025.007.009zm.071.114l.001.003-.05.036.198.2-.132-.252z"/><path fill="#FFF" d="M115.771 14.209l-.013-.004-.002.001.036.048.017-.013-.025-.049-.014.007z"/><path fill="#FFF" d="M115.771 14.209l-.001-.01-.012.006zm-.003-.022l.002.012.014-.007-.007-.013zm-.004-.024h.006v.004h-.006zm-.008.043l.002-.001-.004-.002z"/><path fill="#FFF" d="M115.754 14.203l.004.002.012-.006-.002-.012-.015.016zm.011-.037h-.001.001zm.004-.002l-.006-.011.002.013zm-.035-.008l.03.01h.001l-.002-.013-.011-.021zm0 0l.018-.024-.001-.002-.03.01v.011zm-.021-.007l.008.002v-.011l-.012.004zm-.251.344l.241-.172-.04-.028zm.21-.399l-.002.005.006.001zm.004.006l-.006-.001-.007.012.019-.003z"/><path fill="#FFF" d="M115.682 14.139v-.031l-.019.003-.009.018zm.02-.004l-.02-.027v.031l.014.004zm.001.117l-.04.041.04.028.04-.028z"/><path fill="#FFF" d="M115.703 14.146l.006-.002-.007-.009-.006.008zm.022.084l-.004.005v.008l-.006-.003-.012.012.04.041.05-.036-.001-.003-.032.023z"/><path fill="#FFF" d="M115.743 14.213l-.018.017.035.047.032-.023-.036-.048z"/><path fill="#FFF" d="M115.752 14.203l-.009.01.013-.007-.002-.003zm.002 0h-.002zm-.033.04v-.008l-.006.005zm-.012-.099l-.006.002.01.003zm-.154.068l-.093.281.133-.252zm.065-.019l-.051-.026-.014.045.04.029zm.009-.017l-.004-.004.007-.003.003-.005-.058-.019.012-.037-.02.059.051.026z"/><path fill="#FFF" d="M115.635 14.164l.009-.017.003-.02-.058-.019-.012.037z"/><path fill="#FFF" d="M115.649 14.128l-.002-.001-.003.02.008-.015z"/><path fill="#FFF" d="M115.649 14.128l.003.004.002-.003zm.134.044l-.012-.004.006.011zm-.158 0l.004.004.003-.007z"/><path fill="#FFF" d="M115.768 14.187l.009-.008-.006-.011-.006-.002zm-.004-.021l-.031.01.02.027.015-.016-.003-.021z"/><path fill="#FFF" d="M115.733 14.176l.031-.01-.03-.01-.008.011zm-.012-.016l.005.007.008-.011-.013-.005z"/><path fill="#FFF" d="M115.721 14.151l-.008-.002.008.011zm-.108.106l.001-.002-.019-.014-.133.252.201-.2z"/><path fill="#FFF" d="M115.646 14.205l-.011.004.001-.009-.016-.007-.025.048.019.014.035-.048z"/><path fill="#FFF" d="M115.635 14.209l.011-.004-.01-.005zm.003-.023l-.009-.01-.009.017.016.007zm.008.019l.003.002.003-.003zm-.012-.04h.006v.006h-.006z"/><path fill="#FFF" d="M115.644 14.147l-.009.017.006.002zm.009.055l-.015-.016-.002.014.01.005.006-.001zm-.012-.036v.001l.001-.001z"/><path fill="#FFF" d="M115.642 14.166l.029-.009-.019-.025-.008.015-.003.019zm.04-.027l-.028-.01-.002.003.019.025.011-.004zm.01.01l.004-.006-.014-.004v.014zm-.051.018l-.009.002-.003.007.009.01z"/><path fill="#FFF" d="M115.672 14.176l-.03-.01-.001.001-.003.019.015.016z"/><path fill="#FFF" d="M115.678 14.167l-.007-.01-.029.009.03.01zm.004-.004v-.01l-.011.004.007.01zm0-.01v.01l.01-.014zm0 .09v-.012l-.002-.002-.035.048-.031-.022-.001.002.05.036.04-.041-.013-.013z"/><path fill="#FFF" d="M115.682 14.243l.008-.004-.008-.008zm-.002-.014l-.012-.012-.019-.01-.035.048.031.022z"/><path fill="#FFF" d="M115.652 14.204l-.003.003.019.01-.013-.014z"/><path fill="#FFF" d="M115.652 14.204l.003-.001-.002-.001zm.044-.061l-.004.006.011-.003zm-.016.086l.002.002v-.004zm.041.006l.004-.005-.004-.006zm-.019-.002l-.012.006.013.013.012-.012zm-.02-.006v.004l.008.008.012-.006-.018-.009zm.039-.003l.004.006.018-.017-.022.011z"/><path fill="#FFF" d="M115.721 14.193v.031l.022-.011.009-.01zm0 0l.031.01h.001l-.02-.027-.012.005zm0-.019v.007l.012-.005-.007-.009zm-.039.05l-.014-.007.012.012.002-.002zm0 .003l.002-.003h-.002z"/><path fill="#FFF" d="M115.726 14.167l-.005-.007v.014zm-.006.057l-.018.009.013.007.006-.005v-.011z"/><path fill="#FFF" d="M115.702 14.199l-.018.025.018.009.018-.009zm.019.025h-.001z"/><path fill="#FFF" d="M115.702 14.199l.018.025h.001v-.031l-.011-.004z"/><path fill="#FFF" d="M115.714 14.183l-.004.006.011.004v-.012z"/><path fill="#FFF" d="M115.721 14.181v-.007l-.007.009zm-.039.012l-.027.01.013.014.014.007zm-.01-.017l-.019.026.002.001.027-.01v-.013zm.01-.004l-.004-.005-.006.009.01.004zm0 .021v.031h.002l.018-.025-.007-.01zm.007-.011l-.007-.002v.013l.013-.004zm-.007-.002l.007.002-.007-.01z"/><path fill="#FFF" d="M115.682 14.163l-.004.004.004.005zm.021.024l-.008.002.007.01.008-.01z"/><path fill="#FFF" d="M115.71 14.189l.004-.006-.011.004zm-.015 0l.008-.002-.014-.005z"/><path fill="#FFF" d="M115.689 14.182l.014.005.011-.004.007-.009v-.014l-.008-.011-.01-.003-.011.003-.01.014v.009zm1.642-.422l-.093.28h.048zm.091.28l-.091-.28.04.28z"/><path fill="#FFF" d="M117.31 14.04h.061l-.04-.28-.045.28zm.406 0h-.294l.015.047z"/><path fill="#FFF" d="M117.379 14.096l.058-.009-.015-.047h-.051zm-.028.005l.005-.007.003.005.02-.003-.008-.056h-.023v.061zm.124.112l.241-.173-.256.128z"/><path fill="#FFF" d="M117.456 14.145l-.003.001.007.022.256-.128-.279.047z"/><path fill="#FFF" d="M117.391 14.115l-.008.011v.001l.057-.019.013.038.003-.001-.019-.058-.058.009.002.017zm-.04-.014h-.003v.005z"/><path fill="#FFF" d="M117.364 14.11l.017.003-.002-.017-.02.003zm.019.017v-.001l-.001.001zm-.187.041l-.254-.128.239.173zm.195-.053l-.01-.002.002.013z"/><path fill="#FFF" d="M117.382 14.127l.001-.001-.002-.013-.017-.003.011.02zm-.144-.087h-.296l.281.047zm.04.056l.008-.056h-.048l-.015.047z"/><path fill="#FFF" d="M117.3 14.094l.004.006.006.001v-.061h-.024l-.008.056.02.003zm.029.01l.019-.003v-.061h-.038v.061z"/><path fill="#FFF" d="M117.348 14.106v-.005l-.019.003.018.003zm-.132.002l.007-.021-.281-.047.254.128z"/><path fill="#FFF" d="M117.273 14.124l-.007-.009.009-.002.003-.017-.055-.009-.007.021.057.019z"/><path fill="#FFF" d="M117.273 14.124v.003l.003.001zm.037-.017v-.006l-.006-.001.006.007zm-.018.004l.006-.012-.02-.003-.003.017z"/><path fill="#FFF" d="M117.329 14.104l-.019-.003v.006zm-.063.011l.007.009.002-.011zm.044-.008v.001-.001zm-.028.023l.01-.019-.017.002-.002.011.003.004zm.028-.022l.018.025.019-.026-.018-.003-.019.003zm.257.385l-.092-.28-.041.029z"/><path fill="#FFF" d="M117.409 14.194l.025.048.041-.029-.015-.045z"/><path fill="#FFF" d="M117.394 14.167l.016.005-.008.009.007.013.051-.026-.007-.022-.059.019zm-.011-.04l.004.025.007.013.059-.019-.013-.038zm-.006.007l.01.018-.004-.025h-.001zm.005-.007l-.007.003.002.004zm-.053.194l.238.172-.199-.2zm.027-.227l-.005.007.008-.002zm-.008.013l.016.003-.005-.011-.008.002-.003.005zm0 .032l.027-.009-.011-.02-.016-.003zm0-.033l-.001.001h.001zm0 .033v-.032h-.001l-.019.026.008.01zm.069.116l.001.002-.05.036.199.2-.133-.251zm-.022-.046l-.01-.003-.003.001.035.048.017-.013-.025-.048-.015.007z"/><path fill="#FFF" d="M117.395 14.209l-.001-.008-.009.005zm-.001-.042v-.002l-.002.001z"/><path fill="#FFF" d="M117.382 14.207l.003-.001-.004-.002zm.01-.017l.002.011.015-.007-.007-.013z"/><path fill="#FFF" d="M117.381 14.204l.004.002.009-.005-.002-.011-.013.013zm.011-.038l.002-.001-.007-.013.001.013z"/><path fill="#FFF" d="M117.36 14.156l.028.009-.001-.013-.01-.018z"/><path fill="#FFF" d="M117.36 14.156l.017-.022-.002-.004-.027.009v.013zm-.02-.007l.008.003v-.013l-.012.004zm-.249.344l.238-.172-.039-.028zm.209-.399l-.002.005.006.001zm.004.006l-.006-.001-.006.012.018-.004z"/><path fill="#FFF" d="M117.31 14.139v-.032l-.018.004-.01.019zm.018-.006l-.018-.025v.031l.011.004zm.001.121l-.039.039.039.028.039-.028z"/><path fill="#FFF" d="M117.329 14.145l.007-.002-.008-.01-.007.01zm.023.085l-.004.005v.008l-.006-.003-.013.014.039.039.05-.036-.001-.002-.031.022z"/><path fill="#FFF" d="M117.368 14.214l-.016.016.034.047.031-.022-.035-.048zm.01-.01l-.01.01.014-.007-.001-.003zm.003 0l-.002-.001-.001.001zm-.033.039v-.008l-.006.005zm-.012-.1l-.007.002.011.004zm-.155.07l-.09.28.131-.25zm.067-.02l-.052-.025-.015.045.041.03zm.007-.013l-.007-.008.014-.005.001-.002-.059-.02.012-.037-.02.06.052.025z"/><path fill="#FFF" d="M117.263 14.165l.005-.01.005-.028-.057-.019-.012.037zm.013-.037l-.003-.001-.005.028.012-.022z"/><path fill="#FFF" d="M117.276 14.128l.004.005.002-.003zm.134.044l-.016-.005.008.014zm-.162 0l.007.008.007-.013z"/><path fill="#FFF" d="M117.389 14.167l.003.023.01-.009-.008-.014-.002-.001z"/><path fill="#FFF" d="M117.36 14.176l.019.027.013-.013-.003-.023zm.032-.01l-.004-.001.001.002z"/><path fill="#FFF" d="M117.36 14.176l.029-.009-.001-.002-.028-.009-.007.01z"/><path fill="#FFF" d="M117.348 14.159l.005.007.007-.01-.012-.004zm0-.007l-.008-.003.008.01zm-.109.105l.001-.001-.018-.013-.131.25.199-.2zm.033-.052l-.012.004.001-.009-.013-.007-.026.05.018.013.035-.049z"/><path fill="#FFF" d="M117.26 14.209l.012-.004-.011-.005z"/><path fill="#FFF" d="M117.263 14.188l-.008-.008-.007.013.013.007zm.009.017l.003.002.003-.004zm-.009-.04l-.001.002.004-.001z"/><path fill="#FFF" d="M117.267 14.166l.001-.011-.005.01.003.001zm.011.037l-.015-.015-.002.012.011.005.006-.002z"/><path fill="#FFF" d="M117.297 14.156l-.017-.023-.012.022-.001.011zm.013-.017l-.028-.009-.002.003.017.023.013-.005zm.006.01l.005-.006-.011-.004v.012zm-.05.017l-.004.001-.007.013.008.008zm0 0h.001z"/><path fill="#FFF" d="M117.297 14.176l-.031-.01-.003.022.015.015z"/><path fill="#FFF" d="M117.304 14.166l-.007-.01-.03.01h-.001l.031.01z"/><path fill="#FFF" d="M117.31 14.158v-.007l-.013.005.007.01zm0-.007v.007l.006-.009zm0 .092v-.008l-.005-.005-.035.047-.03-.021-.001.001.051.036.039-.039-.013-.014z"/><path fill="#FFF" d="M117.31 14.243l.006-.003-.006-.005zm-.005-.013l-.016-.016-.014-.007-.035.049.03.021zm-.027-.027l-.003.004.014.007-.011-.011zm0 0zm.043-.06l-.005.006.013-.004z"/><path fill="#FFF" d="M117.329 14.234l-.013.006.013.014.013-.014zm.018-.012h.006v.01h-.006zm-.041.004h.007v.007h-.007zm.042-.002z"/><path fill="#FFF" d="M117.31 14.235l.006.005.013-.006-.019-.01zm.042-.005l.016-.016-.02.01zm-.004-.037v.031l.02-.01.01-.01zm0 0l.03.011.001-.001-.019-.027-.012.005zm0-.02v.008l.012-.005-.007-.01zm-.059.041l.016.016.005-.006z"/><path fill="#FFF" d="M117.353 14.166l-.005-.007v.014zm-.043.058v-.001.001zm.019.01l.013.006.006-.005v-.011z"/><path fill="#FFF" d="M117.348 14.224l-.02-.025-.018.024v.001l.019.01.019-.01z"/><path fill="#FFF" d="M117.328 14.199l.02.025v-.031l-.012-.004z"/><path fill="#FFF" d="M117.34 14.183l-.004.006.012.004v-.012z"/><path fill="#FFF" d="M117.348 14.181v-.008l-.008.01zm-.038.042v-.03l-.032.01.011.011.021.01zm-.013-.047l-.019.027.032-.01v-.012zm.013-.002l-.006-.008-.007.01.013.005zm0 .019v.03l.018-.024-.007-.01zm.007-.01l-.007-.002v.012l.011-.004z"/><path fill="#FFF" d="M117.31 14.181l.007.002-.007-.009zm0-.023l-.006.008.006.008zm.018.029l-.007.002.007.01.008-.01z"/><path fill="#FFF" d="M117.336 14.189l.004-.006-.012.004zm-.015 0l.007-.002-.011-.004z"/><path fill="#FFF" d="M117.317 14.183l.011.004.012-.004.008-.01v-.014l-.008-.01-.011-.004-.013.004-.006.009v.016zm-6.532 1.486l.016-.107-.038.023-.027.084h.049zm.042-.284l-.064.2.038-.023.026-.177zm.043.284h.049l-.052-.161c-.006.005-.012.011-.019.015l.022.146zm-.022-.146l.019-.015-.039-.122.02.137z"/><path fill="#FFF" d="M110.785 15.669h.085l-.022-.146c-.016.012-.03.027-.047.039l-.016.107z"/><path fill="#FFF" d="M110.848 15.523l-.02-.138-.027.177c.017-.012.03-.027.047-.039zm.364.146h-.293l.014.044z"/><path fill="#FFF" d="M110.878 15.722l.055-.009-.014-.044h-.049z"/><path fill="#FFF" d="M110.846 15.727l.004-.001.008-.01.004.008.016-.002-.008-.053h-.024zm.128.113l.238-.171-.253.124z"/><path fill="#FFF" d="M110.94 15.736l.019.057.253-.124-.279.044z"/><path fill="#FFF" d="M110.89 15.74l-.008.01.001.004.057-.018-.007-.023-.055.009.002.016zm-.04-.014l-.004.001v.006z"/><path fill="#FFF" d="M110.878 15.751h.005v.004h-.005zm-.01-.015l.012.002-.002-.016-.016.002zm-.34-.024c-.006.002-.01.006-.016.009l.167.119.015-.047-.166-.081z"/><path fill="#FFF" d="M110.439 15.669l.073.052c.006-.002.01-.006.016-.009l-.089-.043zm.451.071l-.01-.002.002.012z"/><path fill="#FFF" d="M110.882 15.75l-.002-.012-.012-.002.01.02zm-.16-.037l.014-.045h-.128l-.038.021.152.024z"/><path fill="#FFF" d="M110.608 15.669h-.169l.131.021c.013-.007.025-.015.038-.021zm.177 0h-.049l-.014.044.055.009zm.006.055l.004-.008.007.01h.003v-.057h-.02l-.008.053zm.036.006l.019-.003v-.058h-.041v.057z"/><path fill="#FFF" d="M110.846 15.733v-.006l-.019.003zm-.132.004l.008-.024-.152-.024c-.014.007-.027.016-.042.023l.166.081.019-.057.001.001z"/><path fill="#FFF" d="M110.57 15.689l-.131-.021.089.044c.015-.006.027-.016.042-.023zm.202.066v-.005l-.007-.01.009-.002.003-.016-.055-.009-.008.024zm.033-.029h-.003l.003.004z"/><path fill="#FFF" d="M110.771 15.753h.005v.005h-.005zm.02-.029l-.014-.002-.003.016.011-.001zm.016.009l.02-.003-.022-.004v.004zm-.042.007l.007.01.002-.012z"/><path fill="#FFF" d="M110.785 15.737l-.011.001-.002.012.003.005zm.041.023l.02-.027-.019-.003-.02.003zm.239.361l-.091-.281-.039.028z"/><path fill="#FFF" d="M110.909 15.817l.026.051.039-.028-.015-.047zm-.013-.026l.002.004.007.002-.004.004.008.016.05-.024-.019-.057.012.037z"/><path fill="#FFF" d="M110.885 15.769l.011.022.056-.018-.012-.037-.057.018z"/><path fill="#FFF" d="M110.885 15.769l-.002-.015-.005.002zm-.058.18l.238.172-.198-.201zm.031-.233l-.008.01.012-.002zm-.012.017l.022.003-.006-.012-.012.002-.004.007zm.032.023zm-.032.01l.032-.01-.01-.02-.022-.003zm0-.033z"/><path fill="#FFF" d="M110.834 15.77l.012-.004v-.033l-.02.027zm.081.112l.002.003-.05.035.198.201-.13-.253zm-.02-.048l-.013-.004-.003.002.036.05.02-.014-.026-.051-.016.008z"/><path fill="#FFF" d="M110.895 15.834l-.002-.009-.011.005zm-.016-.002l.003-.002-.006-.002zm.019-.037l-.002-.004-.005.002zm-.007.016l.002.014.016-.008-.008-.016z"/><path fill="#FFF" d="M110.876 15.828l.006.002.011-.005-.002-.014-.016.016zm.015-.035l.005-.002-.011-.022.004.023zm-.013-.037l-.019.027.03.009-.004-.023-.007-.013z"/><path fill="#FFF" d="M110.859 15.783l.019-.027-.032.01v.012zm-.021-.007l.008.002v-.012l-.012.004zm-.251.345l.24-.172-.042-.03zm.208-.405l-.004.008.011.002zm-.02.039v.001l.002.001z"/><path fill="#FFF" d="M110.805 15.733v-.003l-.003-.004-.011-.002-.006.013zm0-.003v.003h.002z"/><path fill="#FFF" d="M110.805 15.766v-.033l-.02.004-.01.018.002.002zm.014.004l.007-.01-.019-.027h-.002v.033zm.007.108l-.041.041.042.03.04-.029z"/><path fill="#FFF" d="M110.826 15.772l.008-.002-.008-.01-.007.01zm.022.084l-.002.001v.011l-.007-.003-.013.013.041.042.05-.035-.002-.003-.032.023z"/><path fill="#FFF" d="M110.863 15.84l-.015.016.035.049.032-.023-.036-.05z"/><path fill="#FFF" d="M110.875 15.828l-.012.012.016-.008-.003-.004zm.001 0l-.001-.001v.001zm-.03.04v-.011l-.007.008zm-.008-.092l-.004-.006-.008.002zm-.159.064l-.092.281.13-.253z"/><path fill="#FFF" d="M110.743 15.818l-.049-.024-.015.046.038.028z"/><path fill="#FFF" d="M110.746 15.797l.009-.003.002-.003-.055-.018.012-.036-.002-.001-.018.058.049.024.008-.016z"/><path fill="#FFF" d="M110.772 15.755l-.058-.018-.012.036.055.018.013-.026z"/><path fill="#FFF" d="M110.775 15.756l-.003-.001-.002.01zm.13.041l-.007-.002.003.006zm-.159 0l.005.005.004-.008z"/><path fill="#FFF" d="M110.889 15.793l.002.018.01-.01-.003-.006-.007-.002z"/><path fill="#FFF" d="M110.858 15.803l.017.024.016-.016-.002-.018zm.033-.01l-.002-.001v.001z"/><path fill="#FFF" d="M110.858 15.803l.031-.01v-.001l-.03-.009-.008.01zm-.012-.017l.005.007.008-.01-.013-.005z"/><path fill="#FFF" d="M110.846 15.778l-.008-.002.008.01zm-.108.107l.001-.002-.022-.015-.13.253.198-.202z"/><path fill="#FFF" d="M110.77 15.831l-.01.003.001-.008-.018-.008-.026.05.022.015.036-.05z"/><path fill="#FFF" d="M110.76 15.834l.01-.003-.009-.005zm.012-.005h.007v.005h-.007zm-.009-.015l-.012-.012-.008.016.018.008zm-.006-.023l-.002.003.007-.002z"/><path fill="#FFF" d="M110.766 15.791l.004-.026-.013.026.005.001zm-.003.023l-.002.012.009.005.007-.002z"/><path fill="#FFF" d="M110.777 15.757l-.002-.001-.005.009-.004.026.029-.009z"/><path fill="#FFF" d="M110.805 15.766l-.028-.009.018.025.01-.003zm.011.009l.003-.005-.014-.004v.013zm-.054.017l-.007.002-.004.008.012.012.003-.021zm.015.037h.001-.001zm-.015-.037l.004.001v-.002zm.016.037l.018-.026-.03-.01-.003.021.014.015z"/><path fill="#FFF" d="M110.795 15.782l-.029.009v.002l.03.01.007-.01z"/><path fill="#FFF" d="M110.805 15.779l-.01.003.008.011.002-.003zm0 .011l.011-.015-.011.004zm0 .078v-.011l-.035.048-.031-.022-.001.002.047.034.041-.041-.014-.013z"/><path fill="#FFF" d="M110.805 15.868l.007-.003-.007-.008zm0-.011l-.017-.017-.013-.007-.036.05.031.022zm-.03-.024l.013.007-.011-.011zm.051-.061l-.007-.002-.003.005zm-.021.085v-.001zm.041 0l.002-.001-.002-.003zm-.02.001l-.014.007.014.013.013-.013zm-.021-.002v.001l.007.008.014-.007-.017-.008zm.041-.003l.002.003.015-.016-.017.008z"/><path fill="#FFF" d="M110.846 15.819v.029l.017-.008.012-.012z"/><path fill="#FFF" d="M110.846 15.819l.029.009v-.001l-.017-.024-.012.004zm0-.019v.007l.012-.004-.007-.01zm-.041.048l-.017-.008.017.017v-.001zm0 .008l.004-.006-.004-.002zm.046-.063l-.005-.007v.014zm-.008.057l-.017.008.013.007.007-.008v-.004z"/><path fill="#FFF" d="M110.827 15.827l-.018.023.017.008.017-.008zm.019.026v-.005l-.003.002z"/><path fill="#FFF" d="M110.827 15.827l.016.023.003-.002v-.029l-.011-.004z"/><path fill="#FFF" d="M110.839 15.809l-.004.006.011.004v-.012z"/><path fill="#FFF" d="M110.846 15.807V15.8l-.007.009zm-.041.013l-.027.009h-.001l.011.011.017.008z"/><path fill="#FFF" d="M110.796 15.803l-.018.026.027-.009v-.014z"/><path fill="#FFF" d="M110.805 15.797l-.002-.004-.007.01.009.003zm0 .023v.028l.004.002.018-.023-.008-.011zm.009-.011l-.009-.003v.014l.014-.004z"/><path fill="#FFF" d="M110.805 15.806l.009.003-.009-.012zm-.002-.013l.002.004v-.007zm.024.02l-.008.003.008.011.008-.012zm.008.002l.004-.006-.012.004z"/><path fill="#FFF" d="M110.819 15.816l.008-.003-.013-.004zm-.003-.041l-.011.015v.007l.009.012.013.004.012-.004.007-.009v-.014l-.008-.01-.012-.004zm1.636-.39l-.092.284h.049zm.092.284l-.092-.284.042.284z"/><path fill="#FFF" d="M112.432 15.669h.062l-.042-.284-.043.284zm.405 0h-.293l.014.044z"/><path fill="#FFF" d="M112.502 15.722l.056-.009-.014-.044h-.05z"/><path fill="#FFF" d="M112.474 15.726l.007-.01.004.009.017-.003-.008-.053h-.022v.058zm.125.115l.238-.172-.253.124z"/><path fill="#FFF" d="M112.565 15.736l.019.057.253-.124-.279.044zm-.052.004l-.007.01v.005l.059-.019-.007-.023-.056.009.002.016z"/><path fill="#FFF" d="M112.501 15.751h.005v.005h-.005zm-.027-.025l-.002.001v.001zm.017.01l.013.002-.002-.016-.017.003zm-.172.057l-.254-.124.239.171zm.194-.053l-.009-.002.002.012z"/><path fill="#FFF" d="M112.506 15.75l-.002-.012-.013-.002.01.02zm-.146-.081h-.295l.28.044z"/><path fill="#FFF" d="M112.402 15.722l.007-.053h-.049l-.015.044z"/><path fill="#FFF" d="M112.422 15.716l.007.01.003.001v-.058h-.023l-.007.053.015.003z"/><path fill="#FFF" d="M112.452 15.73l.02-.003v-.058h-.04v.058z"/><path fill="#FFF" d="M112.472 15.728v-.001l-.02.003.017.003zm-.135.008h.001l.007-.023-.28-.044.254.124z"/><path fill="#FFF" d="M112.397 15.75l-.007-.01.009-.002.003-.016-.057-.009-.007.023.059.019z"/><path fill="#FFF" d="M112.397 15.752h.005v.007h-.005zm.014-.016l.006-.011-.015-.003-.003.016zm.021-.009l-.003-.001.003.004zm.002.006l.018-.003-.02-.003v.003zm-.044.007l.007.01.002-.012z"/><path fill="#FFF" d="M112.411 15.736l-.012.002-.002.012.004.006zm.041.022l.017-.025-.017-.003-.018.003zm.237.363l-.09-.28-.04.028z"/><path fill="#FFF" d="M112.533 15.818l.026.051.04-.028-.015-.048z"/><path fill="#FFF" d="M112.52 15.792l.001.002.011.003-.006.006.007.015.051-.025-.019-.057.012.037z"/><path fill="#FFF" d="M112.509 15.77l.011.022.057-.019-.012-.037-.059.019z"/><path fill="#FFF" d="M112.509 15.77l-.003-.015-.004.001zm-.057.18l.237.171-.197-.201zm.029-.234l-.007.01.011-.001zm-.009.017l.019.003-.006-.011-.011.001-.002.002z"/><path fill="#FFF" d="M112.501 15.756v.001l.001-.001zm-.029.01l.029-.009v-.001l-.01-.02-.019-.003zm0-.038l-.003.005h.003zm0 .038v-.033h-.003l-.017.025.008.012zm.068.117l.002.002-.05.035.197.201-.13-.252zm-.022-.049l-.011-.003-.003.001.036.051.019-.014-.026-.051-.016.008z"/><path fill="#FFF" d="M112.518 15.834l-.001-.008-.01.005z"/><path fill="#FFF" d="M112.504 15.832l.003-.001-.005-.002zm.011-.018l.002.012.016-.008-.007-.015zm.006-.02l-.001-.002-.003.001z"/><path fill="#FFF" d="M112.502 15.829l.005.002.01-.005-.002-.012-.014.014zm.015-.036l.003-.001-.011-.022.003.021z"/><path fill="#FFF" d="M112.501 15.757l-.018.025.029.009-.003-.021-.007-.014z"/><path fill="#FFF" d="M112.483 15.782l.018-.025-.029.009v.013zm-.019-.006l.008.003v-.013l-.012.004zm-.252.345l.24-.171-.041-.03zm.21-.405l-.005.009.012.001zm-.021.04l.001.001-.001-.001zm.031-.026l-.003-.004-.012-.001-.006.011.021-.003zm0 0v.003h.002z"/><path fill="#FFF" d="M112.402 15.757l.03.009v-.033l-.021.003-.01.02zm.05.001l-.018-.025h-.002v.033l.011.004zm0 .12l-.041.042.041.03.04-.03zm0-.106l.008-.002-.008-.012-.009.012zm.022.084l-.002.001v.011l-.007-.003-.013.013.04.042.05-.035-.002-.002-.03.022z"/><path fill="#FFF" d="M112.49 15.84l-.016.016.036.049.03-.022-.036-.051z"/><path fill="#FFF" d="M112.501 15.829l-.011.011.014-.008-.002-.003zm.001 0l-.001-.001v.001zm-.03.039v-.011l-.007.008zm-.012-.098l-.008.002.012.004zm-.156.07l-.092.281.131-.253z"/><path fill="#FFF" d="M112.369 15.818l-.05-.025-.015.047.039.028z"/><path fill="#FFF" d="M112.377 15.802l-.004-.005.008-.002.002-.003-.058-.019.013-.037h-.001l-.018.057.05.025z"/><path fill="#FFF" d="M112.383 15.792l.011-.023.003-.014-.059-.019-.013.037zm.014-.037l-.003.014.007-.013zm.135.042l-.011-.003.005.009zm-.159 0l.004.005.004-.007zm.139-.003l.003.02.011-.011-.005-.009-.004-.001zm-.028.009l.017.025.014-.014-.003-.02zm.033-.01l-.005-.002v.003z"/><path fill="#FFF" d="M112.484 15.803l.028-.009v-.003l-.029-.009-.007.01z"/><path fill="#FFF" d="M112.472 15.787l.004.005.007-.01-.011-.003zm0-.008l-.008-.003.008.011zm-.109.106l.001-.002-.021-.015-.131.253.199-.201zm.033-.054l-.011.003.001-.008-.017-.008-.026.05.021.015.036-.051z"/><path fill="#FFF" d="M112.385 15.834l.011-.003-.01-.005zm.011-.003l.004.001.002-.003zm-.008-.018l-.011-.011-.008.016.017.008zm-.005-.021l-.002.003.006-.002zm.008-.001l.003-.022-.011.023.004.001z"/><path fill="#FFF" d="M112.403 15.828l-.015-.015-.002.013.01.005.006-.002zm.017-.046l-.018-.025-.001-.001-.007.013-.003.022z"/><path fill="#FFF" d="M112.432 15.766l-.03-.009.018.025.012-.004zm.007.01l.004-.006-.011-.004v.012zm-.048.018l-.004-.001-.006.002-.004.007.011.011zm-.004-.001l.004.001v-.003zm.033.01l-.029-.009-.003.019.015.015z"/><path fill="#FFF" d="M112.428 15.792l-.008-.01-.029.009v.003l.029.009z"/><path fill="#FFF" d="M112.432 15.786v-.008l-.012.004.008.01zm0-.008v.008l.007-.01zm0 .09v-.01l-.002-.002-.035.049-.031-.022-.001.002.048.035.041-.042-.013-.013z"/><path fill="#FFF" d="M112.432 15.868l.007-.003-.007-.007zm-.002-.012l-.016-.017-.014-.007-.036.051.031.022z"/><path fill="#FFF" d="M112.402 15.829l-.002.003.014.007-.011-.011zm0 0l.001-.001zm.041-.059l-.004.006.013-.004zm-.013.086l.002.002v-.005zm.042.001l.002-.001-.002-.002zm-.02.001l-.013.007.013.013.013-.013z"/><path fill="#FFF" d="M112.432 15.853v.005l.007.007.013-.007-.018-.008zm.04.001l.002.002.016-.016-.018.008zm0-.034v.028l.018-.008.011-.011zm0 0l.029.009v-.001l-.017-.025-.012.004z"/><path fill="#FFF" d="M112.472 15.797v.01l.012-.004-.008-.011zm-.04.051l-.018-.009.016.017.002-.003zm0 .005l.002-.003-.002-.002zm.044-.061l-.004-.005v.01zm-.007.058l-.017.008.013.007.007-.008v-.003z"/><path fill="#FFF" d="M112.452 15.825l-.018.025.018.008.017-.008zm.02.029v-.006l-.003.002z"/><path fill="#FFF" d="M112.452 15.825l.017.025.003-.002v-.028l-.013-.004z"/><path fill="#FFF" d="M112.463 15.809l-.004.007.013.004v-.013z"/><path fill="#FFF" d="M112.472 15.807v-.01l-.009.012zm-.04.012l-.029.009.011.011.018.009z"/><path fill="#FFF" d="M112.42 15.803l-.017.025.029-.009v-.012zm.012-.005l-.004-.006-.008.011.012.004zm0 .021v.029l.002.002.018-.025-.007-.01z"/><path fill="#FFF" d="M112.441 15.81l-.009-.003v.012l.013-.004z"/><path fill="#FFF" d="M112.432 15.807l.009.003-.009-.012zm0-.021l-.004.006.004.006zm.02.027l-.007.002.007.01.007-.009zm.007.003l.004-.007-.011.004zm-.014-.001l.007-.002-.011-.003z"/><path fill="#FFF" d="M112.441 15.81l.011.003.011-.004.009-.012v-.01l-.008-.011-.012-.004-.013.004-.007.01v.012zm1.636-.425l-.091.284h.049zm.093.284l-.093-.284.043.284z"/><path fill="#FFF" d="M114.057 15.669h.063l-.043-.284-.042.284zm.409 0h-.296l.014.044z"/><path fill="#FFF" d="M114.128 15.722l.056-.009-.014-.044h-.05z"/><path fill="#FFF" d="M114.106 15.716l.004.009.018-.003-.008-.053h-.021v.057zm.119.124l.241-.171-.256.124z"/><path fill="#FFF" d="M114.192 15.736l.018.057.256-.124-.282.044z"/><path fill="#FFF" d="M114.14 15.74l-.008.01.001.005.059-.019-.008-.023-.056.009.002.016zm-.024-.004l.014.002-.002-.016-.018.003zm.017.019l-.001-.005-.004.007zm-.187.038l-.254-.124.238.171z"/><path fill="#FFF" d="M114.14 15.74l-.01-.002.002.012z"/><path fill="#FFF" d="M114.128 15.757l.004-.007-.002-.012-.014-.002.011.021zm-.142-.088h-.294l.28.044z"/><path fill="#FFF" d="M114.027 15.722l.008-.053h-.049l-.014.044zm.022-.006l.007.01.001.001v-.058h-.022l-.008.053.017.003z"/><path fill="#FFF" d="M114.078 15.73l.02-.003.001-.001v-.057h-.042v.058z"/><path fill="#FFF" d="M114.098 15.727l-.02.003.016.003zm-.134.009l.008-.023-.28-.044.254.124z"/><path fill="#FFF" d="M114.023 15.749l-.007-.009.008-.001.003-.017-.055-.009-.008.023.058.019z"/><path fill="#FFF" d="M114.038 15.736l.006-.011-.017-.003-.003.017zm-.01.02l-.005-.007-.001.006.005.001zm.029-.029l-.001-.001.001.002zm.003.006l.018-.003-.021-.003v.001zm-.044.007l.007.009.001-.01z"/><path fill="#FFF" d="M114.038 15.736l-.014.003-.001.01.005.007zm.04.021l.016-.024-.016-.003-.018.003zm.237.364l-.09-.281-.04.029z"/><path fill="#FFF" d="M114.159 15.818l.026.051.04-.029-.015-.047z"/><path fill="#FFF" d="M114.145 15.792l.001.002.01.003-.005.006.008.015.051-.025-.018-.057.012.037z"/><path fill="#FFF" d="M114.136 15.773l.009.019.059-.019-.012-.037-.059.019z"/><path fill="#FFF" d="M114.127 15.757l.009.016-.003-.018-.005.002zm.001 0h-.001zm-.05.192l.237.172-.196-.2zm.032-.224l-.004-.009-.007.01v.001zm-.011.008l.017.003-.006-.011-.011.002z"/><path fill="#FFF" d="M114.099 15.765l.028-.008-.011-.021-.017-.003zm0-.039l-.001.001h.001zm-.001.001h.001v.007h-.001z"/><path fill="#FFF" d="M114.099 15.765v-.032h-.005l-.016.024.008.012zm.067.117l.003.003-.05.036.196.2-.13-.252zm-.021-.048l-.012-.003-.002.001.035.05.019-.013-.026-.051-.016.008z"/><path fill="#FFF" d="M114.145 15.834l-.002-.008-.01.005zm.001-.04l-.001-.002-.003.001zm-.005.019l.002.013.016-.008-.008-.015zm-.01.019l.002-.001-.004-.002z"/><path fill="#FFF" d="M114.129 15.829l.004.002.01-.005-.002-.013-.014.014zm.013-.036l.003-.001-.009-.019.002.018zm-.033-.011l.029.009-.002-.018-.009-.016zm0 0l.018-.025-.028.008v.014zm-.017-.005l.007.002v-.014l-.013.004zm-.255.344l.241-.172-.042-.03zm.212-.405l-.005.009.012.001zm.008.012l-.001-.002-.012-.001-.006.011.019-.003zm-.03.028l.001.001v-.001zm.03-.028v.005h.003z"/><path fill="#FFF" d="M114.028 15.757l.029.009v-.033l-.019.003-.01.02zm.05 0l-.018-.024h-.003v.033l.012.004zm-.001.121l-.041.041.042.03.041-.028z"/><path fill="#FFF" d="M114.077 15.772l.009-.003-.008-.012-.009.013zm.022.085v.011l-.008-.004-.014.014.042.043.05-.036-.003-.003-.033.023z"/><path fill="#FFF" d="M114.114 15.84l-.015.016v.001l.034.048.033-.023-.035-.05zm.012-.012l-.012.012.017-.008-.002-.003z"/><path fill="#FFF" d="M114.129 15.829l-.002-.002-.001.001zm-.038.035l.008.004v-.011l-.001-.001zm.008-.007v-.001h-.001zm-.013-.088l-.009.003.015.005zm-.156.071l-.093.281.132-.252z"/><path fill="#FFF" d="M113.996 15.817l-.05-.024-.016.047.039.029zm.007-.014l-.005-.006.01-.003.001-.003-.057-.018.012-.037-.018.057.05.024z"/><path fill="#FFF" d="M114.009 15.791l.01-.018.003-.018-.058-.019-.012.037zm.013-.036l-.003.018.008-.017zm.134.042l-.01-.003.005.009zm-.158 0l.005.006.005-.009z"/><path fill="#FFF" d="M114.139 15.794l.002.019.01-.01-.005-.009-.004-.001z"/><path fill="#FFF" d="M114.11 15.803l.017.024.014-.014-.002-.019zm.032-.01l-.004-.002.001.003z"/><path fill="#FFF" d="M114.11 15.803l.029-.009-.001-.003-.029-.009-.007.01z"/><path fill="#FFF" d="M114.099 15.787l.003.005.007-.01-.01-.003zm0-.008l-.007-.002.007.01zm-.11.106l.001-.001-.021-.015-.132.252.199-.202zm.033-.055l-.012.004.001-.009-.015-.008-.027.052.021.015.036-.052z"/><path fill="#FFF" d="M114.01 15.834l.012-.004-.011-.005zm.003-.021l-.01-.01-.007.014.015.008zm-.004-.022l-.001.003.005-.001zm.013.039l.004.002.002-.004zm-.006-.039l.003-.018-.01.018.004.002z"/><path fill="#FFF" d="M114.028 15.828l-.015-.015-.002.012.011.005.006-.002zm.018-.046l-.018-.025-.001-.001-.008.017-.003.018z"/><path fill="#FFF" d="M114.057 15.766l-.029-.009.018.025.011-.003z"/><path fill="#FFF" d="M114.064 15.776l.005-.006-.012-.004v.013zm-.048.017h-.003l-.005.001-.005.009.01.01zm-.003 0h.003v-.002zm.033.01l-.03-.01-.003.02.015.015z"/><path fill="#FFF" d="M114.053 15.792l-.007-.01-.03.009v.002l.03.01zm.004-.005v-.008l-.011.003.007.01zm0-.008v.008l.007-.011zm0 .089v-.011l-.002-.001-.035.049-.03-.021-.001.001.047.034.041-.041-.013-.013z"/><path fill="#FFF" d="M114.057 15.868l.007-.003-.007-.008zm-.002-.012l-.017-.018-.012-.006-.036.052.03.021z"/><path fill="#FFF" d="M114.028 15.828l-.002.004.012.006-.01-.01zm0 0zm.041-.058l-.005.006.013-.004zm-.014.086l.002.001v-.003zm.023.002l-.014.007.013.013.014-.014zm-.021-.004v.003l.007.008.014-.007-.018-.009zm.042.002l.015-.016-.015.008z"/><path fill="#FFF" d="M114.099 15.82v.028l.015-.008.012-.012zm0 0l.027.008.001-.001-.017-.024-.011.003zm0-.024v.01l.011-.003-.008-.011zm-.042.051l-.019-.009.017.018.002-.002zm0 .007l.003-.005-.003-.002zm.045-.062l-.003-.005v.009zm-.008.058l-.016.008.013.006.007-.008z"/><path fill="#FFF" d="M114.077 15.826l-.017.023.018.009.016-.008zm.019.023h.001v.008h-.001z"/><path fill="#FFF" d="M114.077 15.826l.017.024.005-.002v-.028l-.014-.005z"/><path fill="#FFF" d="M114.089 15.809l-.004.006.014.005v-.014z"/><path fill="#FFF" d="M114.099 15.806v-.01l-.01.013zm-.042.013l-.029.009.01.01.019.009z"/><path fill="#FFF" d="M114.046 15.803l-.018.025.029-.009v-.013z"/><path fill="#FFF" d="M114.057 15.797l-.004-.005-.007.011.011.003zm0 .022v.028l.003.002.017-.023-.007-.011zm.008-.01l-.008-.003v.013l.013-.004z"/><path fill="#FFF" d="M114.057 15.806l.008.003-.008-.012zm0-.019l-.004.005.004.005zm.02.026l-.007.002.007.011.008-.011zm.008.002l.004-.006-.012.004zm-.015 0l.007-.002-.012-.004z"/><path fill="#FFF" d="M114.065 15.809l.012.004.012-.004.01-.013v-.009l-.007-.01-.015-.005-.013.004-.007.011v.01zm1.639-.424l-.093.284h.049zm.09.284l-.09-.284.043.284z"/><path fill="#FFF" d="M115.682 15.669h.065l-.043-.284-.044.284zm.407 0h-.295l.014.044z"/><path fill="#FFF" d="M115.755 15.722l.053-.009-.014-.044h-.047z"/><path fill="#FFF" d="M115.725 15.726l.008-.01.004.008.018-.002-.008-.053h-.026v.058zm.124.115l.24-.172-.255.125z"/><path fill="#FFF" d="M115.815 15.736l.019.058.255-.125-.281.044z"/><path fill="#FFF" d="M115.765 15.74l-.006.008v.006l.056-.018-.007-.023-.053.009.002.017zm-.022-.004l.014.003-.002-.017-.018.002zm-.018-.01l-.004.001v.006z"/><path fill="#FFF" d="M115.753 15.756l.006-.002v-.006l-.006.008zm-.183.038l-.253-.125.238.171z"/><path fill="#FFF" d="M115.765 15.74l-.008-.001.002.009z"/><path fill="#FFF" d="M115.759 15.748l-.002-.009-.014-.003.01.02zm-.148-.079h-.294l.28.044z"/><path fill="#FFF" d="M115.652 15.722l.008-.053h-.049l-.014.044z"/><path fill="#FFF" d="M115.672 15.716l.007.01.003.001v-.058h-.022l-.008.053.016.002zm.03.014l.019-.003v-.058h-.039v.058zm.019.003v-.006l-.019.003.019.003zm-.132.003l.008-.023-.28-.044.253.125z"/><path fill="#FFF" d="M115.648 15.751l-.008-.011.009-.002.003-.016-.055-.009-.008.023.058.018z"/><path fill="#FFF" d="M115.661 15.736l.007-.012-.016-.002-.003.016zm-.014.016h.004v.006h-.004zm.035-.025l-.003-.001.003.004zm.002.006l.018-.003-.02-.003v.003zm-.044.007l.008.011.001-.013z"/><path fill="#FFF" d="M115.661 15.736l-.012.002-.001.013.003.005zm.041.023l.019-.026-.019-.003-.018.003zm.239.362l-.092-.28-.038.028zm-.156-.303l.026.051.038-.028-.015-.047z"/><path fill="#FFF" d="M115.771 15.791l.002.003.01.003-.006.006.008.015.049-.024-.019-.058.012.037z"/><path fill="#FFF" d="M115.762 15.774l.009.017.056-.018-.012-.037-.056.018zm0 0l-.003-.02-.006.002zm-.059.176l.238.171-.197-.201zm.03-.234l-.008.01.012-.002zm.02.04zm-.032-.023l.022.003-.006-.012-.012.002-.004.007zm0 .034l.032-.011-.01-.02-.022-.003zm0-.034z"/><path fill="#FFF" d="M115.721 15.767v-.034l-.019.026.009.011zm.071.115l.001.003-.049.035.197.201-.13-.252z"/><path fill="#FFF" d="M115.771 15.834l-.012-.004-.004.002.037.05.019-.013-.026-.051-.015.007z"/><path fill="#FFF" d="M115.771 15.834l-.001-.009-.011.005zm-.003-.022l.002.013.015-.007-.008-.015zm-.013.02l.004-.002-.006-.002zm.018-.038l-.002-.003-.003.001z"/><path fill="#FFF" d="M115.753 15.828l.006.002.011-.005-.002-.013-.015.016zm.015-.036l.003-.001-.009-.017.003.017z"/><path fill="#FFF" d="M115.753 15.756l-.019.026.031.009-.003-.017-.009-.018z"/><path fill="#FFF" d="M115.734 15.782l.019-.026-.032.011v.011zm-.019-.006l.006.002v-.011l-.01.003zm-.253.345l.241-.171-.042-.03zm.21-.405l-.004.008.011.002z"/><path fill="#FFF" d="M115.682 15.73l-.003-.004-.011-.002-.007.012.021-.003zm-.031.026zm.031-.026v.003h.002z"/><path fill="#FFF" d="M115.651 15.756l.031.009v-.032l-.021.003-.01.02zm.051.003l-.018-.026h-.002v.032l.013.004zm.001.119l-.042.042.042.03.041-.03z"/><path fill="#FFF" d="M115.703 15.772l.008-.002-.009-.011-.007.01zm.021.085l-.003.003v.008l-.005-.002-.013.012.041.042.049-.035-.001-.003-.032.023z"/><path fill="#FFF" d="M115.743 15.838l-.019.019.036.048.032-.023-.037-.05z"/><path fill="#FFF" d="M115.752 15.828l-.009.01.012-.006-.002-.004zm.001 0h-.001zm-.032.04v-.008l-.005.006zm-.01-.098l-.008.002.012.004zm-.156.07l-.093.281.131-.253z"/><path fill="#FFF" d="M115.619 15.818l-.049-.024-.015.046.038.028zm.009-.017l-.003-.004.006-.002.002-.004-.056-.018.012-.037-.019.058.049.024z"/><path fill="#FFF" d="M115.633 15.791l.012-.023.002-.014-.058-.018-.012.037zm.014-.037l-.002.014.006-.012zm.136.043l-.01-.003.004.009zm-.158 0l.003.004.003-.006z"/><path fill="#FFF" d="M115.765 15.793l.003.019.009-.009-.004-.009-.005-.002zm-.031.01l.019.025.015-.016-.003-.019z"/><path fill="#FFF" d="M115.768 15.792l-.003-.001v.002zm-.034.011l.031-.01v-.002l-.031-.009-.007.01z"/><path fill="#FFF" d="M115.721 15.784l.006.008.007-.01-.013-.004zm0-.006l-.006-.002.006.008zm-.108.107l.001-.002-.021-.015-.131.253.199-.201z"/><path fill="#FFF" d="M115.645 15.831l-.01.003.001-.008-.017-.008-.026.05.021.015.036-.05z"/><path fill="#FFF" d="M115.635 15.834l.01-.003-.009-.005z"/><path fill="#FFF" d="M115.645 15.831l.005.002.003-.004zm-.012-.04l-.002.004.008-.002zm.005.02l-.01-.01-.009.017.017.008zm.003-.019l.004-.024-.012.023.006.002z"/><path fill="#FFF" d="M115.654 15.827l-.016-.016-.002.015.009.005.008-.002zm.017-.045l-.02-.026-.006.012-.004.024z"/><path fill="#FFF" d="M115.682 15.765l-.031-.009.02.026.011-.003z"/><path fill="#FFF" d="M115.69 15.776l.005-.007-.013-.004v.014zm-.049.017h-.002l-.008.002-.003.006.01.01zm-.002 0h.002v-.001zm.032.01l-.03-.01-.003.018.016.016z"/><path fill="#FFF" d="M115.678 15.793l-.007-.011-.03.01v.001l.03.01zm.004-.006v-.008l-.011.003.007.011zm0-.008v.008l.008-.011zm0 .089v-.012l-.001-.001-.036.05-.031-.022-.001.002.048.035.042-.042-.013-.014z"/><path fill="#FFF" d="M115.682 15.868l.008-.004-.008-.008zm-.001-.013l-.013-.013-.018-.009-.036.05.031.022zm-.028-.026l-.003.004.018.009-.013-.014z"/><path fill="#FFF" d="M115.653 15.829l.002-.001-.001-.001zm.042-.06l-.005.007.013-.004zm.026.091l.003-.003-.003-.005zm-.04-.005l.001.001v-.002zm.021.004l-.012.005.013.014.013-.012zm-.02-.005v.002l.008.008.012-.005-.017-.009z"/><path fill="#FFF" d="M115.721 15.852l.003.005.019-.019-.022.011z"/><path fill="#FFF" d="M115.721 15.818v.031l.022-.011.009-.01zm0 0l.031.01h.001l-.019-.025-.013.004z"/><path fill="#FFF" d="M115.721 15.8v.007l.013-.004-.007-.011zm-.039.049l-.014-.007.013.013.001-.001z"/><path fill="#FFF" d="M115.682 15.854l.003-.004-.003-.001zm.045-.062l-.006-.008v.016zm-.008.058l-.017.009.014.007.005-.006v-.008z"/><path fill="#FFF" d="M115.702 15.826l-.017.024.017.009.017-.009zm.019.026v-.003l-.002.001z"/><path fill="#FFF" d="M115.702 15.826l.017.024.002-.001v-.031l-.011-.003zm.013-.017l-.005.006.011.003v-.011zm.006-.002V15.8l-.006.009zm-.039.012l-.027.009.013.014.014.007z"/><path fill="#FFF" d="M115.671 15.803l-.017.024.001.001.027-.009v-.013z"/><path fill="#FFF" d="M115.682 15.798l-.004-.005-.007.01.011.003zm0 .021v.03l.003.001.017-.024-.008-.011zm.007-.01l-.007-.003v.013l.012-.004zm-.007-.003l.007.003-.007-.011z"/><path fill="#FFF" d="M115.682 15.787l-.004.006.004.005zm.021.026l-.009.002.008.011.008-.011z"/><path fill="#FFF" d="M115.71 15.815l.005-.006-.012.004z"/><path fill="#FFF" d="M115.694 15.815l.009-.002-.014-.004z"/><path fill="#FFF" d="M115.689 15.809l.014.004.012-.004.006-.009v-.016l-.006-.008-.012-.004-.013.004-.008.011v.011zm1.642-.424l-.093.284h.048zm.091.284l-.091-.284.04.284z"/><path fill="#FFF" d="M117.31 15.669h.061l-.04-.284-.045.284zm.406 0h-.294l.014.044z"/><path fill="#FFF" d="M117.379 15.722l.057-.009-.014-.044h-.051z"/><path fill="#FFF" d="M117.349 15.727l.007-.011.004.009.019-.003-.008-.053h-.023v.058zm.126.115l.241-.173-.256.126z"/><path fill="#FFF" d="M117.456 15.773l-.003.001.007.021.256-.126-.28.044z"/><path fill="#FFF" d="M117.391 15.74l-.008.011v.003l.057-.018.013.038.003-.001-.02-.06-.057.009.002.016zm-.025-.004l.015.002-.002-.016-.019.003z"/><path fill="#FFF" d="M117.383 15.754v-.003l-.003.004zm-.034-.027h-.001v.001zm-.152.067l-.255-.125.239.173zm.194-.054l-.01-.002.002.013z"/><path fill="#FFF" d="M117.38 15.755l.003-.004-.002-.013-.015-.002.011.02zm-.142-.086h-.296l.282.044zm.039.053l.009-.053h-.048l-.014.044z"/><path fill="#FFF" d="M117.3 15.716l.008.01.002.001v-.058h-.024l-.009.053.019.003zm.029.014l.019-.003v-.058h-.038v.058zm.019-.002v-.001l-.019.003.016.002zm-.132.008l.008-.023-.282-.044.255.125z"/><path fill="#FFF" d="M117.273 15.749l-.007-.009.009-.002.002-.016-.053-.009-.008.023.056.018zm.037-.022l-.002-.001.002.004zm-.037.022l-.001.005.006.002zm.017-.013l.006-.011-.019-.003-.002.016z"/><path fill="#FFF" d="M117.312 15.733l.017-.003-.019-.003v.003zm-.046.007l.007.009.002-.011z"/><path fill="#FFF" d="M117.279 15.756l.011-.02-.015.002-.002.011.005.007zm.049 0l.017-.024-.016-.002-.017.003zm.239.365l-.092-.279-.039.028zm-.157-.302l.026.051.039-.028-.015-.047zm-.014-.026l.014.004-.008.008.008.014.05-.024-.007-.021-.057.018z"/><path fill="#FFF" d="M117.383 15.754l.003.02.01.018.057-.018-.013-.038z"/><path fill="#FFF" d="M117.378 15.758l.008.016-.003-.02-.003.001z"/><path fill="#FFF" d="M117.38 15.755l-.003.001.001.002zm-.051.195l.238.171-.198-.201zm.027-.234l-.007.011.011-.002zm-.008.017l.018.003-.006-.011-.011.002-.001.001z"/><path fill="#FFF" d="M117.348 15.766l.029-.01-.011-.02-.018-.003zm0-.038l-.003.004.003.001zm0 .038v-.033l-.003-.001-.017.024.009.013zm.069.117l.001.002-.049.035.198.201-.131-.251zm-.022-.049l-.01-.003-.003.002.035.05.019-.013-.026-.051-.016.008z"/><path fill="#FFF" d="M117.395 15.834l-.001-.007-.009.004zm.001-.041v-.001h-.002z"/><path fill="#FFF" d="M117.382 15.833l.003-.002-.006-.002zm.01-.018l.002.012.016-.008-.008-.014z"/><path fill="#FFF" d="M117.379 15.829l.006.002.009-.004-.002-.012-.013.014zm.015-.037h.002l-.01-.018.002.016z"/><path fill="#FFF" d="M117.36 15.782l.028.008-.002-.016-.008-.016zm0 0l.018-.024-.001-.002-.029.01v.012zm-.018-.017h.006v.012h-.006zm-.251.356l.238-.171-.041-.03zm.209-.405l-.004.009.012.001zm.01.014l-.002-.004-.012-.001-.006.011.02-.003zm0 0v.003h.002z"/><path fill="#FFF" d="M117.31 15.766v-.033l-.02.003-.011.02zm.018-.01l-.016-.023h-.002v.033l.009.003zm.001.124l-.041.04.041.03.04-.03z"/><path fill="#FFF" d="M117.329 15.772l.008-.003-.009-.013-.009.013zm.022.085l-.003.004v.007l-.006-.002-.013.014.04.04.049-.035-.001-.002-.031.022z"/><path fill="#FFF" d="M117.368 15.84l-.017.017.035.048.031-.022-.035-.05z"/><path fill="#FFF" d="M117.379 15.829l-.011.011.014-.007-.003-.004zm0 0zm-.031.039v-.007l-.006.005zm-.011-.099l-.008.003.013.004zm-.156.073l-.09.279.13-.251zm.066-.023l-.05-.025-.016.048.04.028z"/><path fill="#FFF" d="M117.255 15.804l-.007-.007.012-.004.001-.001-.057-.019.012-.037-.019.058.05.025z"/><path fill="#FFF" d="M117.261 15.792l.008-.015.003-.023-.056-.018-.012.037zm.017-.036l-.006-.002-.003.023.01-.02zm0 0l.001.001v-.001zm.132.041l-.014-.004.006.012zm-.162 0l.007.007.005-.011zm.141-.003l.003.021.01-.01-.006-.012-.002-.001z"/><path fill="#FFF" d="M117.361 15.803l.018.026.013-.014-.003-.021zm.033-.011l-.006-.002.001.004z"/><path fill="#FFF" d="M117.361 15.803l.028-.009-.001-.004-.028-.008-.007.01zm-.013-.019l.005.008.007-.01-.012-.004zm0-.006l-.006-.002.006.008zm-.109.107l.001-.001-.019-.014-.13.251.197-.201zm.032-.054l-.011.003.001-.008-.014-.007-.026.051.019.014.036-.051z"/><path fill="#FFF" d="M117.26 15.834l.011-.003-.01-.005zm.003-.021l-.008-.009-.008.015.014.007zm-.002-.021l-.001.001.003-.001zm.01.039l.005.002.002-.005z"/><path fill="#FFF" d="M117.266 15.791l.003-.014-.008.015h.002zm.012.037l-.015-.015-.002.013.01.005.007-.003z"/><path fill="#FFF" d="M117.297 15.782l-.018-.025-.01.02-.003.014z"/><path fill="#FFF" d="M117.31 15.766l-.031-.01v.001l.018.025.013-.005z"/><path fill="#FFF" d="M117.307 15.767h.01v.009h-.01zm-.041.026l-.003-.001-.003.001-.005.011.008.009z"/><path fill="#FFF" d="M117.263 15.792l.003.001v-.002zm.033.011l-.03-.01-.003.02.015.015z"/><path fill="#FFF" d="M117.304 15.791l-.007-.009-.031.009v.002l.03.01z"/><path fill="#FFF" d="M117.31 15.782v-.005l-.013.005.007.009zm0-.005v.005l.004-.006zm0 .091v-.007l-.004-.005-.036.049-.03-.021-.001.001.049.035.041-.04-.014-.014z"/><path fill="#FFF" d="M117.31 15.868l.005-.002-.005-.005zm-.004-.012l-.017-.016-.013-.007-.036.051.03.021zm-.028-.028l-.002.005.013.007-.011-.012zm0 0zm.041-.059l-.005.007.015-.004zm.029.092l.003-.004-.003-.005zm-.019-.002l-.014.007.014.014.013-.014zm-.023-.003l.004.005v-.011z"/><path fill="#FFF" d="M117.31 15.85v.011l.005.005.014-.007-.019-.009zm.038.002l.003.005.017-.017-.02.01z"/><path fill="#FFF" d="M117.348 15.819v.031l.02-.01.011-.011zm0 0l.031.01-.018-.026-.013.004zm0-.02v.008l.013-.004-.008-.011zm-.038.051l-.021-.01.017.016.004-.006zm0 0zm.043-.058l-.005-.008v.015zm-.006.058l-.018.009.013.007.006-.005v-.009zm-.019-.025l-.018.025.019.009.018-.009z"/><path fill="#FFF" d="M117.348 15.852v-.002h-.001zm-.02-.027l.019.025h.001v-.031l-.012-.004z"/><path fill="#FFF" d="M117.34 15.809l-.004.006.012.004v-.012z"/><path fill="#FFF" d="M117.348 15.807v-.008l-.008.01zm-.038.012l-.032.009.011.012.021.01z"/><path fill="#FFF" d="M117.296 15.803l-.018.025.032-.009v-.012z"/><path fill="#FFF" d="M117.31 15.8l-.006-.009-.008.012.014.004zm0 .019v.031l.018-.025-.007-.01zm.007-.01l-.007-.002v.012l.011-.004zm-.007-.002l.007.002-.007-.009z"/><path fill="#FFF" d="M117.31 15.782l-.006.009.006.009zm.018.031l-.007.002.007.01.008-.01zm.008.002l.004-.006-.012.004zm-.015 0l.007-.002-.011-.004z"/><path fill="#FFF" d="M117.317 15.809l.011.004.012-.004.008-.01v-.015l-.006-.008-.013-.004-.015.004-.004.006v.018z"/><path fill="#44CFFF" d="M26.255 10.016s-.168-.872-1.327-1.216c-1.159-.343-2.333.17-3.342.752l-9.367 5.408c-2.732 1.577-4.055 5.016-2.735 7.302.74 1.281 5.98 10.393 7.089 12.319.992 1.724 3.22 2.217 4.818 1.298l11.866-6.824c1.617-.931 2.305-3.067 1.295-4.822-1.204-2.093-2.16-3.751-3.437-5.969-.9-1.564-2.853-2.161-4.434-1.251-1.606.924-8.184 4.728-9.705 5.603-1.359.782-3.591 1.112-4.752-.905-1.083-1.881.202-3.731 1.606-4.544s12.425-7.151 12.425-7.151z"/><linearGradient id="a" gradientUnits="userSpaceOnUse" x1="1111.793" y1="-1842.808" x2="1134.512" y2="-1842.808" gradientTransform="matrix(1 0 0 -1 -1097.725 -1825.682)"><stop offset="0" stop-color="#019beb"/><stop offset="1" stop-color="#01a3f7"/></linearGradient><path fill="url(#a)" d="M36.41 18.739c-.361-.621-.785-1.36-1.272-2.207l-.857-1.491c-1.073-1.864-3.319-3.069-5.722-3.069-1.13 0-2.197.27-3.085.782l-10.678 6.148c-.686.395-.805 1.001-.689 1.438.14.524.599.875 1.142.875.25 0 .503-.073.754-.217l10.024-5.772a5.275 5.275 0 012.619-.726c1.631 0 3.041.826 3.87 2.266.403.701 1.51 2.616 2.324 4.026l.859 1.488.182-.114c1.04-.654 1.138-2.379.529-3.427z"/><path d="M55.073 34.999c0 .257-.011.474-.032.65a1.975 1.975 0 01-.096.437c-.043.116-.096.217-.161.268a.362.362 0 01-.225.094h-7.627c-.283 0-.485-.101-.678-.268-.193-.167-.254-.457-.254-.834V20.233c0-.086-.008-.163.048-.232s.13-.124.259-.167a2.61 2.61 0 01.512-.103c.219-.026.486-.039.812-.039.334 0 .606.013.821.039.214.026.385.06.513.103a.594.594 0 01.277.167.358.358 0 01.084.232v13.304h5.232c.086 0 .161.066.225.113s.118.146.161.253.075.259.096.435c.023.176.033.403.033.661zm13.402-4.875c0 .978-.129 1.869-.386 2.675s-.648 1.5-1.17 2.084c-.523.583-1.179 1.033-1.968 1.35-.789.317-1.711.476-2.765.476-1.02 0-1.908-.141-2.662-.424-.755-.283-1.381-.695-1.878-1.235-.497-.54-.866-1.205-1.106-1.994-.24-.789-.36-1.689-.36-2.701 0-.978.131-1.871.392-2.682a5.649 5.649 0 011.177-2.084c.523-.579 1.177-1.027 1.961-1.344.785-.317 1.704-.476 2.759-.476 1.029 0 1.921.139 2.675.418s1.378.688 1.871 1.228c.493.54.86 1.205 1.1 1.994.24.79.36 1.695.36 2.715zm-3.331.129c0-.566-.045-1.087-.135-1.563a3.664 3.664 0 00-.457-1.241 2.288 2.288 0 00-.855-.823c-.356-.197-.804-.296-1.344-.296-.48 0-.9.088-1.26.264-.36.176-.656.433-.887.772-.232.339-.405.746-.521 1.222s-.174 1.018-.174 1.627c0 .566.047 1.087.142 1.563.094.476.246.89.457 1.241.21.352.495.624.855.817s.806.289 1.338.289c.489 0 .913-.088 1.273-.264s.656-.431.887-.765a3.51 3.51 0 00.514-1.215 7.208 7.208 0 00.167-1.628zm15.573 5.762c0 .12.003.214-.082.283-.086.069-.198.118-.382.148s-.445.045-.805.045c-.386 0-.661-.015-.837-.045-.176-.03-.253-.079-.326-.148s-.062-.163-.062-.283v-.913c-.624.506-1.054.9-1.658 1.183-.604.283-1.298.424-2.035.424-.609 0-1.179-.079-1.689-.238s-.957-.394-1.33-.707-.665-.701-.871-1.164-.31-1.113-.31-1.731c0-.765.13-1.372.392-1.865.261-.493.651-.9 1.17-1.222a5.839 5.839 0 011.936-.754 13.624 13.624 0 012.688-.272h1.085v-.381c0-.36-.02-.675-.092-.945a1.557 1.557 0 00-.352-.675c-.167-.18-.386-.313-.665-.399s-.622-.129-1.033-.129c-.54 0-1.021.06-1.446.18-.424.12-.799.253-1.125.399s-.598.279-.816.399c-.219.12-.397.18-.534.18-.094 0-.178-.03-.251-.09s-.139-2.133-.019-2.257.33-.261.63-.412c.3-.15.652-.289 1.055-.418s.842-.233 1.318-.315a8.767 8.767 0 011.473-.122c.9 0 1.67.088 2.309.264s1.164.446 1.576.81c.412.365.665.834.854 1.408.188.575.237 1.256.237 2.045v7.717h-.003zm-3.118-5.18h-1.201c-.523 0-.969.056-1.338.133a2.54 2.54 0 00-.9.356c-.231.154-.401.345-.508.564s-.161.594-.161.877c0 .48.152.969.457 1.243.304.274.727.412 1.267.412.454 0 .855-.115 1.237-.347.381-.232.731-.57 1.147-1.016v-2.222zm17.462 5.141c0 .086-.058.161-.11.225-.051.064-.153.118-.273.161s-.293.075-.503.096-.474.032-.782.032c-.317 0-.583-.011-.793-.032-.21-.022-.376-.053-.496-.096s-.223-.096-.274-.161a.367.367 0 01-.094-.225v-6.547c0-.557-.024-.995-.106-1.312s-.191-.59-.345-.817-.35-.403-.594-.527-.527-.187-.853-.187c-.412 0-.781.15-1.201.45-.42.3-.85.738-1.266 1.312v7.627c0 .086-.071.161-.122.225s-.162.118-.286.161-.301.075-.506.096c-.206.021-.473.032-.79.032s-.582-.011-.787-.032a2.35 2.35 0 01-.497-.096.561.561 0 01-.262-.161.35.35 0 01-.075-.225V24.503c0-.086.019-.161.062-.225s.119-.118.23-.161.254-.075.43-.096.396-.032.662-.032c.274 0 .501.011.682.032.18.022.319.054.418.096.098.043.14.097.183.161s.036.139.036.225v1.325a7.255 7.255 0 011.964-1.544 4.426 4.426 0 012.066-.514c.78 0 1.445.129 1.981.386s.972.607 1.303 1.048c.33.442.602.958.748 1.55a8.88 8.88 0 01.253 2.135v7.087h-.003zM55.794 55.12c0 .249-.011.457-.032.624a1.676 1.676 0 01-.096.405.443.443 0 01-.161.205c-.064.047-.135.051-.212.051h-8.36c-.283 0-.485-.064-.678-.231-.194-.167-.255-.42-.255-.797V40.869c0-.377.061-.663.254-.83a.972.972 0 01.678-.264h8.309c.077 0 .146.035.206.078s.111.125.154.232.075.248.096.415.032.381.032.638c0 .24-.011.445-.032.612a1.685 1.685 0 01-.096.406.602.602 0 01-.154.238.34.34 0 01-.206.084h-5.914v3.95h4.989v2.703h-4.989v4.573h5.966c.077 0 .148.07.212.117s.118.145.161.248.075.249.096.417c.021.166.032.385.032.634zm12.759.656a.792.792 0 01.096.36c-.004.094-.066.172-.186.231-.12.06-.304.101-.553.122s-.579.032-.99.032c-.386 0-.697-.006-.932-.019a2.628 2.628 0 01-.553-.077.792.792 0 01-.296-.141.541.541 0 01-.148-.212l-2.122-4.077-2.122 4.077a.565.565 0 01-.142.212.706.706 0 01-.277.141c-.124.039-.298.064-.521.077s-.514.019-.875.019c-.377 0-.677-.011-.9-.032-.223-.022-.386-.062-.489-.122-.103-.06-.157-.137-.161-.231-.004-.094.032-.214.109-.36l3.177-5.646-2.932-5.299c-.077-.154-.118-.285-.122-.392s.049-.191.161-.251c.111-.06.289-.103.534-.129a9.93 9.93 0 01.997-.039c.377 0 .679.006.907.019.227.013.405.032.534.058a.588.588 0 01.283.122c.06.056.111.127.154.212l2.045 3.833 2.032-3.833a.49.49 0 01.116-.18.6.6 0 01.244-.129c.111-.034.264-.06.457-.077s.457-.026.791-.026c.377 0 .679.009.907.026.227.017.39.056.489.116.098.06.146.144.141.251-.004.107-.054.247-.148.418l-2.855 5.209 3.15 5.737zm13.684-5.673c0 1.021-.109 1.656-.328 2.475s-.538 1.516-.958 2.09a4.245 4.245 0 01-1.569 1.325c-.626.309-1.342.463-2.148.463-.477 0-.914-.032-1.193-.096s-.549-.163-.81-.296c-.262-.133-.557-.298-.814-.495s-.144-.191-.56-.457v5.448c0 .085.01.163-.041.231a.515.515 0 01-.246.174c-.124.047-.28.084-.486.109-.206.026-.463.039-.78.039s-.576-.013-.782-.039-.37-.062-.494-.109-.186-.105-.238-.174c-.051-.069-.051-.146-.051-.231V44.535c0-.086-.004-.161.039-.225s.105-.118.212-.161c.107-.043.242-.075.418-.096s.393-.032.659-.032c.257 0 .472.011.648.032.176.022.316.054.424.096.107.043.189.097.232.161s.071.139.071.225v1.056c.416-.343.325-.351.646-.612.322-.262.646-.48.98-.656s.678-.306 1.034-.392c.356-.086 1.065-.129 1.468-.129.84 0 1.556.165 2.147.495.592.33 1.074.783 1.447 1.357.373.575.645 1.243.817 2.006.171.763.256 1.578.256 2.443zm-3.369.232a8.9 8.9 0 00-.109-1.408 4.169 4.169 0 00-.373-1.203 2.299 2.299 0 00-.695-.843c-.287-.21-.645-.315-1.074-.315-.214 0-.427.032-.637.096s-.424.17-.643.315c-.219.146-.48.335-.711.566-.232.231-.353.519-.769.862v3.498c.624.575.923 1.018 1.335 1.331s.858.47 1.304.47c.42 0 .787-.107 1.083-.322.296-.214.542-.495.731-.843.189-.347.33-.74.42-1.177.09-.436.138-.59.138-1.027zm16.401-.399c0 .394-.116.639-.292.828-.176.189-.446.236-.754.236h-6.984c0 .624.058.979.174 1.378s.3.761.553 1.04.579.503.978.648c.399.146.877.225 1.434.225.566 0 1.063-.038 1.492-.119.429-.081.799-.17 1.113-.269.313-.098.572-.188.778-.269s.373-.122.502-.122c.077 0 .153.018.206.079.039.045-.002 2.177-.058 2.237s-.208.142-.457.244c-.249.103-.566.204-.952.302s-.828.184-1.325.257c-.497.073-1.029.109-1.595.109-1.02 0-1.914-.129-2.682-.386-.767-.257-1.408-.647-1.923-1.17-.514-.523-.898-1.183-1.151-1.981-.253-.797-.379-1.732-.379-2.804 0-1.02.133-1.94.399-2.759s.652-1.513 1.158-2.084a4.99 4.99 0 011.846-1.306c.725-.3 1.541-.45 2.45-.45.96 0 1.781.141 2.463.424s1.241.675 1.678 1.177a4.81 4.81 0 01.993 1.781 7.74 7.74 0 01.337 2.238v.516h-.002zm-3.194-1.015c.026-.832-.157-1.578-.547-2.097s-.993-.756-1.807-.756c-.412 0-.77.088-1.074.243a2.224 2.224 0 00-.759.629 2.62 2.62 0 00-.463.884 4.193 4.193 0 00-.186 1.096l4.836.001zm12.101-2.377c-.262.223-1.166.161-1.295.13a1.87 1.87 0 00-.424-.045c-.18 0-.36.037-.54.109-.18.073-.367.187-.56.341s-.408.36-.618.617-.481.575-.688.952v7.359c0 .086-.012.161-.064.225-.051.064-.133.118-.257.161s-.286.075-.492.096a7.939 7.939 0 01-.783.032c-.317 0-.578-.011-.784-.032-.206-.022-.371-.053-.495-.096s-.164-.096-.215-.161c-.051-.064-.029-.139-.029-.225V44.535c0-.086-.027-.161.016-.225s.096-.118.207-.161.243-.075.419-.096.39-.032.656-.032c.274 0 .499.011.679.032.18.022.318.054.416.096.098.043.185.097.228.161s.08.139.08.225v1.428c.208-.429 1.063-1.353 1.303-1.516s.472-.277.712-.341.566-.104.864-.113a5.523 5.523 0 011.104.1c.137.03.257.064.36.103s.178.079.225.122c.048.043.028 2.18-.025 2.226zm9.389 9.624a1.02 1.02 0 01-.341.219c-.15.064-.326.12-.527.167-.202.047-.42.084-.656.109a6.515 6.515 0 01-.714.039c-.643 0-1.201-.082-1.672-.244a2.769 2.769 0 01-1.17-.753 3.154 3.154 0 01-.706-1.28 6.676 6.676 0 01-.243-1.827v-5.964h-1.327c-.163 0-.287-.057-.373-.259-.086-.201-.129-.516-.129-.988 0-.248.011-.448.032-.619.021-.171.053-.301.096-.4a.396.396 0 01.161-.188c.064-.043.139-.04.225-.04h1.314v-2.602c0-.086.048-.163.095-.231.047-.069.145-.126.27-.174.124-.047.298-.081.508-.103.21-.021.473-.032.781-.032.317 0 .582.011.793.032.21.022.376.056.496.103s.23.105.282.174c.051.069.102.146.102.231v2.602h2.447c.086 0 .161 0 .225.043a.44.44 0 01.161.202c.043.099.075.228.096.4s.032.379.032.628c0 .472-.043.764-.129.965-.086.202-.21.258-.373.258h-2.46v5.476c0 .626.074 1.095.272 1.408.197.313.537.47 1.043.47.171 0 .32-.015.457-.045s.256-.064.364-.103c.107-.039.196-.073.269-.103s.139-.045.199-.045c.051 0 .1.015.148.045.044.028.029 2.347-.048 2.429z" fill="#101010"/><path fill="none" d="M0 0h133.228v68.031H0z"/></svg>